<mxfile host="Electron" agent="Mozilla/5.0 (Windows NT 10.0; Win64; x64) AppleWebKit/537.36 (KHTML, like Gecko) draw.io/24.7.8 Chrome/128.0.6613.36 Electron/32.0.1 Safari/537.36" version="24.7.8">
  <diagram name="Page-1" id="Z93GHuC9vrUYghMxevbi">
    <mxGraphModel dx="1434" dy="2056" grid="1" gridSize="10" guides="1" tooltips="1" connect="1" arrows="1" fold="1" page="1" pageScale="1" pageWidth="850" pageHeight="1100" math="0" shadow="0">
      <root>
        <mxCell id="0" />
        <mxCell id="1" parent="0" />
        <mxCell id="NeXbTHolgeKM8Cqgu51a-2" value="" style="edgeStyle=orthogonalEdgeStyle;rounded=0;orthogonalLoop=1;jettySize=auto;html=1;" parent="1" source="jELuem2q0jGzvv6Un2vc-1" target="NeXbTHolgeKM8Cqgu51a-1" edge="1">
          <mxGeometry relative="1" as="geometry" />
        </mxCell>
        <mxCell id="NeXbTHolgeKM8Cqgu51a-5" value="1.&lt;br&gt;POST a&lt;br&gt;number" style="edgeLabel;html=1;align=center;verticalAlign=middle;resizable=0;points=[];" parent="NeXbTHolgeKM8Cqgu51a-2" vertex="1" connectable="0">
          <mxGeometry x="-0.1343" relative="1" as="geometry">
            <mxPoint y="1" as="offset" />
          </mxGeometry>
        </mxCell>
        <mxCell id="jELuem2q0jGzvv6Un2vc-1" value="Azure Static Web App&#xa;(This WebÂ &#xa;Application)" style="shape=image;verticalLabelPosition=bottom;labelBackgroundColor=default;verticalAlign=top;aspect=fixed;imageAspect=0;image=data:image/png,iVBORw0KGgoAAAANSUhEUgAAAFMAAABFCAYAAAA2PdqGAAAAAXNSR0IArs4c6QAAAARnQU1BAACxjwv8YQUAAAAJcEhZcwAAFxEAABcRAcom8z8AACfjSURBVHhezZwHeBTXvehHhd5837vv3ZfEcRLsJPdLsU1RF7jk2onjm+uYqkJvNsWAKQbsgBtC0mp3VeiSQI1mejfddASiqK5WvRc62CABKr/3/c/sSqsC2C+59939vp9m9syZmXN+8z9ldjWr3br5LTX3aqG+HhrqoL4OGhqgsREQGppptOGY9kNplPPYzqWWrZH01tvsaa23tU5vvf1pPOZY7dXRXne1Tby0fWk1NQ+oeygSG/SDKqntHOwfhchUSKHt645Ieutt9rTW21qnt97+NNo7Vn3bMrfhMTLVXxWAjbpEFZV1gB05uNBe2pPSH0NToR+1I8Gebqe9tCelt97+ONrL6/C+dZlb1FPW2xeqy1SvRlsYS4UfAQ9sPPzH0vjgvzntlLkN4kek2rpC6RIbG9GaBdv7R3tf6XhVWof530PrK/7fkdZlbo1jVDb3pS0jUzY1NlL7qI5va2q5c/8+t+/VcPte7T8QOd5/T27ZuHOvtg328t+U7fcfUFNXRwONNDa15hYy9eAtuXWfbzJL2XjKwtqjmcQesxB7zMqaY1bWOiDvW7P2WE4Trbc1k62IbYPVtpTzWZry/VdiL4tjPZrrm0PssRxWH84m6biVk9YqKu/W8kjGGlurbpJZ39BI8e0a1p3NY9KKQ7z56VYG/G0bPgt347NoD76L9jBwYTMD2mUvA23Ie99Fe9uyUNiHz8K97bAHn0U7Fb4Ld+Erx2iNrSz/mQxYtLcNvoukzPvxXLCbPyzayQcx37ArpYAb96UPlZf0mbbmXfOojiOWciasPMKz42PpPHQ5nQJi6RgQpxMYRye1vlbHf42ik/9aOvnH0ck/nk7+CXQKSFDLjgFCoo0kB9bp+Cfp+NlJpKN/vO34a2xLeW8/lo3A9oh/Aq3zPp1OgfEOyHtJt5V9eDydh0fzq0kxzI87Rk7VHXs8Nsu8W/uQpNPZvPrpNrRBy9HeXoY2JBZtyBrbMhZtcCzaoBi0d1ej/XUV2rur0AatRhsUjTZItq9BG7zWRhzaoLVof12L9m482qBEtMFJNmQ9AW1QAtpf49HeiUP7j7Vo76xBe1eOE6Ofa4jtOHI8WReGOhJnW655Cva89vyPw57HcV97WjzaEClzHNo7K+n0jgn/JVtJyb/qKFN/3a55QMw3Gfgs3IrzsBhdTkAiWmC8TkAc2vC1On6yjEUbFoPz8Bhc/NfgGhCPS0ACTgEJaP4O+CWgDUtEG7YOp+EbcPYX1qH5J6ENS0AbEm8raDzOg+NwHbKGDsPX4uIv55XzCwmP4WnbW+d7Wt528oxIdCAJLXAd2rBYurxrZugXmzlrrW5fZmyTTIm0GDQRExCHU+BanP1j6eAfS8+x6/iXyZv5l/e/otdYaQKxdAiIxTUgDlf/eFz81tIpMI5e49fx42mb+cm0LfyP8evpHJCA6/BEXP0S6eCfgKtfHC7DYug+Ip4fT9rIz97/ih+PSeKf/NbQbWgsHf3kvFIZG20qbq9867S/hyfJtK0HShDE0nWQmWGLHyPzVs0D1pzIYMCirbgMk6a72haRa9CGr6Jb4Cp+PX0d74QfY9qmDKZtzuAvUSf45ewtdBu1Vo/Q4TF0Hr6S56ck8Zfwo3ywJZ0ZW9PxX3WGl+Zsp3tgHK7D1uAiV9Z/NT+bFMcfF+9jWtJFPt6WwbiVp/GcvYX/FRBLh2GxOEkLGBGvY28hLWgt40m03rc9Wu/jcDHtMqW1ShAMNuMXtIVzOY+TeTKTAZ+2kum/BpchS3lhcgwTVx1m08VSLl57RMrNehLSqhkZd47npm9CG7ISl6Er+MnYVQw37iXhfDEpNyTfI/ZYbzAtMZne0zbg6heD0+AV/MuYlQwJ3U3M8VySy+9hvdvAQesN5q+/wMszN9NRdSNr2lbuvxpHmRK1DjL9g7aQ3J5M1cxPZOD76RabzGg0/zichsfQbVgU/7ZwI0mnsqm6/0jNR4X8mnqWp5TiGbQfbchyOgxbhtdH64nYc4nCm/fUjZfckN581MD6lBJeD9pP15EyyETw22kxhO1OofBWjcojw+CtR43st1xlWNRxuo+UflRk/qOb8g/Fsb8VmTIGxNB9SDj+QVt/gEy/ODUYPeO3DD/DTs7kN+8orxpgd8lt3ow8hjZ4GR2HLeXtxTvZcaGAh+qTp+bX8eKbDFp2nB6jZdQ24z4njq+Sc9t8XJB5+yFT11+i15hEtEEiUzr91hX8r+TvlTncLjMe52GxdB++nP/4chu7LhdyTz6qs70q6xqJT6/CJ/Qg2qBluA5dxmufbmftiWyq7umTWcl9D9iSUcEbhoN0GSnTpUhemhnHysPpXK+Re2H9da8BjhXdJnD1WbqNStCnWv/fZcr5HbDJ7DHYTEDQFs63J1P6zJgTGfh8thWX4bbR3D8Rp+FrcR2ynBenxzFv3UmOZFdR/G0dJfcbOFBwixlbrvDCnK1og1fgMmwVv/ogialxJ9hjqSbvuzry79VzquwO83dc4ddztuLivxZt0EqeHb+aiSsOsvtKCbm3a6l8BOcqvmXxviz6f7JHzQ7U/C4wUY3qzcj71jhubx+7nNbp7dN8bDUVClyHkyxHyHqSmhY2RWbuY2SuPpGBl6NM6Wz94tCGrOKZESvpN2cDE2NOYDiUg/FYPu8npdB/4W56jpUIjsbVL5aeo2J4ed4mxqw9RdBhK8FHc5m26SKen+2l+5gkFe1Ow9bQ3X8lv5uewMhlR1i8P4uoU0XM2nKFAZ/v55mx6/R8fnrFnAMTbMh6Uisctz8dl+9FUhPOgeua0Eas1+UOX0P3oeH4B28lOc9Rpq3TulnzgJUnMvAUmX6r0QZH20ZzGYRkIh1N18BofvJ+Er+du43fztvJc1O/osfoBFwD1irULWBgLD1Gx/DjKQn869zN/GbeNp6dtpHuYxJxlkm9fyIucpvoH0v3wGh+PDGB38zZwosLdvKL6VvpNWYdLiJR8gUm4jKiNUnt0DpPW1wDE+nwRBIc1pOacLUh53Gyy/RbQ/dhEfiHbuNcfnVTv99KZjqen27GZfhKtEGr9Lsev7U4C8Pk9i4abWi0fvcjd0JyuzVsDU5+ceoOqIN/HC4BcocUgzZ0FZpM/ofLegzaMDlWEk7+SepOycU/Tk1+taG2KdBwh1u2YYk4+0tUSDTFO9BeZLbO0z5yAaWM34vAhDZIxMr5tIAkFVw9hkbgH7KNc3mPk3nSFpn+0WhDYvT+KkAqJpWwjWb2W6qA9TqB63EK3IBz4AZcAtfjPGJD8xUMsHXa8n7ERrQRX+EUuEnlFTTFRjT/jWgBm9ACvlJIHoUca+R6B+T9xla0ztM+ziN+AKPa4jJyA84jN6GN2ISTfwI9hi/DP3QH5/KvtpV5veYhq05n47VkLy5jN6jKO4/bhstYYTsu47fjPGEbThN2oI3bqXASxu/EefxunMfvaYHTuF1o43cqnMbvxmnCHpwn7MV5vGDLM36vQhu7R+E0TrDnEeS4dloevyWO+f5fkGPYy7Ubp4m7HJD3u/WyT9iPNn4f2phtdB+1hgDzXs4XXLOpVF9b6Dav1Twi+nwhvhGn6PjBQbTJh+g04xidph+l0/Rv6DTjOB1nfEPHGcfpMOMEHdTyOK6Kk7jMON0C1xmncJ15UuGiOIXLTElvD9lfOIXLjDO4Ks6qdfV+unDWAXva98NFsB2rfeRc52zLszjNPO3AGZxnnsFlpmxPRpuejNPUo/SavJmRyw5zoei6TaZ8OGybXF+rfUTMxTJeWXGFLnPPo806T9f5KXSbd4Fu8y7SZd4lOs+7qOg07yIdFSl0mJeC67xLuM67gsv8ZlznX8Z1/iWFi+KyLb01er7mPKm4zk/DdV46Lh/puM5tTRquH6XaSGtne0tc5qbjPC8dp3n6sn0ympB8jsh2l/mZuMzLQvsoC+fZF/inmXsZvfo4KcU3bDLrRaYemVdrHxF9sZxXVqbTed5ltNmX6PLxZbouuETXBVfovCCVTvOu0GneZUWH+c3oUlJxWZDmQKoS0xLH7Q75WiBp6TjPl4plKVw+EjJx+SjDRrNo/b1sezzOH2WiiQgbTu1iz2NBm5/VjK0MzvMtOC2wos234jT3Mr0+3M/I6BNPljlwRTqdPrqENusynRdcpsv8i3SZL1JT6f5xGj0+SW+i5ycZ9LQte3ySQfe/Zf6DyKLbJxa6fWyl6wI72XRdYKHrJ9mKLh9b6PpxFl1lqbY9mS6fWOlsQ9bboufRyWnm4xw6zbfgqqRa0OZlo825RM+ZXzNitaNMh2ZeXfuI1RfLGbA8jY5zL6F9eJnO86/Qdd4lei64wv9clMmPvszh2aB8fhqUz3OL8/nZ4nx+vjhP8bPFeTwn6UEFfyf6MX4aVMizi4v5yZc2FhcpfqQo5kcqXdJkWdIuP3ZA5XsiRep8OiVN/GRxCf/8WT7dPtaFSjPXZl+0yTzpIFMNQHaZdaxOqWDAsgw6zLmCNlOadSrd5l3mfy/MpPeSfH4TVsrvzRW8KJjKFS+bSnnZVMZLgrn8e1DBS+bKVkiaHT2fnOP35ip+Z67i9+ZqtS781ljBb8Mq+Z2hit8Zq/i96WobfmfW+Y2N36r3VbwomB7PS4pqXjRd5SXTVV42X+NF8zVeCC3jnz/LpeMCkZmJNuciPT48QGD0Kc6X3LTJVLeTrWVm0mF2GtqMdDp+lEqPeak893kOLxnL6B9RhXtktQ1Zr8QjsqIJz6hKPKOqnkI1HlFX8Yh0QKVVtcB9aXUTHkslz1W8o6oYGFHKaxGlvBJejne4nF+2XW+B+9LruC29Tn8H3Jdew3NpNV5RT+M6nlE3FF5RN/FYepMXI6p5NriIzp9ko32UoWR2//Ag/tGnOdeezKraR6xKqcB3WRaus9LRpqfTcW4avean83xQPv3DK/CIqMQjospGJe4R5XjY8IwoxyuyAq/IShuy3h5VeEZW49EC/aJ4KirV0iOqEo8o21LSwst4M6qQgOgCJicWMy6+jL+sLMNXzh9ZqS6uhzq2ftHco6pwi6pWuNsulldUJd6RFU9AtlfjGXkNLxueUdfoE3WVXxjL6LbIqsucKzIP4Rd9hrMltxwm7TaZlbWPWJlSgY+DzA5zdJkvBBXgFiEyK3APt1OOe3gZbuFleISX4RlejldEhQPleNuQdTuetgviHnkV98hrtqW8r8A9UsSU4ymovGW2c5bjachn6PJsgnYXs+XyTRIu3WXmzuu8saJclUFdbJEeUaFQ+6ljCnq6vVyPR7ZLXlvASAuMqqbP0qv0NpXR/VMr2ryWMs+U3LIZfJzM2c0ye9ojs0mmSNRxEyLK9Mq2kalXSq9Ec2GloO4RV+kffo1+4dfoa5b1Ktwk0lVkSoSX4RVR1izTVIpPaCaT4zLZeaWa0vt1XL7bwJJTd3hrdTl9jSW8ZCxV5ZGyyD4S3c0y7eX4PjL1eiok4qOq6bu0mudNZfRUMtPQ5qaoZv5YmWo0byMzlZ7zU+kdlEs/1ZzkJOUqEu1R6RahS/UQoQ4CVTcQriPbPFQ3oYt0D6/Gw1yFd3gVPhGylGYsEVGpKuUdUaZQFQuvwNNYxB/CUlm4NZOLZXfUh82Xv6tj0bFr/NvyQtyNhXiai/GJKMUzvETvdqSLcJCpBH9v9AupWkdkJf2jqvmlsYxeiyxoc6+gzT5Pt5lfMzz6NGdKbraVqeaZ9j6zSeYVes2/wvNBOUqmRM3jZNojwt6HtpVZiVt4Nf3M1XgYS3kjspDRiRVM2nSdIbFVvBZVjpe5HC8ZWJTQCrylSzCX42PM493IKyw7lEvh3Rq+Aw5V3Gfy9iJeC8/knZW5jN9Qxpj15by5vEgJVWWS/e2DZBthT0JElqrWIf28W1QVvzaW8syiLLS5ckOTTLeZ+x8vU24nW8vsOOcKz8y/wgtBOfS3NzvVRzo28+Zmr0uz59Gjyo57eBX9TJX0Dyvhj5F5zNxUSOL5G2zJuMcXh28yZE053sYSPI3NIgX3sFJeNeYwcU0m21LKufagjqoGWJt6m6Frsnkr8jKf7CxgU+pNEi/fZsb2Ct5cUUI/Uxl9TfrFbCvradhlluIVWY57VAX/GlbCM4sy0WQOPvucg8x2mrnI1Jt5Ji4yNVIyU+k17wrPL7bSL7wUj4hSPGSpIrMdmeayZuxN2zZg9TdV4G4o5nVzLjM2FLD90jVK7zyk+F4Dm7NrmLi5Cp+wItwNpSo6pVIyGLiFFvOmKZtPtuSSnH+T7+oa1NfCi49e449RGQxdlU58ciUFtx9QfL+OzVnfMWXbVQZESV9ars6r+mpbv/4k9DILUscSFeEi1i2ynF8bium1UJ8WabPOKpl+IrP0MTJlauS9LAOX2alo09NUZPaad5nnv8ymn1n6Il2mp7m0SZo0d/u6pHuZdDxVWgXu5grcTGW4G/L5kzmb6evz2HbxKpV35AteKLlfT3zqHUatL8M7rACPsBK8ZHagoqMCt9B83om0sOxwKcW3arnf2Mipsod8sK2SV0wW3lmeyYoT5eTdeqC+Wi6oaWRD5n0mb7vGa8tK6GcoxM1UhIdZjluKd3iZQs7RGpl+6a2qBI/wYjwFswxsZfzaUEivv6WjzUl5ukzpM1emlOO1LB2XWZfQPrhMx9mX6PXRJZ7/wkI/kxy8BE8plKkZTxvephJ8TCX4GnVUkzWV4mYsxjMsj7fCM5m9PpvtKdVU3HnIw0aorKlnW9ZtZm4r4c1leXiFFeBlLMbbFhVSKW+DlZHRWWy9eJU7dY3cbITNmfcISKjAOyyfgYYspiRZ2XixmoK7D9T2glrYnH2fGTvKeWNpLm5hVtyM+XiZCvE1F+NrLsHHXIJ3K7zs5zUX4dlECf3NJfwqNJ9en6SqwUf78IytmZ9pX6ZM2penlOG5LA2XWSlo01LoNOsCz8y9wAufZ9LfWIiXuRgvUzHepmJ8bEuFsRhfYzEDjMUMNJbwirFErSs5oRbeMKfy4XoLOy5WUna7Vv0DQ2VtPTszbzFzWxF/Xp6DlzEHL1M+PqZCvM0SSYVKwGumLGZusHIy/7b6nr6gtoHw07d4a3kpHqEleIXk8XZEBjPWZ7IxpYycOw+4CxTXNrA9+w4zdxTzhygLboZs3MPy1PEHmEVqIT6KohZ4KYEyOxBkvZj+5mJ+GZJLz48vo81KRvvwNF1n2GS2N2kXmUtTyvBYlorLrAto0y7QadZ5npl7nhc+z2iSKfJ8bdhl+rSQWcZAYym+hkJ8gjN4y5jCjKR0tl6soPzuA/W8QkVNHTuzbjFrayFvRmXjaczBw5iHl1lk5uOtRBbQP9TKvy/NInR/IZar97nfCMlXHzB/XzUDwotxDy3FJ6yEV0Kzedt0ienrM1h/sZrcOw+V+LKH9Wyz3mLq9mJeW5pDn9A83MIK8DYV4CvnMhe0EdpSpj7l+sEyZZ4pMt2XXcFl1nm0aefpOCvZJjMTNyWzCB9TUQuZKlKbZEpEluNjKGFASA5vGy8xO+EyWy+UUXy7lvsi8mEjO7NvM3tbIX+KsiqR7uZ8PMMLlExvU76qRP+wfNxDMhmxxsK65Eoqv3vI9YcN7LDeZcJXZarJuoeVMMBUxkBDAa+GZvF2eBozNuaw8dI1iu8+4lug8EE96yx3eW97Ba9EFSuZHgb9ovmYWsmUVmEqxNNUiIepAE/BXKRk/iokj15K5jm0mafoMn0fw1afVreT9pfDp0aPWHqhFPeoy7jMTEabmkyHD8/Ra04yz3+WYZNZqE7oa9SletmQyBwQVsJAqVxoMT5LcngrLJ3ZiensOl9C2a37KlIKH8D23PvM3lXOW8tycDfk4C4FDi/EO7wAb7P0a/m4mwrpb8hjgBzjqxy+yb/FnboGcr59RMTpa/x1TTEeUmG5eCJTzmvIxzckmz9HZDJ9g5XNKdUU3tGFWmsaWG+5z9Rt1Wp+6xWSi3dYnt7cwx2aeZPMgmaZpiLcRGawTeaHNpkf7GXYqlOtZDp8nqlkRl7EZfpZtMn6dzA9Zp1rI9PHWIR3G5nFvGIo4tXgHP7DlMGcdVnsulBO1e0aahoh9349CZZ7TNl1lTdWFKuCqmOGF+HdJLNQRZx0KSL6rfA0wg7kk32zRkk5XlnLh7vKeW2pVLZIDXzStci5B4YV4WMowNeQwxumNKYmZbP+fDXWG7Xcamig6D7ssHzHR9sreGdZAQPD8vGVsjv2mW1kyrpdZg49519Em/kkmY7N/HwJ7hEpOH9wGu390zhPP0X3D8/S+1ObTDmZUSjCy1ikbvMEWfcOK2RgaB5/Cs1gZqKFnZequCpPIzQ2Un6/ng2Ztxm/tZyBy4vpZyrBzSSjpoygxar7kAslTcrDXExfQwGehmyGrUgl4WwxFQ/qkO8AN1nvEZAkUZmn8uoXtwBfYwEDjNJiCtWg5xaazevGNCbHZ7DpbCllt+7xqAGuPWhgb/Z3zN5WyZuRUuZiPGWgNElw6CKljiJSWoxEv97Mi/jlEis95qWgzTiDNuPk02VGnZfbsBScp51Ge+8kzh+cpPuHZ+j9abqKFrlSXk0y9YLY8ZABJzSHdyIyMO0vJPeGNGyoaWjkbPG3fLy3mAER2fwupJA+MoFXE2WZoMsUSiJVL7i7uZiXQ3LxMWbyXlIWX2dVc7O+gcLaBpYm3+Qvq/LoF2JV0eNlltFZkCgT9Eh6OayQF79M5w/BZ1m4/jLnLZXUPZKhDwrvNxB15jbvrpZPoorpH2oPiAIl0t5ftpb5QpPM0w4yW/eZbWRewHnaSQeZp+n9aRr9wvSwd5TpKNQttBCv0Bz+PTKT4P1FpFbXUFvfyNXaRo5Y7/DxjmLeiMymX2g+/WUSLzJlkm8ubZYpg4qpiJeCLbwekc6ifYVcqvqWW/UNpFTXsnB/OW9EWOi7JAsPY64avLyMubbBRAYvvY/rYyigT1AGfzSc55P1VziWVsHN+3Vqbpt5tx7zqdv8dXUFHqHF9A8pxFMCxVjQhIcNlW4qor/JQeb002jTT9Bl2l6GrXyCzKXJEhnJuEw9jjbpBK7TTtBz5kl6L7xC/9A8PGVaYRAKm/AKE4pUZMrk/BVjBuMTsolNruJiRS15dyClrI64c7eYtqGEP0bkqdHUQwTabwBskaFXJJ9+wWm8uyKV6HMVlEgTb2hkt/UOk9YXMCAsg75LMnEzWHEPy8YzLFePKjth+XiGZPOGMYPJcVnEnijjfOl98r5tJPVGPevSvmXK5kpelylQaBEeofo+7aML7Wcs5PmgbLp/JFPGU2hTj9Ntyh78Vpwiufgxo/my5EI8zGdxmXoUbdJROkw7Rq+ZJ3h+4WXcQnPxMuThE6rjbcMrTNBPLhXzMFh4PTyDMQk5mI5VcSivltSrkFxWT2LyHWZuLOGtcCteoVZ1iylXXpdQgKccx5DDgJCLTIq7wn7rdW6rWUAjK85d452VVjxDM+gXnKVPwg3ZeBjy8FQXtQDP0Fx8Qy382ZTBBwk5xJ6o5nRxLZdvwKGSR0Sdu82kTWW8EVGAZ3A+XiLSIGW31cMgtJZZQF9jAb2DLHT7KBltynG094/S/b1dBCw/xfmidkZzuZ1cnix9xGlcph5Cm3SIDtOO0GvGNzy/8BJuoTl4G3JVvyh4h+aoZi2V95LoUMjkO1cNAL5hmQyPyWHJwSr2ZutCz5c2kHT+DjPXF/J2eCZeIVl4qIsgIgvxkAsWksGfTef5bGs6lyvuqI/bLtyo45P95bxizsItVLDgbhCsNplypyUXIYO/yFwz0UrcyWrOFD0k9Tp8XVhH2ImbBMQXMsCYjdsSK54htoAwNJdd1cUu1CZVWkofUz6/CMqk21yZ5RxDm3iI7hN3ELj0ZPsy5YOOFUrmKVymHESbeJAOUw/Ra/pRev8thf6h2XiFWfE2ZOMdKpGly/QUDNYmPIw56s5FosfHkKGELj54lf05D0i/Jk2+noQz15mxLpc/mTPxDMnBQwaBsGLcQ+R/nS4xfNl5oo/kUHLrHncaYG/BPSZuKsQ9JJ1+IRY8wrLxCNNluhtyVRl8g9PVTcIHiVnEnqzkbPFD0m/AsdIGwk/eZlR8Ib4GC/2CsnBbkq1ahgqIJpk2oWFSpzwdQ566Be1jzOMXizPoNkdmOYfRJhyg24TtBEadeIpM0ylcJh9QO3SYcpAeHxym99/Of0+Z0odJRfUm6Bacia8hkyGr81h84Cpf5zwgUwl9RNLZ60zfUMgfw/PwDC7APaQQ9yWZ+C5JZnL8RfalVXC39hEV9+uJvXCdITE59FkiMuX4ObpQaeohWfgEp/G28SLTEtKJOVnOqZJa0m7CkeI6Ik7eYXRCKa/Ihx1BFtWfeodY8Am16PV4gkyJUo8WMk+hvX8QbcJ+uo3fSsDjZT5kRbL0ESdxef9rtPFfK6ndpx3iF5+cp79EjUGuZjsyQ6Uvy8bTYGmBR2g27sFS8CyGR+cQcrCaA9b7ZF5r4EJJHQnJd5i6sYw3I/LxCM7FIyidfws9x+c7MkmtuKM+EMm8WsuX++WTeQsvL8lSUa/LlItnwSckjbfNl5kWn0H0iTKOF9Vw6UYjB4oeYT5xk9HxJQw05uMWnIdHiHRRFnxDM1WZVF0M0n3ZkXFBIj0Xr9BcvENzVXT2Dcuj95fpdJ8ts5wD6j/huo3bgn/Ucc4XOX7VaxuARObyc/l4hB3H+b19aOP24fTefrpNPcjPP9Yj0zvMis9jI9MuUZfqFZqFlwgNyaZ/UBbeIRn4KaEVHMmtwXINLpTXE518l4lflfFaRB7eQWkMMl8g9psCKu8/Up9PfpP3LVPWFeAdaqFviDTrHDzDZJmNZ2gWb5rTmZyQTcyJKhWRKdcbOVD8iLAT1xkZV8gAg0R0Pn1D5EZAlynHsuNjsOJrR40HIlIfE/RuII9+hjxe+CKNnrNklrMfbdweuo79Cr/IY1wotP9HRyuZy87m4274BudJ8j+Te9Em7aPrFJtMkfgDZXqL0FBdaL+gTHxC0vGLzsZwqJLD1hrSr8PB4no+O3adt1fm8WpwKpNWX+HAlUru1Tdyqw7WX7jJsBW5uAVl4yZRowY8K+7SEkIyeWephS92l3Eo7wGpt2Bf0SMMx68RsFZG9iz6LLbSNyQfNzVQScuSskmfKfWw4GvIZoAdGTiVRMln71Pz6G/I5Zefp9Fr5jdoE/ahjd1F1zEb8Ys4+j1kTtyDNmYP2qS9dJ1ygJ9/nKyauTSFFiP5E5q5SLRffVl3C7bQP0j60DRGxFoJO1jNHusDtuY84m+HrvLnZVm8ZbjEwq8spBbdorahkdybdSrfWyYr/RdLf6yLbJIZnMU7kVYW7ahgh+UB+4vqMZ26xai4fAaGpOO2OJN+wVb6h8ogJ+XVBbaITNXsHdEl6uhNvl9oDs9/lkrPGcfQ5J9zx+yk6+gN+IUfaSWz6ZN2XaZH6DGcJ+xGG70bbeIeuk7+mp8vOIdbiAw+MjWSvqS1TJtQW1TKUi+4jsgU2dJ/ui3J4DVjBiNicvl4VxUL9l9lREIBr4SmMCQyhdXHiqm4U8u9ugZO5H/HrK9KeDVElylTF2kdXmrwseIlk3ODhbHR+SzaW8WiA9cYnVjM60YL/b/IwC0oS80Q9CjW87eRKYORDV2uo0y9bn3tMqcfU01cG72TrqPW42c+/CSZ0kkfxVn+fXrUDrQJu+j2/n5+Md8uUybsj5PpKFSX2R6eUomQTF4Ny+StSCtvRuXga0jH44tzjIm+zPbUa9xuhOoHDay7cJXA6Bx8gmUk1ispfZyXOoc+8fddksUfgjP598hs3l6aq77JFHEeS7LxCJYuRu9m7DK9Qiwt8A5uRk/TuzBdprQ4XeYLn6XSy0Fml/Zl6k+I6c08F/eQwziP2442YivO43fQ/f299F5wFjfVzPVJ++NkekglZOrSDjIlUUiUhmQp1OAUbKHfknQ8gy4wIT6D7ZablNdD2q06Qg6U8VZ4Fl7BVtyD7SOsXkkRqVBzUwtewRY8gyX6rXgEy6RcEHmCVW1TchWyruOp9rMj73Xx9vK6h0ifa+WFT6+oObc2TlrtdjqPSmKY+RDJTTLVb3S0lnkI53Fb0QK/Uku5bXp+wRnVVL6XTFUhKUQ7SAVUk9ebvZtM7kVoSBZeIakMX53JkiOlbLbcJvbiDd5bl6v6PnVBmqYrOXirKGsWKud1X6Lf2biHSGTahdjyKZl2kS1lNqdZ8FySjecSPZLtSItsK3MbnUclMtR8sH2Z10XmmRzcgw/gPHYzmjw6MnYz3SbtoPf8k7hJv/LYAai5mUsBHitTZKuBSr8BUHdMNmSa87o5k0Grshi3PpexSbnq+x+ZUsk+HrY5oI/DBbWjyhLiQFPkNjdXidCm1vEYvIJ19AFVyioDXU6zzA+Ooo21y0xgqPkA5wodHxCw9Zk3ah6y/LT0NV/jMkaeydmENnozXcZv5bnZR+m7OE0VUFXE8Yo7IpUOtqiBpj1Uc2+SKVMtXaoMLDJ3lLsnT0Om+ixzoDEL3zDbXDVMn6jL3YlcUPt80I53iD7y6lHbEh8b3tL0g62qy3BE0tpgCw65eHIR+wRn0/uTFHpMOYQ2ehfaqG10GpnIENNBzhZet/8iVEuZK0Rm0Ne4jNYfbtLGbKbj2M3885S9vDD/NL//7BJ9vkjl5c+vNPGSA/r7y4/l5S+uqP0Vi68o+ipSeXlxGi8uTuO3X6Tym89S+d1nqbwk5wrSt72s8qSqvP2+SKPfF+lN9P0irRWS5pieTp/P0+jzuZT98bxko4/kl/0XZ/Dy4gz+ddElfvThcTpP2IM2Uh9POo1IZLDpEKcLr9sMqp/i0VflCbUVpyx4LN6P8+jNaAGb0eSBqjFb6DxuG/9j8j5+NPMIP511/LE8N/s4z835fvxs7jcOHOe5uSf46dyTPDvnFM/OOa2Q95KuI3lkv+P8fE5LfvZ9mP0Nz80+9kR+qviG5+acUPxs7knF/5lxlO6T9uAyZhvayG1ogZvVzwK9azzIqcIbbf8JQT3udyoLjy/34jRKInOr/iTa6K04jdqC65jtdBy3g87jdz2WLhN2P52Ju+gycWdbmrbvdWCPLV2OLXns+XfQZeL2H8aEbU+ls0LySxl1uk7cTadxO3AevVW5kCYug7P8ntPgsP0qMtt8b37nwUPWpeTxh9D9+vPZ8vtD0m/6ySPB8ox1EtrQRP1BUYX+8znNJOjbn4g8ZBqvP5TaAvk5Htm/9THsabLd9vy5yi8PwMoDrD8AeRj2eyHHblU2hTwuvl79pJA2JI4e/qsYE7GPS6Ut5pm619q6eo4XXOW9+NP8ZHISzvJbRSPj6TAyjk4j19JpxBo6BdqJVb/G1QZJb8rTHrI9hk6B0a2IpXPgmicg22MUav8R0XQasfqHEbjq6QQIUh7beeScI2IVnUaspfNI+QmhNXT1j+bFqWv5fP0JCq7LP+O0kNlIfWMjZd89YMvFEmbEn2aQ6QB/Dfuad437GWTax2DjPgaHOWBoh7B9DHkqexkStqcVrfM8BePeH8zgMGHPkzHsVbQ8137FYOPXDA47yDvB+/AL28en605xNLWIuzX6z2eIxSaZ8lK/Unj3IUeyKkk6mU3M4Qxij2QQezSd2CPprHHkcDu0ztMuae3QOs9/Aq3L+iRa7JthI5M1h7OIPpDOumNZnLVWceO7h/bneJXB/wt6iUm4NwSYKAAAAABJRU5ErkJggg==;fontStyle=1" parent="1" vertex="1">
          <mxGeometry x="24" y="-950" width="83" height="69" as="geometry" />
        </mxCell>
        <mxCell id="NeXbTHolgeKM8Cqgu51a-4" value="" style="edgeStyle=orthogonalEdgeStyle;rounded=0;orthogonalLoop=1;jettySize=auto;html=1;" parent="1" source="NeXbTHolgeKM8Cqgu51a-1" target="NeXbTHolgeKM8Cqgu51a-3" edge="1">
          <mxGeometry relative="1" as="geometry" />
        </mxCell>
        <mxCell id="NeXbTHolgeKM8Cqgu51a-6" value="2.&amp;nbsp;&lt;div&gt;Calls Azure Function &lt;br&gt;With POSTED Number&lt;/div&gt;" style="edgeLabel;html=1;align=center;verticalAlign=middle;resizable=0;points=[];" parent="NeXbTHolgeKM8Cqgu51a-4" vertex="1" connectable="0">
          <mxGeometry x="-0.1562" y="1" relative="1" as="geometry">
            <mxPoint y="1" as="offset" />
          </mxGeometry>
        </mxCell>
        <mxCell id="NeXbTHolgeKM8Cqgu51a-1" value="Azure API App&#xa;(.NET Core 9 BackEnd)" style="shape=image;verticalLabelPosition=bottom;labelBackgroundColor=default;verticalAlign=top;aspect=fixed;imageAspect=0;image=data:image/png,iVBORw0KGgoAAAANSUhEUgAAAFYAAABdCAYAAAA/kZE0AAAAAXNSR0IArs4c6QAAAARnQU1BAACxjwv8YQUAAAAJcEhZcwAAFxEAABcRAcom8z8AADguSURBVHhe7b0HfFzVtbfNDcUVTLHBYMAFG0xLQgskQAjJJSG5EEKzKcapQEil2bJsq1rVkruxLVnFveHee5WtXkfTe+9NI426nu+3z0hu9Lxxbr73zdLvrz2aOTNz5pl1dl1r6zL+Y5fELrv4jv/YP8f+A/YS2X/AXiL7D9hLZP8Be4ns/yKwPb3697B/Edi+D30pP/ylfO1vbv8CsOLDdl+kzwNwMfyvUE+vvuYr/KvtEoMVH0mA7LpIF8PtO+588F+F43OO6YUd+/mcV7qY9le9xf+B/UvB9tBF99my+ws+V+xe8axOoB1o6xbqkdTe3UNHT+wxccxn7bOvGsP8OVA/e+g/zS4Z2D6kMfWcVQxrD52SYshF2QG0AP7uHuydXehaO5E1tVPlb6fc1UapvZUyWysVjlZqvG3IQu2omzswt3Xj74SocNaz73zRmfRcfDVcerukYPug9en8SkGAbAOC7d3og62U25rYow2yRuZlUaWDtFMW4o+a+HC/ib/tMvHXHQb+tk3PBzuMTNlnYvphM6knrMwrc7G6zs9edZhyWzO6YCu+tm7ptS+0/1+C7b2upDqu9+ZFYPuAiku7pbuHUEc3rmgXdc4oa2vcxO/S8doqOc/kNfLIgjrunl3JmIxyRs6q4PbUCm5PKef25HJGpVQwZlYlYzOquDu7hkfmNfDMUhWvr9Lx/k4juafsbJT5OWlpRhVow9/eRee/huUF9k8E2w09XdAtyhjdPg8V3hkFQl09uFo6MQZaUbmaqbY0s7kuwIfbjDyWW82N00sZNL2GfvF1XDG1msunVnLllCqu6pW4LWlqNVdNrabftBoGTq9jyMx6bkqq5470Or43t57n8hW8s1FLxlEzmxU+GnxtBMS3+3l2cZ37T/oS/klge5uannboboce8SliZyhuOTt6KHdE2Cl3saXWzl6Zm2PKAPsbgxSUB3lvu5N7sxu4/P0yLvuwnsumKrh8moKrpjUyIF7GwHg5A2fI6T9DTr8Zcq4Smh4rr5gu5/JpjXwrTsblU+roH1fLkBl13JZSx0NzG3hxlYr4gxbWNPiocrbgiXZL53SB/XuC7bvoO6CnLSbp1HuI9vSgiXSxXdvM9L1mXi+s49dF1WTu0/NpjZ/tshCrG1pIL2vll6tt3J7SwOBpDQycruDqmSqGJCi5NkHBdYlKrktUcU2SisFJKgadp8GJQkoGJaoYmKhhQKKGfgkarpquon+8jCEzahidUc1P8uR8sMvE2gY/9b5WQp1ddPX1g/+dwF54Dudf9DGo4rIvd7Sw4LSbSeuMfCdbwa0JNYxPKefXq9UsOxNgqyzMFkWUQlkHUw4F+fFSNSMTa7guvo4bEpXckKRkmFCykqFJKq5PVnFtipIhklRSea24T7pf/K3l6hQtA5O0XDlDzWVxci77qI7LPq5i0IwaxmbU8tzyBhL3q9ivduKItF7QZfsncv3HwPb56LmTOvd1t9ODKdLBDnWYqXutPLVIyYhEGQOmKrlqqpJrp9XxwwUKZu5xsLY6yC5lhE/lzSypauJP2yw8mlPL8BmV3DBTxtAkJTelqLkpWcWNSSqGJqu4LuV8KblO3CfAJsa8+9qZjVwzQ8agGfX0n17PVdMb6De9nkHTa7lhRiXjUs/w7CdlJO9p5KjahSvSdkHj9r8Gtg9qX0vfdyaiCPdAXaCDpZU+Xl+j4+4sGdfNaKD/NDn94nX0j9cwOE7GuJQ6Xi9Us/CEix2NIbbLA2yUhZl9ysuElRruzqjjxpkNDE1UMTxFx/AULTelaBmWouWGFB3XS6VGAi0pScnQRDnDEhq4ObGOW5NquT25hpGz6rgjs5F7chU8PE/OU4vlPJsnZ0JxIx98KqfgpJ5Sgw93S7vUW+nrjF0I9x9D/Q+BlS78i4bqwR446e4g9YSXp5fpGJ7cyOVTZVIj1G+GikEJWgYnaLhmupIb42t4fHYtcdtMrKvysVPmY7c8wOraADMPeXg238DoVAXDElXclKTj5lQ9N6cauDHVwLBUI8NS9AxLUnFjgpybEhsZkSRjZIqMuzMbeXS+kmeWafhVoZ6Jqyy8tcHJO9vcfLDbxfT9ThIOukg66CLtkI1PjpvYXGWh0uTH3tx2dpDRp9igRvzuGyR/ffvGYPvs/Hrf19nNUUeUuKNuHl6kY9B0Bf8Vp+JbMzT0T9QwOFHNNb26NlHN9dPrGZ9Sw8TlSnIPO9lSG2C/zM+O+gCFlRHe3+nnh4tMjE5Vc3OSmltn6SRJgFN03JqiZkyqgnsyFDw0R80TizT8NE/HK6tN/HGbk/gDPjKOhphzspmFpVGWVEQpqIpQXB1mRVWQoqoQRZUBisqcrDptYkeNhQqzH2tTG61dMYSxK1OMDgXaGNxvYt8c7PlfqfDU7h6OOyLEHTLz3QWNDJwp57J4Lf81XctVCRoGCaBJaq5N0nBtsobrk7UMS1QyMqmBx2Y38N56I8tPB9lTF+RAnZ/ttU0sLonyzqd+fjBPz9hZcsamKxiTJueONAV3pSv5braCpxaqeKnIyB82u/hgn5+ZR4NknQ6zuCJCYXWEVTXNrKlpYW1thHW1YdbVhFhfHZCukLVVPtZUeVlV4WZVqZ21ZVZ21jkpMwSxhdqluYkY2FhzLMpvhvUbg71wuq61B+qDHWSdsvH44loGT6/gMtGfnKmVujyiCzQkUTQuGm5I1jE0VcdNqTpuSdVwW7KCsckN/HSRiuk7XawpD3OgPsyBujBbatvIORHlrTU2Hstt4L60Cr6TUcmT82U8v1zH5HUW/rbDRfKRAHPKmlla20qRrJU18hY2yprZLAuzuT7Mprog62v9rKsRCrCu2s/6ar9Urq3xs6YmyOqaECsr/ayu8LG1PkCZsQV7uIv2nrO980sNNlbrxCY0YhMottYeNqua+e1GHXekVTIgvoor4hsYmKBk8EyF1ErfkKSSGp2bxGU8S8+ts/SMnKVjZIqGkUlKvp2p5OUCA+kH/Xxa28L++ib2yVpYUx1l1kEvb65U8POF5by4rJp3N2pJOOBkzukwS6paKKyLsrKhhTWyZtbJImyQhdlUH2RLXUAa0Qmw6+rCrKmLsKo2woqaCEXVTeRXhVlaEWJRWRNzSyNknwqTfixI1jE/i0762FYXQOlpJdItJowuuEC/tn0DsH191VhtE2zvodzZzoLSIBNWGRmXXsfV06rpH1/PNaJTP1PO0EQFNyWruXmWjltmGbh1loGRaQZGpxkYM8vAqFlG7pil4Xu5Kn633sqiU2G210U4JA+zqyEkdcfmHLOSuEtN2gEDi0tcrKgOsLYhwrqGZtY3NLOhoUnqUWxqCLGpIcin9UIhPq2PsKG+hdX1bRTWdrKkqoM5Za2knYww47CfD/d5eG+nh99s9TBhvYMXVll5vtjMc3kafrtKyZISKzJvM20XTaZ/XfsGYHs9VsxKdXYjd0fZ0ii+aT+T1tl4IEfB9fHVDI6v5/oEJcMSlNyUpObmFC23pum5Nc3A7RJUI3ekGRmbbuaODBuj082Mz9Dw48UaPthqpajUzwF5gOMqPyf1YQ5pQuyU+9kmC7BdFmRbfYCt9UE21wbZVBtkc12QLQ1htsma2NrYzEbh7fVRCqujLDwTJfN4lJkHo7y/J8LvtwaYsN7J/xSb+HG+nseWGPjOAgPjcrWMylJxW7qSmxLrGZ1SyfP5NRRUWLC2iI7YN7evB/bslxbzVkeojb2NXpaUuJl11M87W1z8YIGGm2bUck28jKGJGoYnabglRcuIVB23CajpRkalGxmTbmJsuolxGRbGZdq5I9PGXRl6Hs6W82ahkvlHbBxQ+Km2hGl0tiB3t1LraOW0oYVD8hC7an3sEMPh2iDb6sJsrY+wpT7KxrpWVlW3sayilZySZmYcCPHeVh+vr3bxfIGTHy+189gCE/fnahmXoWBUmpxbZqkYmqpmSLKSqxMVDJyp4Kp40eeuYUTSad5aW8dujY9gh9RjvxjGl9pFYC9q8s+7t6/0t3ZRZgpTWGIn66CN1CNe/r7bx0/zjNyeJOP6GXKGJ+sYkaLlNgF1lvBUEyPTzJJ33iGAZli4M9PC+Cwr4zNNfDtdw+PZjfymUMnCI1aOaUIo3K1ofe3ofB1ovJ00ODo4o2vmQEOAXTV+dtQ1sa2hlY0NnRRXdTD/VJSUfWHe3+bl1+scvFBo4cefGPneXAPfnm3k7iwj4zL0jErTMiJZzfAkNUOTNVLDenWShqsTVAycoaTfdCXfipdx5ZQy7s0uJW6PmkpnJDYYkix21X6W0oX2tcGKlwt2d1Nmb6KozEHOQQsZB6ykH3ETfzDISyvt3Jmm4MYEhXT535aqZWSalpGisZK81cToDBNjs8zcmWVmfJaB+zK1PJyl4r/nqphcZCRpl4MVZzwc1YSpd7Shcnei8XSidXegdnfQYGulRBdhryzMxupmCstbmXOyjel7m3l3k5+JhQ5+vsTMk/MMPJyj5f5sDeMzdYzLMDA2w8gdmeKKMUr1vGhEb5ml56ZZeoal6hiapOH6BBXXJKjoP0PJFXH1XDOtjCcXVJJX4cDVJnq1fZPlomd7MaUL7WuBFRbq7qHK38LiMgsfb1ORuMfE7MMOso64SDkaZvIGD9+dreGWZKVUBYxM1TI6TcuoNB2jMwyMyTRyR5aJcdkmxmfq+XaWkseyG3l+kZL31pqZfTjIyqoWttQ1sa8xyCltEzXWNlSuTnTudgyeVjQeUS20cUAVpeBMhKTdQf6wzsOv8u08s8jMk/NNPDbXzCO5Zh7IMXG/8NTZRsZnm7hTvHeWuGJMjE4XV5HooYhGVfRWYsPmYUlqrktQMmim8FwFl39UzYiEMt7dpOKEOUS069xi0lcNGb4E7IWA9dEOChoc/HpDHa8W1BC308icYy5yjrjIONbEu9uCPLHIwug0PSOSDYxKMUot/5g0PXdkGBmbbWZcloW7sozcm67i+9kyXl6q5OPNVhYeD7Khro0dig52yaPsqg+zvzFEibYZmb0dvacDs68Vva+NelcHBzUdfHK8iT+vcfCLhUYezzXwWI6B780x8chcG4/MsfHQHCvfzbVwX66Ze3PM3D3bzF3ZFgmu+JJHZcTgjkgzcEuaGDLruClZyw1JYoSoYuBMNd+aImPglCq+P7eaBSeN2JrFdH2sd/vlWL8GWPFbjD5Oulv44w4VD+eW8MyiCj7eYWDecRc5R11kHo/w973N/KLIy92ZJm6bqWVMgp5xSXrGpWoZN0vHuHQDd6bpuTdNw2NZCl5epiZ+m53lpU1sbmhjl6KNXY2t7GyMslMWZbesmUOKCGf0LVIVoHa1onS2UWVp45Cmk8LTLUz91M3LS838cJ6B788x8f15Vh6bb+fReXYemWfjoXlWvjPXwv1zLNyba+XuHBt35VilL3lMlolRmUZuSzdyi4ArPDdVx7AUMUJUcXWimn7T1fSPk3HzjFJ+u6aOUyY/HV1983rfCOxnTbyErwfWqkL8eFktN888zpPzK/lwu555xx3kHhdgw8QfbmXypjBPzjNyf6KCh5LVfD9Dy/ezNXwvS8nDGQoeSZPzRKbwVDVx213kl0bYJmtlt7yF3fJmdjW2sKMx5rk75B1sa2hja12E3Q1BTqjDlOlaOK1t5ai6g+0NHeSdauajrV5+lW/lh/PNPDbPzGMLbDy2wMGjC+w8ssDGA/NtfGeejfvn2rl3jp27c23cOdsSg5ttYmSmiVvTjVKXcMQsMZDRcEOKmiFJGgYl6Og/XcmAj8t5ck4Z+aeNOEJiLfmr7QvB9n0fohcnb+ok9YSTuzLKGfDhUR7JrZJWTOcet5F7zEb2MTfpx8IkHAjzl0123l5p4G/rrUzd4mDqdjsfbrHwl3V63luh4q+rVCTvsJB3Oix56h55lD2NYXbLQuxubGaPsoNdmh42ySG/vIPsA34ydlpZetjGtsoAhxWtHFd3cFTdzh55O8tLW/lwZ5AXCu08scDIo/PMEtRHFzr43gI7D82388A8B9+Z5+Dbc+3cl2vj7hwLd802MzbbGPNcqVoQEz0abk7VSF57XZKGaxK1UpVw5ZQaxiWf4f0NdVSavBeR+nz7SrCRHthnbOKtjTqGJ5Rx5d+Pc19mFW9v1JF9xMzC40aWlVhYWellU0MTWxpCbG8MclDbxAlTC6dMLRzTN3FA7mdnrYtt1S621/rZJWtid0OEXQ0xqHsbw+xTRNmt6majvIdPKrqYua+Vd9d4+d1yI++v1jF3n4NNVc0cVHZwQtPGcXUrexUd5FW08dEuPy8WWXlqoZnH5lt5TMAVXjvfwUPznDw4z8kDc+18J9fKfTlmxs82cWe2kbFZJqnOHZkuGrMY2BtTNFyfpGZIoprBM1UMmCaqgzKeX1jClhoTrV9jNPaFYPvM093Dsio3TyyWMSS+kis/KOXO1CpeL1aSvl/HytN69jXaqLKG0AXbsTV34GptI9DeRriznUhHO5G2dkLRVnzNLdiCLSjdzVSYmjiqCLKvPsDehjD7hLcqOtjY0M38kjam7GziN6tDvJof4JVlbt7Mt/C3tWZyD/rYVNPKEXU7p9RRTqqj7FG2U1gZZdruABOK7Dy9yMzj8y38YIGNRxc4eHiek4fnOnlojoMH5tj4do6Fe2abGS8a1GwLY7LMjMwQ1YGYmtRKYMUcx3WJCml4PnhGI9fGlfJg6hHmHlbhiH71aOxLwYr6VdfSyYyDJu5Iq2LgtFoGTKlm5Ixy/mdBNRm71RyWOzB4ghK4jp6+mUvRLRFvfrE66OrpINTWjjkQpcHcRIkyzIGGZnY0tLG6up2cY828v9XPpGIPL+d5eSkvyMv5Qm7eKLDyt/V25hwKsbm6laOKVk5rminRNHNI1crKyigJewNMWmnjp4uNse7XfBuPznfxvXluCe6Dcx18J9fOPbNt3Jltk0Z+IzOt3JZhZkS6keG9/VrROxBgr02Qc02CnEFTyhg17RDvb6yjxhGms/vLvfZCsBf2sGgFylxRfv+plhsSKugfV8fgqdWMiS/hpQVlLD+mR+eO0NbRBl0d9HR30d3dTVd3Jz3d7fR0ifvbL1BXdxsd3R00d3TgCbWjtLZxVN7K6rIo6ftD/GmDmzeK7EzIdzAh382E5T5eLfDzSqEoXUwutPP+OhdzD4T4tCrKEUULp9VNnFZHOKRsZU11C6n7/fxurYXnlhl5aqGVH8x38eh8Dw/Pd/GgqA5yrNybLUZ+ZsZliu6XSRrEiK7XjbMMDE01SNOc1yeKfm3Ma/tPqWTYx0eZuKyC3Q1OIm2fWUS/wL4UbKCzm+3aIM+tUDBwWgX94uq4dkoFDyWfZOq6OkqUblpaxbJ3B3S10dPVSVdXF51d3XR1dvSqk+6uPnXQ1dVGd3c73T0ddHZ24Q51cUrdxvxDAd5d7eDVfBsv5dmYmG/n9eVO3ihw8Xqhh9eKvEws8PB6vpPJ+Xb+vtZN9v4wGypbOKqMUqqOcEbTwiF1lA21zeQcD/DXzS5ezLPxo/l2fjDfyffmiz6ukYdma3hotopHctQ8MkfDQ3O03JutZvQsBcNTVNyQIsAauSFRx3UJsX5tv6l1DPmwhKezT5N/TIe7SbjdF9uXgrVGO1hW6+LxpTKumFJBv6nV3BJ3mhfnl7Kh1Iw31ArdIvqlHTpa6RYguzp7wXZK4Do7u+kSf0vqko7p6ew4G9jR0tFDjbWdOfs9TMo389IyO6/mC6BOJhU4eKvQyaQiF28WeSS9IeDmOXkr38Wf13jJ3BtkXXmEw/IoZ7RiyBvlqDbKVnkrn5xu5uNtASbmO/jpfBM/mqPh2YUKJixX8Ie1Gt7fbOTj7VY+3GHjDxtNPJ+v5MEcGbemKLghQUA1MESs1SVppeCRQR9X8t3kEtK2y9H7ms8n9xn70jpWE2oj/ZSN++c3cNlHFfT7uIL7ks4wZX0DteYgPaJ1FMO8zjZ6Otvo7myXvLRTgtoH9py6OrvokSSeE6saxOBQH+qi+LSfP66y8tpyOxOWu3mzwC1BnVzoYnKRm7eKvUwSEoALPLyR72FygZv3VjlJ2+1lTVmUQ8pOSrTtnNK2cFTbyg5lOwXlrSTs9PFOgYHfLGtkygYFi44b2CZzcVwf4oy5mRJLC3vUIZadtvOXTSqemi9jVLKc62dquDpRx4AkPVfMEIOFesbMOM376+ppsDf1UrrIG3vtS8HKvFHiDpgYkyPAVjLw4zJ+PLeapcdM2ENieNcDHR10t7fR2RFTR0c7HR0dX6iudqF2ujta6WyP0tXTiau1i93yMDO3O/h1kY2Jy128WejhrSK3BHVycS/YohjYtwq9TCrwMmm5l7eWO3lvtZPUXSFWnWnjYGMHJZq2s567RxllTXmQpYccFBy2srvWSZ3Vjz0cItjSRCQaJRxtw9XchsrTzF6ll5T9Fp5ZKOIhRMOlpn+inisSdFwZ38iwaaeYXFhJqcHfS+ncbNf59qVgq5zN/Hm7nlsyZFz2URXXTDnDhIJGtjV48TW30dPdQVdrK23RVlpbhaK95RerPSoUpa21mbZohPbOWETgaXMLcw97eHuljQn5Tt7shfgZsAK4JC+Ti3xMKvQxqUA8z0vS9iCFJ5vZWRvlsCrKUXWEY5oAx1Q+StQBZJYIdn8rTS0ttLWGaY8G6GwO0dbcRGs0SktbO95oB2fMEVL22nhinpLhCXIGzNBwZYLwWgVXx53kxaWlHFG5e0OUvg7Yi7y6xBbh1xu0DJ3VyGUfVnN9XAm/XdvIIV2QQHMbnW2ttDZHaI5EiESaiUjll0sc2xxpojkSltTaFiXQ1kG1s42lp4L8cbWLiXlu3iyOdbneKnbxVrFbqgbeFCryxLxWSLrPz2sFft4o8PKHFR6mfepl3kE/66ua2Kto4pjaQ4XeidbpxxOMEGmK0hJpJtoUojUcoD0UoDUUJNoUpiUSob01iifcyiF1E3/bbOXetEauFpPfM3US2AFTSvj54lJ2y120ivalF1jfhGIfvi8EK55y2NTEhNViMjgGdljcSd7dIOOYMYAvEpWgRsIhwqEQoVCYkFReqGAweIFCkgKEQn7ptoDta26nztVBQWkzf1rjY2KejzeLAxeAfXOFlzeKPbxR5ObNIjeThHrBvl4UYGKBn4nLPUwudPLXNTbSdzspOuNlT4ObGqMLm0e8X4hwIEzQHyLkCxL2BYj4/DT5/IR9fkI+P9Ggn+amCAZ/O8tKAzyzWM2wmSLKUcPl0+X0+6iEn8w/w6Z6B00d56IqBa/zV3O/EKzozu81hPnVChFkIeOyD6u4Me4Ef9xQz3GDF09TEy1NQcIhP8FAgEAgSFAoGCTQp0AAv9+Pz3exvPj9HgI+nwTfHYpS6xBgW/jTWj8T8v28WRyUwJ0P9vViD68XiX5uTJIHF/t4Q3htkZ+JRX4mLPfwRp6Vt4vMJG63svqMgyq9B7s7gN/rx+f243EF8LoC+Fx+/C4ffpeHgMuN3+Ui6HIS8vtxhNrZpmhh0hozo2ap6Bev4lvTGrnqg1P8MLeENdU2Au1i3i8G7OJl8i+sY0Uvbbc+xAvFSq5LEI1XNTdNO8Ef1zVwTOvGLbxNQPV78Pu8+Hy+z5EXr9eLx3O+PHg8brweFz6PW4Jv9zdTYW5l2akm/rjGx4TlAmzoQrACanEMruS5xR4JqvBYoTeKhOf6mVDgZ0Kel1eWOHin2MyC/RZKFC5sAqTbh9Phwenw4rJ7cds9eOxuvHYXXrsDj8OO12HD6/ZgD7axT9PKe1ts3JWpov80EbMbA/tkzilWVVnwtwv3+zoee54JsHv0QX5VpOgFW8sNcad5a4WMXQ1ubG4/Yb8bn8eO2+3A5XbF5HLhdvfJicvlxOl09MqJ66zseJx2/F4vFncTJzUR5h3y8/bK2GjrnMeKhssTu+yLYhA/T28UBSSwEwuDTFge5oVP/LyRZyN9u5kjdQ7Mdh8ulwer1YnN5sJudeG0OnFZHbitdlxWG06bFafVgtPpwuJvZZ+6hb9utXBPZqM0LxsDW8JTksdaCUhgY43X54A97/o/r+ES4cP7DEFeLpZzvQS2nmumVvCzxY0sPW5HafYT9LhwOczY7GasDitWhw2b3YZDkhW73SI9ZrOZemXBYbPisNmwS6UFt8uN1tbErpoQKdvd/LbIyYTlXt5YEZA8UkCdvEIA9vNWUVDSJAm6kKiHxXECapCJhQEmFAR4NT/MC0tCUiOYuNnK7go7GrMbq92J0WzBYrFhNduxm204LFZJdosFm8WM1WzCandg8LawR9XEXzcbuD+jlgFT67h8agP9PyjhJ3NPs7HWRrhDgI0tM35O43Ue2PNMPOWQJczra0Twbz2XfSSj/9Ra7s+s5+PNBk4p/XicHhwWIxaLHqPFiNFqxmQ1YxEnaDFhsRgwW3SYLdreUh87cbMJi9mE2WrG7PBSa2hmxYkAH6yNjbQmFopL3s8bxT4mSXD9TF4RZHJxuFehs5pUFOSNoiCvCU8t8PPqcj8v5wX55dIQryzz8OEaM2tPWKnTudBZrGgNegxGEyajBbPRjMVkOiuT0YjRqEdvsaJ0htmhCPLBFh2PZNdyXXyN9PkHvX+SZ+eWsL3eTosYQUrrK5+NSPxSsMccEX6zWcvwWfVcNkXGFXEybpxZzXNLZBSXOFEbfdhNFqwmA3qTAa3Fgs5iwWCyYDSZMJoMGMw6DGYtBpMOg1GHQa/DqNdgNOqkDyAziWnDZjJ3+fhdoZ3XC9xMLPLxWrFPqlNjXhtg8ooQk1eEJf26OCQpBjbE60UhqQp4NV9A9fJino/nlvp5YYmb3+YbmL/HwCmFHZXJiMagRqvXotfp0ev10vnEzkkrnZdBr0FjNFFj9rKlwSstmv6qQMO3c1TcmlTP8I+O8NK84xyQ2enoFk3W+WFzXwOsOPy0J8qf9pi4PUsmBbt9K17OgGnV3JdeyQeb1OytdqDVOzCbLWiMZlQmqySt0YLOYEJnMKI1GtAa9WgNOjQ6LRqtCq1GgVanRmG0cUwRYNnxIH9f7+G1fBevLvcxQWrhvbwmhq8C7IoAb60InVNxr4qCvFkY4rXCkFQFvJLv48U8N7/Mc/GLZR5+8YmTlxbriN+oYmu5nlqtFrVeiUqnRK1RoVGr0KqVknQaBXohrYpGnYGTKjsbapzMOe7goz0uJq538tQnGh5OOca7eSc5o3ZKqYDnwF5YGXwhWHFobbCVGcft3DW3kcviGrhsuoIrpzdw48wKnp5bQeYuFScb7CgMdhQ6C3KdBYXOjFprRK0xoNHoUWt1qLVaVFoNSrUahUaJUqNArlVTqbazqdxN4lYnk4ucvJzn45XlQV4tDDBRmtESvQEfk1YEmLQi1Ktgb8MmqoAAr/XWq68U+HlpuY8X8j08t8zJs8vcPPOJk2cXGvntcgW5O2Xsr1ZSq1HToFHSqJIjV8hQyHulkKFUypEpVZyWG9hea6W4zM7iUw6yjnuZdjDAu1vFkLuO7B11yK1iSCtAfm2wsdvit6G5nUWVLh79RKT71Epgr0pQcvX0asYmlfD7FXWsK7VxRuWkRmWlXmmkUWVAqdajVuvQSNKi1qhRqpXIVQoaVEpq1VoqlCaOyFysOOUmYYuT3xW5mJDv4+XlQV4RDVAvWFEdiH7qGwJkcUgqXxeNVbFYLRDH+Xm5wM+LBT5eWO7luXw3P1/m4qfL3PxkiYufLLbz/CIN7xQ2kLurkc1lao7UqzkjU1EhU1LVoKKyQcOZeg3HatRsLVWSd1TJ7AMaMg+ZyDnmJOekn4zjIVIO+0nda2J9mRmLX8xuCUpfCPZ8E3eeezDQ1sk2hY//Wd5Iv2lV/Fd8owR28PQaRiWW8VqhgqWn3OyXuTnVaKW80UC13ECd0kCDqk96ZCotDUoldQoFlQotJTIzh+qcbK/2s+pMiPmHgkz71Mfviz28VuDjZaFCLxMKPUwsdEtzsaJ6ECCllr8wwCuFAV4s8vOrQh8vFPj4pYCa5+EXy1z8bKmb/17q5sdL3PzoExdPL7Tyi4VaJuUpiN+kYPFhDevP6NhWZmBHuYUtZQ5Wn7Kx4KCejzY18GZhJa/kV/GbdWo+3O0i6WiYlKMR0g77WXjcwUG5Rxotxqyvo/WVYM8FFotM6zPWCL9Zp+TaGeVcHt/AVTNkXDu9invSqvntWgPLSoNsr/ezt87OgXoLhxtskvbXmtlbY5J0oEbP0VotJ+t1HKu3sK/axdbyAOvKm1hd0ULxmRYWHI4wfWuAt9d4eaXAza/y3by83M2EgphekWAHeLkwyEsFQX653M//5Pv4Rb5X0s/zfTy7zMtPe6H+ZImbpz9x89RiN08udPLkPBs/ytVJkTe/KVby/gYl0z7VMO1TPR9tNPPOGhOvLFfz5Lw67s+s4J70ch6eW8/PCoy8ucnLn3cEmbnXR+EZL1WmJprbY/3Xc0C/FGyv9dYMolCG2onbK2JZK6UovCunVjF8RgVPzJPx8U4HK6vFyqwIqfSyod7PuvogeWVuMvYbSNqtJXm3nvTdWhYe1LOqxMaWSh9bKsOsL42wqqyZVRVRVpVHKS6NsvB4MzN2Bfn9Oo+0DPNSvoOX85y8nO/ixeUilMjLr/K8vLDMwwvLXPxymYPnlzn5+VIXzyxx8fRiNz/+xMPTS0Tp5unFLp5a5JTAPj7fwfdzLXw/R8vjuXJ+NE/GT+bLeHqunMdzVTyYrWZ8upJRqXJGpMoYnlzP8OQ6RmXI+e58A8/kmXl7nZnCM27UnlY6zq55fROw55mzo5tF5Q4eW1jP4PgqLn//DKOSKnixQEv6ET9raiNsrA+zpr6JwoZ2Fta289EBLy8WKPnJIhk/+0TBc0sUvFmkIW6bg4UnBcx2Vpe1srKshZXlLawua2F1eTPFZS0sPNVCwr4m/rhBjLQcvJJn41d5Dn6V5+TFZTZeXWrmzTwzvyuy8PYqC79fbeX1Ihv/s9QiXfIC5I8Wu2Na6OKHCxw8Pt/O9+fZeHSOmQdzDXwnR8P9s9Xcm63izkwVo9O1UriRFCQnomFSRbqTimuTFAxJEol8KkYn1/PsvGqWHjdhbRLZbH1tU19V0FcdfAHYvsP7LCLmDIwhXt+gYdjMCr71lxPcM6uCP2w0s7A0xOraMGvrwqyWtZIn6yGlrIuJm7xSIPLYWQ3cnankvkyxvqTluTwrf90WJPd4GwWl7awqb4157ZkIq0rDrC5vYkVFi7Skkn4oxNRtPv6wxsXE5VZeXWrkNwVapq43krPHwfITXlaV+VhZ4WfBSR/xu5xMXmXhF0vMPLXAwhMLHDy5wMkTC8R6l4XH5om4LiMPzDVy/xwT43NMjJ1tZGSWgVszjYzIMHNzupkbZxkZlqqX8shEQspgkUI6Tcn1cVX8d24pK8+YCEmzWgKiKPumX74EbF/TFas9YgeINk8ZbiP1uJ070yvp99cjPJRVwYe7rCyvCrGqNgZ3tayNT+q7+eBwK88UORmfrWVMuprx2XruzjZKYZsP5hr5eZ6NP33qI+tQhPwzUVaWRVklqoXSEGvOhFhTGmZVWYjC0hCLT4VJ2Rfgg412PlijJ2uHgS1lLsoNETTeDkyhTkzhThq97RzWNbPstJe/f2rl+aUGnphrkbxULH/HoBp4cI6Bb88xcU+uRYrhumO2hZFZZm7LNMXAphm5UYR0iuyeRJHtKOJmtfSbqmBkYi2/WynjiNojLSdJIEVStlhIFUnZIvP964Dtc3Xx09TdwwZFgB8trGbYx0d4Ym4l8QcdFNc1sbpGJL4FWSlrY25VF7/ZFuLhhWbuyNIzOlPPXQJqtoiJNTE+y8jDc4w8u9TEO+udzDoYJu9MrEpYXRpmzZkga4VK/awv90lLKgWnAiw96mXVSTdHZH60jmb8EREE0klLeyfRjk6a2jpxRjqRedrZWBfkwy1WfrbIyCO5Jh6YY+GhuaI08O1cA/fmGrkrx8K42VbGZFu5PdPMrekmael7uKgGRIaPyPSZqWBIgpqrZ6oZ+HEND2fVkH3QhMbb180SiS7/MNhzB5Y7mnlvg5wH00v4+dI6ko95WSlrZlVNgFW1QQrq20gtaeOF1W7uzNZxe4ZRWq+/M8vI3SImNlsEG5u5N9vAgzkafrJYz+Q1dmbuCbDweJgVpU2sLQuztkx4rp91pR42lnrYWublYF2AGmMEmz9KuDlKc7SZSEszkeYWmiMtRJujRFs7iLR3o/K1s7oqwO/XWHgsV8+9s0W0oY37c83clyOqACPjZpsZM9vCqCyLBPWWWcbeGFmNlPEoEqSvnalg0Awlg+IbGTr1DK8sq2G3wkdTe9/wVYDtXfr/pmDPRTCDOdzG8tNWfrOynt+uUZF9KsAqWQsra4OsqAuzuCrKh/ubeGqpldtnaaUTHp0p8gxiQM8qWwQD6/h2jpYnFmh5pdDIh1sc5B72s/x0EyvKRG+hidWlfjaccbGv0kWNxo/VEyHYFCHUFCQY9uMPBwmIVQqxKhBsIhKK0hxpxdPURoW1lYzDHv77EwN3Z1u5c7aL8Tk2xueYGTfbxJhsMyOzLdyWaWZEmpHhqQap0RKhRSLLXKTxX5OgpN80GYPjKrkvtYSE7XKU3pZebH1VgQDaB/dLwPbhPOet58BGOrqpsjWx7KSF1D0mFp32sbK2iZW1IYrqm8k+08zkTT4enGNiRLKO21NNjEm3cEeGiDaJRVTfJZRt5M5sA3dmC2/S8uhcNc8v1fLOWjMJe3zMOxVleUU7K8sjbDjj4VidC401iC/YRCgcwhf04fF78fh9eM+uToQI+MWSS5hguBlTqIM1tU1MXGmTIl5GptsZk21j7GwLo2eLuQ8zI7Is3JxhZrhorFKMDE0RDZaO6xJFlKHI/VVJu3kMjTvBy8vK2FJjIdQX/SJy3QRIacOLvhmurwDbB/disOJ3oK2LClOYjeUuVpxxUVzup7imieX1bcw8FuEXRXYpA2ZEkp6RKSbGpJmk9KMxmQbuyDIwLisG9C6h2XrG5xi4N1vLwzkqnl6g4dViK3/ZFiD5cAvzT0ZYdcbPcbkfvTOMxx+UViXcPi9ur6dX4raQH4/Xj9fjwx8I4Qy1cUDTyoc7/Dy50MZ48YXOFjIwJkvL7Rk6RmToGJ6mj2WUJ2m5PlETq1NnKBkYLya267j64xIeSj9O9gElWm/TeRtH/INgz7q6pLP7Lkl/uZvaKdcF2VLhoPi0W0r+XVzbyd8PhHh8iYHbUzXcnKTnthQjo0TCnJTcoWNUho47MnSMzdRyZ5aO8dm6GNxsPffN1vPdHD2PzTPwzFIzE1c6eH+rh7lHvFLIvNrRhNPjw+1y4ZTkjMntxOFy4XC5cbrduJwuPB4fdl8zJYZ25hyP8NYaN88stfDUEiPfX6DhwVwl989Wcne2irGZKkalq7gtVcmIZDnDE+XcmCBj6PRarp9ayj1JJ/njqhoOa720dcUc7JzjCRrfCOz5UHsP7gUrrLOrR2pEjja6WXnGyZLyJmaXd/C7nX7um6tkaLKcock6bk4xcluqAC1SkjTcnqZmVJqaMekaxmVquCtLK8Edn23g7tkm7plt4t5ssROHgUfn6PnFUgN/WmdkxWkP9aYwdocbh9WCzWrFarPEZBel+NuGTaxKWK047A7MDj/l+mbWVERIOxDkw+1e/iwmetZbeGOVgVdXGnix2MhzBUZ+mm/kJ8uMPL3EwFOL9TyxSM8TC5T8KLead1bUsbHKhv3svEAMa2xauw+sqGd7Gy8pHTZmXxPseYn8or5t76TBJpLX/CwubyLhZJQXN7gYlSljcGKDtIXIsBQDt6QauDVVy62pam5NVXH7LBWj09SMzdBwZ6ZWgntXll5K+Lg7W8SsxqIA78ky8p0sNc/MbyR1p4lTCj9msxO72YjFaJBm+k1GA0aTHqMopb9NmI1GzGYzOrOTMpWXrZVeCk/5WXzcz9xjfrKOuEk94CRxv5MZe51M2+3k451OPtjh4u87XPxlm4s/bbHx9y1Gknfo2FTpQO9vlRKWz6dzDmyvpKqhb/emmH1m5BWzPpfuVd8Te62DHpzNHZy2tVJQ28KHB5t4qsDM0JR6+s2UMViEmotWNlXPLakiO1HDiFQ1t6WqGTlLzRgBN13NnQJwhpY7M43clWVhfLaN8dl2KW51bIaeBzLlvLNay6flTpQ6OzaTEZMhNuNvkFYBNOhFqdeh08VWA3RGE40GJycbnWwptbLyhI3CEw7yTzpYctLBohMOFhy3M++onblHRG/EyewjHjKPuEk/7CB9v4FFh3XsqnWg9bRI2/4JO49Gr39d+NfF9gVgL7KLwIpbLT1givaww9DO3/c4+facRgZOr+ZbM2UMSFVzdapaGhaKZIlbUtWShOfenqaRqoTR6WruyBDeq5WS28ZlWrgzSwQD2xmX42B0lkWC/vMlGjL3mTgpd2AyWTDr1Rg0CnTqRnQqWaxUK9BqxJKLHrnRTqnGx646D6vP2Cg4aWP5KQf5JQ7ySpwsK3Gy9FQM8icnXCw+6WXhyQBzjruZfcjIokNKtlXqUTtDtHae+8xfjPDz7euBPXsRnLslLgIxBqkJdJJ53M7jC2oYMr2M/5pey5UpCgakKLg2WcmwFLGvi4qbU1QxuGmx+nZkmmg41IzO0DImw8AdmWbGZloZm2XjjmwbI7MsjMow8kCOhrdWaMg/YaFMYUapUaNRy1GrZGiUDRJcsbSiUOup0dg4JHezqtxL7jE3sw46mHXYQcZRJ1lHncw+5ibnuJfZxz3MPuaV0ujTj4ZIOxwg7YCN3AMa1pZqqDS6CF4QDv9Nsf6DYM+/19PZw0FjE3/boeWerHL6x5fxrRn19BORekkKrk9UMCxJwU1JSoYnq7glRcmIFCW3piq5bZayF7JOSmAWKaGjM8yMyjBxW4ZIExJRKHoezVHy+1VKlh5WcaBGQ7lKQDTQoNHTqDFQr7VwWuVia62X7MMO3t5g4IUiLb8s1vHSah2vrzPw641m3t3i5L3tHt7b4eGP2328u93P21s8vLvRxLStSvJPaDltdOOKtp3rWn3FJf9F9g3Axl744pcX7aKrvZvduhB/3q7lvpxqBkyr4PK4WvpPb2TITAFX7DKklLYsuSlJLml4ssi5VXCL6OqIBm6WXsoSjymWMXhzmombRLctRc0js2W8XlDHzB0KFp8wsqLCzvpKOxsqHawqczL/uJsPdjiklv7+XAW3Z8gYna1g7Gy5tIvRd+dp+N5iE48utfG9JVYe+sTKA/NFD6SRF5dUM2unjMMqB86WNqnzdM4uKdjPs3NvKKoFV3sP+0zNvL/byAO5NQydUcnAuFoGxcsZPFMMEVVcm6Dk+kQ5NyTGNokQnnxjslIao4usQKFbeiUmREQ+gNi1aHiKnttnKbkns54fzG/g+SINkzZY+N1mK7/fbOP1tRaeXW7ggXmi86/mulQlg1NUXJ2qYkiSmKUSpYYhyVquTtYyUErpbOSG6ZXcn1zC2ysq2VxtxtIU7d2OrU/id6wf8C8E+1lzd8IRewvJR608myfj9oQqaWboijg5V4odjRK0DEpUMkTswJGg7N0NTsWwZLU0Tr8pRSMlCwvdmKJlqJhwFtN4KUIahiWrGJ6qZGSWljtzjYyfa+SuuUbG5Bi4JV1ERYot+tQMSFbTP0UTU6I2FoI508Bl03VcNkUhxaH1m1LKfRllvL1WxsZqG4ZgCx29l/85lOd3Pf8XwYq3D0sNWht5VS5pMe67sxukEKVvxTVy2TQF34pX0H+6SkpMG5IgJjzUUuqPACxBTlJLoIcmi17FeUrVcn2KnutS9FybrGNIko5rej1wcLKWQckaBiWpGZykYWCymgEpAnBse6orZmi4LF7NZVNl9JtSxciUcn76SQ3J+3Uc0QXxtIodmGPWh/LCQcD/Mti+NxdB9IZoJ3sNTSQetvOzfCW3pdRKeWJXTG3gqmkCrpKBM5XS5pCiihAb88Q8WcBWcV2SkuuT1ZJi2+yJUiulYg6RJkrEtlMarhZAkzUMTFLHNpJMVDEgUcmARAX9Z4odPGVcFV9L/6lV3DDtDA9llfLOehmrqxwovC00n9el6vsEMYn7L450+fp2ScAKE6cV7IYaTyvFtV7+st3A00vkjE6p5eqpVVzxURWXf1zNVXH1DJzeKO16JOpiMbF8tdhRTsAT+axJaq4Wqe69EmmYfZujiWPE7hiDhJeKnThFvsAMJVdOa+DKKdX0/6iMIVNKuHXGKR7OLuON4jpyjhg4ovXhinw2u/BCdH2++2/hsee+8T6Teg1t3Zyxt5BX5uKvn2r56eJ67suoYkRiOddNL2fwtCoGxNXSL07GVXFKrpqm4ap4LVdNF9uVqrlqhop+ImtlhpoB02PqP10tBQNfFa/myngVV8QpuCpOzqA4mRTANmJ6Ofcml0jrVH8ormb2fjV7FR4M4XaiFzrpF9j5Ddf/cuMl7BzYCxG3dPVgbuqg1BphbY2H5P1G3loj56kFlYxPLeXm+FKui6ticFw9/abKuTJOwZVxylgpbdKrpP80JQPiYuofp5COE+o/VcagKXUMnVbH2OR6Hs+VMSGvgamfNlJ40shJtQe9p0lawjl3Rp/9Pwqfb1/nmM/aJQF79tbZyYlzjwsP9rV20ehuYZ/ax7IzFmbs1vD7tXJeXC7n6YWNPJAjY1y6jNtTGxiR1MDNCWKfhFpGzKjh1hk13DazltuT6hmb2sB9GTIezVXw08Uq3lip4+PtZhaecLKtzkOFMYAjFJUS+s5ZzBNFjpqUp3aJ7J8O9gLr267vrM57SNoEXWyA3o7C38JJU4itDV7yTtuZdcAobTTxzkattInvpCI5bxbImLS8nreWNzC5sJHfr1bxt81aZu4yMOeojVUVPvZrmqhxRbFGumjqjP2/hM9e0n2xrP+oL349u7Rgz7e+T3KBl8Q+tPio0a4u/NFOLOE2FN5mKh0RTpqaOKINcUjp56Dcy6FGD4cbvRxR+DihC1JujdDgbkYfaMUV6STc3t0L82Lr9dJeqP9YrfnN7F8HVlgf2D71zfd+zkfse7S9p4f2rm7aO7vOqkPk5fZ63RdZH8pz3hn76cP7VbsQ/Z/avxbsF9pZd75IfV2eL1Lfl3I+otjtvmeeXwHEdoI993Mp0f6bgBV2MdBvqnPWd8/ng439v5uYz1/4vH+m/RuBPd8u9tyvo3MmcF386LmKoA9sDPWlsn9TsJfKziG+8Kv459v/Y2D/dfYfsJfI/gP2Etl/wF4i+/8AYQ9nCT9J85sAAAAASUVORK5CYII=;fontStyle=1" parent="1" vertex="1">
          <mxGeometry x="230" y="-962" width="86" height="93" as="geometry" />
        </mxCell>
        <mxCell id="NeXbTHolgeKM8Cqgu51a-8" value="" style="edgeStyle=orthogonalEdgeStyle;rounded=0;orthogonalLoop=1;jettySize=auto;html=1;" parent="1" source="NeXbTHolgeKM8Cqgu51a-3" target="NeXbTHolgeKM8Cqgu51a-7" edge="1">
          <mxGeometry relative="1" as="geometry" />
        </mxCell>
        <mxCell id="NeXbTHolgeKM8Cqgu51a-9" value="3. &amp;amp; 4.&lt;div&gt;Publishes&lt;br&gt;Number Received &lt;br&gt;to Service Bus Topic &lt;br&gt;named &lt;b&gt;OddEven&lt;/b&gt;&lt;/div&gt;" style="edgeLabel;html=1;align=center;verticalAlign=middle;resizable=0;points=[];" parent="NeXbTHolgeKM8Cqgu51a-8" vertex="1" connectable="0">
          <mxGeometry x="-0.1134" y="3" relative="1" as="geometry">
            <mxPoint y="1" as="offset" />
          </mxGeometry>
        </mxCell>
        <mxCell id="NeXbTHolgeKM8Cqgu51a-3" value="Azure Function &#xa;(HTTP Triggered)Â " style="shape=image;verticalLabelPosition=bottom;labelBackgroundColor=default;verticalAlign=top;aspect=fixed;imageAspect=0;image=data:image/png,iVBORw0KGgoAAAANSUhEUgAAAFQAAABNCAYAAAA4skOSAAAAAXNSR0IArs4c6QAAAARnQU1BAACxjwv8YQUAAAAJcEhZcwAAFxEAABcRAcom8z8AACETSURBVHhe7ZwHeFxXmff3efZbFpK4yOqOHUjASUgcygJZWgIEdgmkkTiBFFJNgkPIB2EXPnZZlrIQEhdJdkJJTBJ3uUi2qh13O+5FsiRLsrpVpqiXGc2d2875fc+5d+7MSJYTAzYb2P37eT33zp17yu++55z3nHPtv+EvTvIcTIwz9d2fR38z/ou3q8YjezM72z1/Dr0tgcYBJNEYD+fNbHw6478fe3J+9fYFqv6Kt1h1YgMGoMdMHZ/NvN8k/847N0FasYTPv97+QFXl5SDYrUizCqkfQ+rHkUblWazCve79TnfPcc4rkEYjWD0gFdzzr7cl0Lgcqv1gHkaMvIbd9wvs3h9j9/4Eu+9nZ7GfInp/Ms7+A9HzH1jdz2IP5CMj1WCH3SzG5/kn6u0JNF5LA2mfxB55EaPzXszm6zGbPozZ9FH3eEL7KHbjRxyzmpR9GLvpOqzGDxNtuBm942eIkf0O0HgjGJv7n6S3JVDlmG4l+xDRIszAo+inrsSovgiz+p0Y1RdjVE+a0Mzqi7GqLsaqvgir+p3Y1e/Aqvo79Kp0IidvQO/8FWL0BAj9fwZQb/gR6EhRjT30HGbrpzFrUrFP/B32ib/HPvGuM8wab1XvQFT9LaLq/2BWTkar+RDR1m9hDZaA1e3mFH9w509vK6Cex7hAexF6IVbgQcy6yxEnLkFWXoSsnISsnHyGicopcbMrJyFOXISofCd25VT0E7PRGh/H7M1Hmqfdkf4C6W0JVGAjbOWdP8ds+UfsqmnIykugYiocTz2LpUFFKrJiGrJiMrLiEsSxFIzjVxKtfQDdvwKhtYC8cDCV/vxAnZjoLN853yv/HEBEi7F8X8c6+W5ExSSomOxCO5bxJqaup8DxychjUzCPvQet8ovobYuwQyeRtuFmMSa/86u3IdAI2LWIwRyshhuxHe9TMFPgWPoEED3LhKMK6FTHzCNZRCo+RaTxhxj9e7DtsNuVeM1gonKcB/33AZ3InCr7IVKM6HgS+8S1iCOqmSuYaXA0fZxljLNUODoN62g2kWP/wGjdPPTuQkzdj4l0ek5bDUQXAKSnCwh0DKmJvx5vjIKoRPQ+j137ecSRS+HQ1BioGMQjaXGTR9S5Z6lwJAX7cDqRo7MJn3yQqG8ZltaELU0HpgMUeSEd9EIBVUV1x+ozIr3xEOOmfhdAahsxTz+KdfRKxMFUF+hhBSsG8nDChPresWlweAry0FT0Q5cTqryNSPsS7HAtUkRipVEgZexPMtDzi/a8AB1bJA+mWoDwoCb94qzl15FWFVbvc+i1n8U4mIE4MBUOpsChVKRnB9PipoBLdf3gZMesA5lEjt5AuOnHGEMHQMSml/HFlbEZu2gneOh/gs4jUK9wCqQHc1wFxpd5DNwBRLgYo+VRoseuxtg/DftAChxIAwXwQBpyv7J0iJnYnwr7p8K+Sdj709AOzGa05pvoPaUIqz8pG9c/z8TmRb3ugx/vveOLey46T0BVYRRE1UtZmNj0mRYtQxqtQ1GGTbffOkPxUhtIqw6rewH6iRvRD2Rj7k/HVjAPpDumQMp9yjLgjXTH5BvT4I0UxN5UovuvZrTiHqIdv0dE28fgUANSjyWoH9Q51a/TG7UdxGMdwAXq+euZ8M9N5wWo+4QVTAMLm3bdpqwjxKKDPl486GNfZ5gB0336Y+R9IfsRoTLM5rnoB6/C3DsNe38mYn9mzCPTYF+6awrm3jTYmwp7piF3p2PsmUX48C1oLfOxRipARONZKFQBG7Z1Gyw63Mv8vT42Nw4SDKs1UlWARGvyEP+3AB3bLNymo2Y4fktQ0BHhqe0+PvNKHV96pZafbG/njc4Qw4bygvESYDUiAjlYlZ/F2puNvScFsS8L6Vgm7EuDN5QpmBmwJ82Bye5pWDtnou37LKO1P8Lo3420h+Ipq7wGLMn2boPv7xvkphXtfOaler5b3ET5qT4GosoJYrWQ/40eqjJK9DyJ8y7DYlPXKN/cGeC6pY1MW1DN9OcruPG3FfxqVxs13aMYTmSdnNgwMrwd0TAPe//VjsfJPanIvVmwNxucT88r1Wcm7ElH7pqG2DUdfc9H0SqfRveXIPRArESuokJyoj/Kzw/28bHXOknLaSf9uVN87IVqvlvcyNamfvqjVgycC/bPCtTzSK/nUf2QAqkaWKcp2NQZ5skdPq57pZGUxfW8K7eOi+cf593P7+ORNZVsqe9mVFd3erKQRhMi8Bvs4zcjdmXDrjTYnQ57FLismGXCbuWZmUhluzOwdmah776O6NEHME4vR4TbQKjSJDRk2GxuHuDhTW1Mz23hnQu6mLSog+mL6vn4r6v411IFdZDeaKJMblv7MwP1oCqpjYR2S7KhK8wTO7uY/UojU3JPcXFeA5csqWXywsNcmbOXpzZWsaelD830Kq0+B5Ejr2Od+jb2vg8gd6TGgGbCrglsdyZidwbmzgy0He8jcuB29ObFiJFasI0xBVOHg5bNro4hnio/zay8JibNb+eSXD9TctvJWljHx39TxTOlzQ70Ht2K18lzlISvn7v+KKCeVIbKMwv8Go/v9nPta8ozG5ic28y0nFOkL6rk/S8c4r61Fayo6qIzpCcVUs3ZTyH8S7CO3ozYeRkooDvTkyBmxCwTdmY5x/aODKLbLyO85zNoNT/G6ndX3+MwY9GaOtSAtojBytoB7l/fwVWLm5m6oI1JeZ1MyTtNVk4dH/ttDd8tb6a8dYCgruKTRFIXEGiyb7pSmQUtSbFPY96eHq5Z1kLKC41MWtxCWk4zl82v4QM5R3kgv5plJ3y0DGtj+0/Ziwxtw254GnvPB5Bb02F7BnJHlgtvZ8ZY26Gup2Ntm0Fkx0cYPfokZlcRItoTS0/BlI55K/4OVClpDpmsqBnivrVtvC/vFFNzWrgor4OLc9vIyG3g+pdO8i/lTWxp7qVHMxyoYzXelc6ucwSa3LMkYJb6Ijy1p5vZy9u5eEkrFy9pI2VxCzMX1HL9ogoeW1XD8uN+Wob1cYU0kWY9VteLWEduQWx7D3JLGmzNQm6bDtuzHHjsUCAzYHsabJuG/Xoa0W3XEjlwH3rLq8hQE9hWbIdUuaVwPhNbKK5U3m1hi2XV/XxtfTPvfaGOixc28c68TiYt7iQ75xSf/k0lPyip4/XGnjF9qivPX98a6jkAVYl4QbsbEPssQWkgwtN7AnxgWSuTXzjNO5Z0MGlJq9OMPpJXyeOralhz3E/rkO70s2PT60cMb0Gv+RbG9g8gt0yHLRnwejZsnQ7bMmGb8shM17alIbemom9RTf1mtFMLsYdOgBmO1VURtGM2wVsRsdK3jlq8UtPLnHWNXL6knsk5bUxa7CM17zTvXljNDS8e4wclp9jRNMDgGKjqkajt7LeG+hZAPZgqCDadyVtQSEqCozy9t4sPLmtiypJm/i7vNO/MayV1US2zcyuZu6aW/Ao/7UPR+GZD4hkbYNZj+5ZgHPgnzLJsKE+HzZmwJRtenw5bM2FrBjL2KV5Pw9iSTXjH9YQqv4/Ruwdph2JemQTU6wHHwfSkatIY1vl9dQ/3rG/hisUNpCxqY3JuO9NymrhsYQ03/PoE/1baxK7mAYbjUNWDUi9IeD3s2fUWQFUC7sKXGvcCyjO7ozy9v5sPLm9kcm4j78pt5+KcNlIX1HJdXgWPrD7J2uMBOocTA5AqQqK6gzCyBavuW1g7rsUuToGyVNicAZuzXHO8NR35ejpiSzrG5mxCW69j5MhctM4CbF1tsiU9JQdoEsVxh8l+pWrTHDZ4taafe9a1MmtJI1MWNjF5cRupea3MWFjLDb+u4t9Km9nT0s+Iru5QKSgPdaeob6Y3AephUIGvTdCyKfNrPL2vlw+tbCdlSTMX5ZxmyqIOMhc0cl3uCR5eU8Pq4346B3WnO0tOKe6dVgOiazHmgS9ib56BLJmKLEuD8oy4yc0KZJoD0yzPIrLlWob23kO4eSl2pDVRqTjQJI8cZzEUsQ7LleqCmsMWS6sGmLOulfcuOUVKbhNTck+TktPGzEX13PCbGv59cxN7WvsZ1lUL9aCqTm/sNNrLTikG1P3KQ5hYmxEOzqAlKPOrPjPIB5e3M2VxB+/K7XSC5Kz5TXwwp5pH1tSyssLH6aFoIjPV5yQtMUnZjxzZjH1yHtbW9yNK0qAkDVmWAWWZrpVnIsozsMoVzGxGy2YxsvM2widzMIdqYnjOBHeGxeQB9d5w8i4pwPUjJr+r6mPO+iauWFzL1IXNTMrtZFpuB5ctOsUNv63mh5sb2Xl6gAFDpRLjJN2Bz8srOcs4UG8e6/mkmtmqAnTYkk3+CN9SA9Brqmm0cFFuF5NyXM/8cN5JHl1Tx6oKP63D0cRormCqmUs8ZwNp1GJ3LMLcfxN2aSayeCqUKphZCSvPQpRnYpZlopVdQWjb5whX/hizbx+IUS/1CQiOI5kkD6rX7XhSM7z6sMFLVd3cva7Jaf5TF7aTkhckPbeLmQvr+eRLVXx/axPb2wfoc6DGdJZsHaDq3Gk1sa5InatbfbakKBjlyT1BZr/axNQlDVyU18Kk3DbSFzYwO7eGh9bUs+J4gBY1mse9MfZonFFRSaXWixgux6h6AuP1q12YJVPB8c5sKI2ZAzYDqyQbrfxaRg/ej97+CiJaCwyDGAK7H+zes1gfiP4kU+fdCBFEyh4EI7HdJVcakvqQzu+q+rlzbQeXLz5NyiIfKTl+0nJOc1leHTe8XMm/bW1kZ/sgA/GZXkxxeO7pGUA9dduS0oDGt9/oYfZrrVyS08RFuS1MzmshfVEd1+Sd4P41dbxa4ad5KOo1xCRfT27uUaRZh9WRh7bn8xhFGVA8GUoV0HQXYmnMVLMvTccuziZaNhtNAW1ZhBncgNldhuEvxvBvwvBvHGNm7FP3b0IPFqEHitED6rMQI7gOI7AG3b8OvWc3Rug00tTjEFRLrA2Z/PrEELev8/HuvDamLuhgWk4X6bmtXLaomhtfOsEPtzY7njpgegsqMWhnA+pFIT2W5HV/hGf2dvORZW2k5LVxcU47U3LayFxYz+wlVdyXX8vSCj+nhqNq88JNO97/xtpBPNdBxNDrGFVPES2/BqtwChRPgdIUZGk6lCqInmW4/WpxFmbplUR3fBbtwH1oh+eiHZpL5OCjE5oW+wwffIzQ4bmEDn+D0CF1/DCjhx4gcvB+hvfPZaRqAZrvAEIbSQxoSLU9SHXIYvGJIW7L7+B9asa3sJW03DYyc1q4bFEtn3q5iu9va2Brex/duop8kpp1TPFRXn2lvKzbFGz1Rfj+rgDXv9JMpvJKBTP3NJnzT3HNwkruXXWSpRUBB2Z8CHLSTfTDMaRu9283Y3e8iLHnZsyiS5Ebp0BJKrIkDVGSgSzJHGMoDy7Kxi6+DKvkSsyy2RjKSq/BKH3/m5peeg3Rsmtj9n6iZVehl16FVvIhRspvZuTwT4j63kBGQ4lOVU1ZAbUDVT1i8eKJAe7Kb2VWXj0Zi5qYltNOSk4L2bkn+ceXjvKvW06yra2HASekilfeORoTNoUE7A1E+MFuPx//fTNZC5tJXdjGtBzVZ57i6pwqvra8ht8f7qJxMOo0lXh6Tgt3gXoDgPsEB505u1nzFEb5tYiN6VCkRvcsZEkWQllx5hijKMsBKjdlIzdmQWEGsjANWZiKLJz2liYKUx2ThVMRBVMxN2SjFV1PZPc3iDYuxxqqR5rRBFAr1jRjA1XtiMlvK3u5a10L732hgSk5zVySpxZVGslYeJxP/uYA/77lJAc7+4nasfY+EdBuS/JKTT9fWNZItnoyCzucjjl10Slm5lbz+WW15Bzsor4/guG5uTeFdqbRyTtL6pKNNOqxO3Iw3rgJc6MCk+J6YHE2sjgbUZyFKMpAFKXHLAO5KRMcy4KNmVCYDoWp524F01zbMA17QxbRTR8msutx9IYViOE6sIbcCESBVAV1TC2suFVSnloZMnn2xACfXttO+ouNXJTXxCVqtSqnnhnPH+LLvzvA8uPt9Dqr/gmNARqw4MXKPv7x5QamPt/M5IWdpOS0kra4nmuWNfDwLj8Fvgjdyhtj9yiQ6iG5ZXNDLWXuJtgwcmgzZuWjGOXvwS54FxROgqLUWLPOQBalIzdNg01THXOON6aC8uSNmcjCLESh+sxwPNWF69n4c2VpsCEVNqQj1s0gWvBBRnc8RLR+GfZgAwjNnUKqgqtCuxPBROQvXS9V04dl/Rb3Hhxi1poOJr3YxMVqTTWngfRfHeUzLxzkt4faCWiJ+PQMoEMSitpHebDEx6wXW5g8v5EpixuYubKFT+/q4cmGKK8OCI4Zgm7pwnMGOXfVzJmgxv5ZgBOaSLMJq30xkR03Et0wGWvD32MXXIK9MQV7YyrWxjQs9VmYgl04JWYpiIJpiIJ0RGE2onA6tgM1y4ErCzJjps6z3e8cy4SCDChIQ25Iw143k2jB9YS3PoR2cin2gPJMBTM2+npekAxUQFRCp4TdNiwJw9w2i0+/McLMNT4mv9DA1PknuCbvGI+tP0lxQy+DhjfEJwONuZsC1KwJXjsV4muFbbz31zXMXH6KD+7q5stNOo/4JD/stlg6qLM/atEj3ZVtrwtxJwVeyxnFDh0hWvtTQptvILxhJtFN7yZadAXR4lloxVeiFV+NVnwVWtGsuEWLZqFvugpz05XYG9+HKLzMhRcDyYasmGVDwaUxmw6Fqq9NRxakYW2YgVbwUcLbHiNycilWfzVYsUmBAzQ2EDlAY1Btd0G6A9hhSvJGBN/ph68H4PZmwcf2DHP58iauWXKU+1dX8mpFF03DUef2RMLJQGMXnHnuqM2rtT08vK2Fm3Z18IW6Ee7shnt64AG/xTNBnd8N6hyOWgwKEY8avIfvTGLlCGLkGHrjrxk98C1Gd9+Htu/raPseQtv3MBFl+x8hsl8dP0Jk36NE9j2Gtu8Rovsewth9F/aWTyE2zUI6ADNgQwzoemXTYcMMKFCmgCrgaZgbphPZ+A+EdzxKpO5VjEH1GmPEq3UiPnQ8VLhALdczFcztps2iEZN5vTb3dEvu6oE5Qbi1TuPWnV3MK61j+ZE2GgdGiSYH7jElmnwSVPXgWsNR1vmH+NHpIR7qijCnR3BHN9wRkNwfsPheMMrSgShHNIN+O2l72DlQQCPIaDt23yGMznL09kKMzk0YHWea3lGM3lGK3lnm/Mbsysc89Szm3juxi96PdACmx4Bmw3plMaDrL3UBb8jEWp9FpPADhLc9iFb3CuZwHUKOulXzPNNbiLbVoCSQtkSTcFrCNkOwcNjgiR6du7otbumW3BGEe/0WT56O8HzrEGVtfbT3h7Biuw9J2ByNXW1Kuqr6w1bLpihi8PP+KI9069wZENwagDuDkgcDJv8SiPBy3yhHIjoDItb8nXQUUAtsDWmOYBuD2PoAtjGAMPoRumu24ZplDGIZQ9jGMMIMIs1a7MBr6Pvuwdo4C7k+E9YrD82GDZfGbLoDVa7LRq7NcgegDe9ndMsctKoXsfprkELBjK0NOSC9kMR2gQpJRIJ6z2SrKVg4YvF4j6qnwS1Bwa1ByVf9Ft/u1HghOMrekEHQsLCTltJUnZMmSmcBGruq+tRWJCWayX/1GzwasPiKX3B7AO4KCO7v0nnGN8rL/WGOajr98T2jRFwWd4ykjD3zvvPCQbeYOtg1iNM5GNu/gLV+ZqyJK5gzYqaAKi/NRK7NxFoznei6a4iU30a0Yj52z/GkPlMiFcB4bJcwNZormNtMyYIRi2/0mtwWNLk5KPhyUDLHZ/JUR4QX/aMcHIkm1c/V+LKrq2OAxlkm3ad6nzYhKddsnu03mRuwmOOHryhP9QkeUFD9IQfqEc1kSO3pOEBdPCqp+IRkAqDeQKbMuUP6oXcd4ugj2JuuReQr71TeqCDOdM1p5pmwNh2RPx1t3TWEy28nWvFL7O59YA4nKuR5pLP6FQ+YnQHIaeYWLBqxeaLX5I5um3/ulnwxCHf6beZ1RFjiC3FgOMqA5QaCnpLL/5ZAveUNT6r5d9g2myMmv3KgCu72wx1+N+P7uzSe8Y/wcl+Y45rOsLCRSdsFCQ/1iuGdJWZWbjQXcf8JYcN/IrZ8wmnGIj8Due5SULZ+BnK96jezYV2G09SNtVcyuvk2Iieew+zZjzQH4xV1cvBiTq/Jx8K9TqeZSxaGBE/02twZFNysYHbD7X7J3C6DRf4Ibwxp9CcvhiQpuTbe9QmBqoIkmqB7Re1Yt9uW66kDNt8ICu7yS6f5f8VncW/XKN/1DbO0b4SKiMagUO86jZdKPeGv7jK2l5dE2l2InnzMA1/DXP8e7PxMRKx/RNna6ci1CmYmMj8Tc9370Mq+iFb5S6ze/Uhr2MnBfUBq1mYjkoHGIiQfsNO0WRiyeKLP4o6g4Evd8GU16Ppt5naZPBfU2TFs0G26K/Re6cfXZrzOAnQsdW+IVAshbQLKopJnByzmBm3mBCW3+wV3+A3u84X4rm/Qgar61F4h3JVHL2EnwUQOSQt97hJf+Ahm7X8SLfsE+upMLAV03aXIdTNh7UzIn45ck4lck42Z/z600n8ieuwnWN17wHTfB014vNptUEA973RnQF3AblOSGzJ5os/kzm6LL3VLbumGOX6bxzujPB/QeH3EpNOUSXHmOCZK8ToldAbQZJhjOMT+dqZlAso1wbODNo9129zpF9wSsLk1EOWrvjDf9Q/zUl+IQxEFNWn0j+czNlW3z+1DqjXPvV9DX/dejFXpWPlZ2KrZr53hwCQ/G7E6G331e4kUfZ7okR9hBXYgzYEx6Tmv0kjhmFpfUP6g4msFc6cpyAuZzOsznD4zAdPiiU6N+b4IW4eidJgisfiTxOatdAZQ78YzgSakOvR2NVBFBb8ctHk0aHN7wOJLAZNbgib3+DT+b9cwv+sLczhinAF1fHpOQ4zUYdc/h1nySayVauRWHpqNtXYGtmrqCq4azddcRXjjF4gc/Hcs3zYwes9I0+lG1MqXmsklwdxtCnJDBvP69Jhnwq3dcHfAZl6nxgJfmG0DUboMO77482YcJtLYsCmm5BvHJhYLh6Q7Z293PFXyiwGbB4MGt/l1vhS0uDVgca9P4xlfmKV9EQ5rJn0ieeNhnKwBhK8U6425mOuuxl6ZhlDemD8dkX+pc2yr0Tx/FsNFX2TkwI/QO7cio+6/2XTKl1RQb1BS+angyYFpSZaMmDzZozEnqHNLt+C2IHzVL5jXFWWBP8z2QY0u3XrzZv4WmhDoRBoPVEk1iTYbSjTJTwcMvh7QuDVg8KWg4DYHqs73/BGW9qsZlUW/N/cfIwtGG7CrF2AVfw579WWIVRlI1V+uzobVWYhVWURXX8HIppsYPvgjtM5tiKjyzFipxrmR14+GYqHRLkvyQsjm6V6duwNRvhx0A/e7fTbf7DR4zhdhy2CUTsPCSppOJvr3c9c5A3XlzTvcEVOZmgOrgaokYvGz/igPBXVuD9iOB9weENzrM3nGp/FaX4QazWB0zPxXrQP2IrrLMPc+hrXmKsQqNfBkO8aqLMTyDKIrLme44DOM7P9/RLu2IrwXHTyNA6o+lHcGpWSvYbE4ZPJUn8VXu93A/dagyd0+g3kdUZ73a5QN6rTqdnwrRyk5vvxD9AcB9Z5YIsJUUnGd5LRtx6AaPBg0uSOgZhtwq1/wQKfOzzqH2do/Qr+V7KMaQqvEapiPUfY57OXZyFVqFM9Crs5CrsxCWzaTwbWfZHD3M0TayxCGghmr5jiQcYuVsV0ICsIa3++LcHfQ5MvdwnnQ9/gN5rWPsqBrlC2DBq2GcKagnlTq3iL5BQeqCupm5JXexexAFZLiiM1P+y0e8lvc5hfc6rN5oD3KzzuG2N4/4sw4XClX6kZ0F2DufxRz/bXI5RmwOgPWZGCvyiS68j0M5X+C/u3fIdxSjKUFxxZoPMgkoOrDJwQl4Sg/7NW4M2DyzwEV4lnODCinK8Su/gg+Q3nmWHldxljHOTf9QUA9fG5T8I68/Xd3oGq1oWjU5r96TR73mTzWqfPDzlFW945SH9HR4vPhKGjViPrnsEpvwl51OaxUfWYmYnUG+up3M7L+Uwzs/A4jDZsww/4/uHrDUnLCsHh5xOSpHouv+U3mdkaY7wuxcyDi7FyqSGC8vHqeeeWt9QcB9bJyN4q9DsAN0D2pPrXZkmwO27zQo6ZvGmv7IlRHTEaE+xiclOxu7MAmrH1zsddeh1wxA1bPcPpQY+VMwuuvZ3jntwk3bcII+9wA/RyUDEN5mRoIDxmSpUM2PwtGWBQI8fpgBF90Yph/qv4IoF6RJwAau6zWF7ssOB6yODRk0KSZhGJbta4s5Gg1xsln0Us+F/POS7FXziS64gpC+R9jZPs3iTSuwwp3esPgOXmM9zvvt6oN9Umo1gW7RjQOjmh06mbiberYIHZuj+ut9QcC9ZSA6k0fneLFaqIevIrlIpZk1JRO4RPvqqq4Ro3sRUT3PEw0/yqsVdOxV16KtuIKhvI/ztCWJ4jUrcYOqa2yiRcmJlQSzWSoylNVdDFkW4zYNqYT+o2F+cc28fH6I4EqJYp8ZmFiy3dJBU+4QBQZqcI+tQCj9HOYK7KxVmSgLZ/B4Kp/oK/8UUInV2ANtoA461RgYk0ENP5XMrZEaZOvnA+dF6Bjixj7xvkfwdz3Kb2VHucv9eJWcCPm/sew11+L/VoqxrJshlfNpq/sAYarf48x2Ii01RvDEyZ+diX9Pn6bc5A0IUmamIy75bzoTwD6ZlLPW3mXmkspqF5xI6BVYdf/CrPkRsSKGVivZRBZeS3DZfcQqv4txmAtIvZ/Kjm3xR/GX4YuMNDYZrcnO4AMbsTe/wj2miuxX80kuuJqQiVzGK1a4rxQK6X7D18dR4ovCieSeLvrAgIdP3EzkJEK7JO/wC75DPbyy9GXX0O45B5GKxZj9lfG3tZMtNLEKntSMm9zXSCgSkkwHTj9iJ5NmHsfwlw9G33lhxjdNIfw8SWYvRXI2H/uF781uXP7X6CKQTIFAyInsevnYxTdRGTZbMJFc4gcy0XvOYG0k171ngji/wL1gCpXM0AEEOrt4t3fJLL2RkIFtxI+8jxm9+Gxnjke5F+gLhjQxMDUD5HD6FW/ZKTwToYL5jB68JeYwYPOplpcE3nmX6AuMFD1f4m0YXWtZXjnk/QV3MvIvl9g+vfD2WD+L9CzyfVQO9JAuO4Verd/j/69/4XesRNpJDbV4rOpvxJdQKCKkoUVbmOkoZjBquWMtu/E1tzV9r8ihmN0AYEq2c5LYlpvI9H+Rmy9z3mT46+gZZ9VFw6oQ00ghYkwowhbvdBz7stwf6m6wEDHovtrBunpAgNNGnv+hwD9/41BEktEUBjFAAAAAElFTkSuQmCC;fontStyle=1" parent="1" vertex="1">
          <mxGeometry x="479" y="-954" width="84" height="77" as="geometry" />
        </mxCell>
        <mxCell id="NeXbTHolgeKM8Cqgu51a-13" style="edgeStyle=orthogonalEdgeStyle;rounded=0;orthogonalLoop=1;jettySize=auto;html=1;" parent="1" source="NeXbTHolgeKM8Cqgu51a-7" target="NeXbTHolgeKM8Cqgu51a-12" edge="1">
          <mxGeometry relative="1" as="geometry" />
        </mxCell>
        <mxCell id="NeXbTHolgeKM8Cqgu51a-15" value="Text" style="edgeLabel;html=1;align=center;verticalAlign=middle;resizable=0;points=[];" parent="NeXbTHolgeKM8Cqgu51a-13" vertex="1" connectable="0">
          <mxGeometry x="0.0588" y="1" relative="1" as="geometry">
            <mxPoint as="offset" />
          </mxGeometry>
        </mxCell>
        <mxCell id="NeXbTHolgeKM8Cqgu51a-17" value="5.&amp;nbsp;&lt;div&gt;Topic Subscribed By an Azure Function&lt;/div&gt;" style="edgeLabel;html=1;align=center;verticalAlign=middle;resizable=0;points=[];" parent="NeXbTHolgeKM8Cqgu51a-13" vertex="1" connectable="0">
          <mxGeometry x="0.0327" y="4" relative="1" as="geometry">
            <mxPoint as="offset" />
          </mxGeometry>
        </mxCell>
        <mxCell id="NeXbTHolgeKM8Cqgu51a-7" value="Azure Service Bus&#xa;(Topic - OddEven)" style="shape=image;verticalLabelPosition=bottom;labelBackgroundColor=default;verticalAlign=top;aspect=fixed;imageAspect=0;image=data:image/png,iVBORw0KGgoAAAANSUhEUgAAAFYAAABRCAYAAABIU1FPAAAAAXNSR0IArs4c6QAAAARnQU1BAACxjwv8YQUAAAAJcEhZcwAAFxEAABcRAcom8z8AACkESURBVHhe7ZwHeBTXuUDz8uIkTpzEoeNuXCmmdzDFgAHRBAgEuMQlTuzkpb3EsTFNoN57L1SbasAGgw0YRDcgwID6rrb3qt615313dlcN4ZJAyvvy8x3uzOzs6L9n/r1TdqTv8J+4I/Gdzgv+E7cn/oXEur4h/x7xLyJWCGsBmm+BeM1LZ9H/msL/TcQ2eegstr3wf634FxXbXthXLe9ctf861ftPFNtJhqt9BbaX48LlaqGlpYXmVlwS0ltuFdJm/3my/0livRK9VdgWTbioamrBVtuMrqoJha2BEkMtBdoa8jW1XJeoJ19bT6G+EZm5AV15I866ZuqbXZ22dquddefjnyBWdLD9+OnucGMLOBtcqCqaydPXc6S4mr3XKtl23kHWcSupRy0kH7GR+JmDxCPlJB2rIOV4BdmnytlzuYLckhqu6xtQOxoor22iqaXTUOL6x8r9B4v1ShUHIrdU8b+9roVCcyPHSurZnldN/OdO1n9sZeUeG/+73cLvt5r47RYTv9ls5c3NDt7cUs6bWwVO/ud9O+/sthN8wEHSERtbT1s4ct1Gvr4SW00DzR3G4s7j8p2Lf4JYdwW5cFHZ0EyprYGjpbVknK1i/cFy/rTTwRubrLycZeXFDDsvZgpsvJhl54UsJyuyKlmeXSXhn1WJf1Y5L2Q6eSXLzhtZJn63SUPAbjUZJ/R8lu+gyFiHo65Z2oEdpf5bi+26A0KtpbaFL9S1bDxfztqDdt78wM7Lmxy8kO1keZaTZVmirWB5dgUrsstZkVPO8pwKluVUsiynCv+cKpbmVLNUCBaisypZkengpQwTr2Vp+e1mNWv2aknPtZIrq0FX1Uxjuxy6zuz2xZ0V6xJHblGbnlmgHtBUtnC0qJaYo05+u93G8o12FmU5WZxVzpKsCvyzK1m2sYLlGys9iOkKVmwsb2X5xnKWbRTrVUksF8KzxY5wsCzTin+6kReyDLy1zUTYp1Y+vl6OzNZAjRhuO6V5J+IOi3Wf8XgPU5UuKHU2s/9GDYEHHLy2yYZfpoNF2ZUs3ljFko2VLN1YiX9OBf455Sxrh5hfnuNkRY6jFTG/TKLdupJ0J8uynfgLsmy8ttnAmn16dl6yU2ipp6r5zqu982KBBiEVKCpvZueX1azeb+OVbAuL0xwsyqxicXYVfjmVLNlYwZKccpbmOCWR/tlulgokcU6WC6HZXuwSy7Idbolifa9gz/uWZDlYkmXm5Rwd7+7WsuOSjRJ7vfTJ6ZDobY47LlZELVBa2czu69Ws2m/jpUwTS1Ks+KWLzoux0i10SbYTvxwHS3IcksglYmjILMdPkFXBEkmWqEKHxLJWqQ5puUSWeN1drd5lftl2FmWYWJ6pYeWHWj68YkflbKCp1WfHs9/bEXdWrOfEylDv4mBxLev2W3kly4R/qpllaTaWZQpBovMOlmQ78MtysDjb7sHB4kw7fhl2lmTYWZrh8GDHX4yhWVb8s234Z9tZKlVle5wdENtamG3DN8PIi9ka1u7Tcfi6E0u1yE7Yvf3nuLdZ7M3JlTe5OKutJ+KYg1ezjSxJNrEs1cLydCvLMqwszbSxJMuGX5aNRZk2FmZZ8c22sijLwpJsEy9km3glx8zrORZezzbzeraJ1zcaeXWjkReyzSzNsrI4U7zX7kEML+Usyqzw4GRRlp2FWTYWZFlYmK7nF9kqog/ruVhWQV2DkCvi9p4n3GaxHfe8OGCVljeR+YWTX20z4Zdmwi/VLXRZuoWlGRb8MoQYNwszbfhmWpmXbmJJlp43dxgJOGQl9nMnCcfLSTzmIPmYnZQTDsI/s/PHXRZW5FjwzbCwIMOKr/R+B76ZTnwzKzyU45tpZ2GmFd8sCwvSTSxK1fDbLWVsPa1D7ajxDAResbdH7m0S602oo1hnk4uj8lre2W9mUZqRRek26WPtn2FjaYYNv3Qbi9NtLMqwSvhm2FiQYWNOsp4Xs9WEHDZysKiSy8Ymrpmb+VLfSIG+gSJLE8fl9UR97uDVrRbmp1mYm25lgRCbYcc3w4FvRnk7xLyVBRlm5qebmZ9mYFmajIC9Mk7KbFQ0eoeEm/vwt8bfIbbdHnZ5b6a0JSROxgudjaSdc/LKFiNzkoRYz3gp2nQ7i9NsLEqzsjDdiq8Qk25jfrodn0Qtr2WXkZGrp9BURVVzC3UtUNPsoqEZGl0gdzaR9UU5b7xvZm6qBZ9UG/Mz7CxI9+JgQbrTg5i2Mj/DwjxBuol5SUp+tbmEnDNaZNYqWlpzb9+Xv13w7RErXaBCvcuFs9GFsbaZAmcTO25U8pd9ZvwyDcxLNkkV65dul1icbmdhmg3fNCHUyvx0MQTYmJtmxydByxvZcrac0qC2Vng66/2Z7tBWNrLpgpNfvm/CJ9nCrBQ7c9MdzEu3SzunI2KHWSWpcz3MTtbjn6Fg/T4Fp4ps1Iq7QFJ4b6rffOft28TfKNYr0yVVZmWzC21NM9esDeSqa9lbVE3KFxW8/ZGZFTl6FqQamJ9qxjfdgm+6rZUFQmqqlflpVualWZmbZmNOqp3Z8Tp+mS1n80kNSmuF51ZNx4+pqrKRnC+cvLbVzOwkK88nO5iT5pR2zLw0mwf3dt3btjIn3YKPhJXZqRYWpur43SYFu8+bMFWKnohti1aceYu27e7bt41vIbZjhYofWd4CpRXNnNTU8sG1cmJOWll92Mzv91r4xTYzizKNzE3RMy/VyPw0M/PSxMfQXZ0SqRaJeakW5qZamZNqwyfFzqw4La9nydh4UkOZpZKW1spp66SiopGsL8QYa2KWEJtkxyfVIW1DbEtCjL2tuOfnCMFpNnzSHMxPMfNSqpKkT/UUmWppaBG9EkLF5YOQ23YX7tsK/oZivRt2V0yNy4WqpomTulo2XnEScMTMr3fpWLZRg2+6ljkpemYlGZmVbGJ2iok5qSbmpJnxkTrlrSK3UElqihBrYU6qFZ8UG7PiNLzWQay3Ux3FZn5h59WtRmYlWTqIlbYjSLO0MseDVLnik5HmxCfJwsIEFev2aTirqKRSOogJ6jx45X77A9otxbbVpvgnNuymusVFgaORnQXlrPvMwOsfqFiYqcInVcOsFB2zkw34JBvxSRJjn5nZKR5SLcxKtTI7xcIcL0KmaJPNzEl2rz8r2cLzsWpezSwl56QGhaXKM4J7s3KHEJtx3sYvthiYmWhmRjuxs1OszEoxMyvF1IqPIFXgzmV2ql1636w4FX/YpeZAkRNLnVekuFYU3Eax7WtTVIpbqrtrFU0urpgayLjg5H8+NLAgQ8mMRCVTE9RMT9IzM9UoVefcFBNzk02SsNlCVIqZ51MtEjOTxYHDIh1wfFI8iHWT3DtjVrKZGbEqXsks+Wqx5Q2kn7Py8mY9zyeamJ5kk2T5CKnJZp5PNjEjxSjxfIqRmclGZoo2xSQxK8XC9EQT0+LUvPq+is1XbWhqhUjxM0QrhgPvOOstLK+dr48uxYpNuO9IucWK/x2NzVzQ1ZB02sbr7+uZmaxhSoKWaUkGKfmZqSZmpZmYnWpkdrKR2WIoSBIdtDAjxcx0gZAmOp1kZmaSuzqF5NmiWpPEe0zS8ukxKl7OKCHrpFoaCm4p9qyVlzfpmJFgZFqiqFKbtL2ZQmqykekpbiS5yR2ZmWyWxD4Xp2FpjpKwXD3njNXYG5qobqqnwdXoKar2VtoL/ur4CrHuzQrBFc0tXNRVEn9cxyublcxK1jA5Qc+UJKMkS1TkTKkqRZWYPbRNi3WmJZl4LkkIMDKjFbP0cZyZaGJmgpHnE0xMTzAzNUrJi2nFZJxQITdXSPd027JzR1lFA2lnrby4Uc+0OCNT48UBzMbziRZmJJmkHT4tuY3pogA6YGR6opFpCTrmpir5zS4FSV8YOSRzcFZTTrG9FltjizQQuKMFXE3uc3bp+7Ovji7FttUpVLngS3M1KSe1vJpTwvRYGVMTdDyXbJKqcEaSwCQxPdnENCFRwiIhpE4XHU008lyCgWkJBqYnGqT5aQkmpsUbmRZr5LlYA1NjTUyONTMxXIl/chEpx5XI2ott9323vLyB5NNWlmXrmBRtZGKMlanxNp6LtzA13sTUBD3PJbUxLbEz7lzE9IxEDb5pCl7ZpuQPe1Ws+URNwikDHxU5uGGppUJclUghWiHXe6V267ilWPGvzgXFFU3kXLDwqy2l+MSXMiVOxXNSNYhxzeQep4QkIU4gVaaoUAvTEgVmz2sGpiYYWuVKxBuZHq9nRpxOYnqcjmlxeqZEyFiRkk/aCQUyMRR0IVYMBWlnLLyQo2FqjF7aIaLaZ4gdF69jmhimEnVMFSR0hd6dj2eHPxevZ2qcmufiFMxMkLEwQ8ZvdiuIO2XguNyJrryOhmbvWYP3gHbruEms9+Mv3qqpa+HDomr+sFvHzHg5U2KVUqJCkrsCjUxNNDIl0SAxVZJnZKr4OCdYmJpoYUqiSWJyopHJCUamJBiYKjohhCbqmJeqZWmWlhXZKl7MVEqsSC7ij5uv8/45BQpbpTQsiXDvdHfoKxvYednM/+5U4Z+uwS/DwPJsPSuy1fhnqfFN1/B8koapCRqmJOqYkqhncgcMrTlNTjDxbLyF8TFmxkUZGButZVysmilJCvxy5Pxln5xtF/QUmKqpab758r2ruEmsWF26mgLOmZtYf8TBghQ9z0ZrmRyvZWqSSFLscYMkaVKCnmc9iHHXjTvhSSLhBCMTE4w8m2CSWsGEOD2T4rTMTlHx6516wnPt0qlT9ikTOScNZH2uYcdZFeflZkzVNTR6zmTbX2SW1zeRpyln5yULqblWknIdpJ2xk3rWSuQpG7/ba2Zumk7KeVKiTuLZJD3PJhncJBp5NtGbk2gtTIy3SoxPsDAmwczIWD1jY5VMiy/kV1sKST+l4aq+kopG79Bw62gntq0exBmcqsHFBwXVvLbNJH3UJsUYmRyvY0qCOHBpmRSv59l4PRPjdUzwIKbbMyFez/h4Qyvj4g2MiTcyOlbPhFg1PsllvHvQwMfyGoqcTWic9ejtNWgs1egcNdJzAdXNzTTQIlWtG8/Ob3HhrGtCW95Imb0Jub2ZsopmrjubOKBuYPWxcnwy9IyL1TEhUcfERC0TknRMSDK4STQyIcHE+HijJz8jE6RpI+PiTYxNMDMm3sS4OCMTopXMjC3itex8Uk6ouKKrpKapbSho/0nyRpdiK10uzpvrCP7czLxkNRPCdUyJMzElTlSAhknxGibGaRnvYdxNaCTGxmkZE6fvwKg4g8SEGC3Px8l4630FW/KsyJ3i4QpPXbaIA4T7QtY9ogmhYl7883yR5hlyJTyZi7PP0uoWttyo5pe7zUxO0jEyVsu4RB0TEjSMT9AxPsEgMS7RwNgEA2Pj9YyNa0PkOFq08eI1IxNiTUyMMvJshJJp0UW8tjGfrFMqFNaqVl/fWKy1sYXd+Q5+vV3Jc9FyJoRrmBJnYEqclslxGp6N0zA+VsNYCTVjYjVdMjpOy6j2xAp0jIkzMF4ccKIUzI0r5g/vl7Hrkg1NuajNjueLLS7vhYrQ2+Q+kEmpSi+0hqhkRVULO65X8dtdYixXMyJGw/A4DWPi3Tt6XJyOsR7GxOsYHa9ntGjjOjJKQisJHh9jZFK0hYlRYvzVMiW6kLc25/PRZT2WqroOZ7rto0ux6upmEk9bWJRaxrORCiZEapgco2NyrJZJsRomxGoYF6NhTIyG0TFqRsVoumRkbCc8y8fE6BgbbZASnRBexsyYUn7/vopdeXaU5Q2SQm9OLS6hVdRtPbgaQTyTJUltaRUrjgmK6hY+uF7Fr3camRKjYWiYhmHRWobHqRkRq2KU2NGxWsZ4ENNiJ3fFSAlPEUQbGB9tYWy0nVHRFoaHK5kVX8DafSWcKrVS2dT1eOsRKzrirhLRhRvWZgI+sTAtWsm4CBXjozQ8G63h2Rg1E6M1jIsWcrSMitEyMlrDyGjR3syIWC3DY9UMi1EzPEbNCLFulIZRkVpGhusYGa5leKiGEcEKpkbIeGuLgk0XzBRYaqlqfbBCiPTccfKKFWXsOfUSN71lzka2XXHyxnYd46OUDAhUMzBEy5BIDUOj1QyLFtWrZWSMTspZyjtGy4gY3VcgXtcyIlrPqGgzI6OtDIuxMTjKyKgoOYtT80nNVaEsr+9Qrd7yvElsVYuL09p6/vShifHhSkaFqxgbrWJclFJKelyUitFRbpnDb0LXDi3DYjQMiVExOFrFEA/DotQdidYxNErLM+FljIsp4MX3C0m5oONLq5DrSVM6IW90t16xYkwVUiua2HLNwRs7lYyNKaZ/uJynI9Q8E6VlaJRGYoiUi47hMTqPUC3DY7RSRX8dQ6P1DIs2MizazNBoC4NjzAyJVDMh8jp/3lXMabmDmtab5F2KdWNrauaQvJI3tmsYHiJjaJiSEZFKRkUqGC2hZGSkmuGRWoZ6GCKS93SiPUOiRAeVDIpWMTBKwcAYBUOS1IzI0DIyW8foHD2jc4yM2GhkcLaWQVmljNl8g5c/KSKr0ERxdYPneSuRuChhcWBzXxHWiKuvRhfbldX85qiOqVtKGZJeyuAsJUOztYzO1jM2y8ioFAND43UMEcNDlIbhURqGefOLVH8NYh0dQyL1DIk0MiTKxJAoM8+EaxgefJ0V6V+y9awavVNk4zHpOQS0E+sOY20je/JtvLi5jGeCSxgUpmRIpIphkUqGS6gYHqFmaISWIRFaBkdoGRSpkXgmUs2gdgyMVDEwUsnAKBVPRZQxIEHB6J1GnjtWzoxTlcw8UyUx40wlU85WMuGMnQmnDcw5q+XtfDN7rTUomlokiW6d7qzF8biwxcXuymbelVWz+JyV50+YmJlrYd4pO74ny/E7VcXC49U8/3EFYzaaGByrZnC46Idb6GBR1RGqLhks4V5H9G9whI7BEYZWnglTMzg4n5kxeQTuL+C61tnqz6vyJrGG6ga2X7XinyNnQFAJ/cNUkrTBkaq2vRih4ZlwLYPCtQwM1zIgQkN/CXUHno5Q0T9CxYAIFU+ElTEgTcnkzx34yprx07rw0+FutS0s1LawQNfCAn0zC9X1vKKqIcBQy57KRvKbXDg8p1PiG7AbLS621Taz0lrPS5o6lijqWKas5ZfqWv6sbWCNvoWVBnhLAUvyGpm018EzcWoGhCql3IWwQeECFYPClV0glnvX0Xhw91fqc5iKgSGFjAvL4zebr3KiyEJTp+f23WLbLTPVNLLjSxtLcxQ8FSjjiVAhTMdAIVNCx6AIHQPCtTwdrpF4KszNk57WjZonw1U8Fa7i6TAVj4XK6J+hYMrZchbqXSy2wiIrLDbDYgv4mV1SK5b5mmGRoZmXdA28Z65nW2Ujec0uVMC1Fni/ppm/2OvxN9YxX1/HQn0dy/Q1/M5cQ4SzkZxaF/HV8HsTLCloZtLBcgYmaHk6RFSkkKNhQJjqmxPuRS3RP0xB/5BihgVdZkVKHvsvaamu73hj5iax1vpm9hZVsGyLlseDFPQL1fGUJFLjrs5wHf3DtTwVruHJcDVPhql5wsPj7aafCFXxRLiSJwWhSh4NKeWp9DImny1ngd6FrwUWmMHXCAtNsNjocmNysdAM80wwT9/MMl09f7HUkVrZxM66FjKrWvirrRE/Yx2zjfX4GOtZYKxjia6K/zFWEmmvZWNVE7FVLn5jdLGosJmJn5TzdLyWJ4KVUj/6h6ulnS14KkzZRmhXKHgqrMyDmHbPPx1ayqD1l1kQe54PTslwVIrr1c5i20VFs4tPlbW8tN3IY0FKHg3V8oSozjAN/cM0UuuWKT7eKkng46HKrglTuAlV8nBwKU+klTH5tBNfrUuSuVBINcAioxDrxs8j19fkYp6xhfn6Rvz1dfza1MAfLY28ZWpiuaGBOfp6Zhkb8TE2Mt9YzxJ9LW/qqwg0VZNgryfY0cKvjeBb2Mz4g06ejFPzWJCCp8PUPCUJVfFkmJInQsvaCLkFoXIPbes+FSpjQEAecyNPseV4IbbytisxETeJFV+hndE38qvdJp4ILuPhEBX9QjU8EarmqVA1T4aqeVySKYQpeCxYyWMhCg9l7aYVPCZeDxWvq3goSMYTqW1iF5ndlSrESlJNLhaZ3FK90wuMLcw1NOGja2CerpGFumZ8dS3M0zXjo2vCR7xmaGKuoYHFulre1FURZK4lubyR8EoXb1lcLChqYuwBB4/HKukXKIS074PITeQsl+gXfDOPBZXxWLBYp61v/UIUPB5cSv+AS8yLOs3Wk8XYKqs7eLxJrDixKXA0s+qwiWFRch4MLuPBYCFXxeMhSgkhSmxc8GhwGY8Gi7bjdOvrIWIYUPGAJFbJlDMVLNbBEgssMYOfSYyvnjFWAvzEmGuBhWYX840t+Bia8dELWphjcDFP38I8g5DezFxTM/OMjfjp63hLX0uwrYHMuhZi6uG3NhcLixsZd9DO47EKHtkg54lg0Q81/UKUEo9KObpzfqQLHg0SKN39Em2QkkfEssBi+gdcYHH8OfZ8oaRK+iKyLTqJdZeysb6FzEt2fDIVPBIio3eggodFEkKYJE58tBUSjwSXtfJwJ7zJifXuC5TxWLKaqSerWKqG5SY3/kZYKg4yQrAHIVyw2AS+BligF7gk5hvcra+YF9NGF76GZvx1TfxK18hqazMxNRBcA2+axRjbxLgDdvrFKHhwvUwa3vpJgkRuSh4JVrXysIeH2uFepuThICUPByp5KFDFgxvKeGh9AQPXX+Cl9IscuWagyXPR4o2bKlaE+Ir7mKqGN/cbeDKilG4BMu4PVvBQUBkPB5XxUJCCBz2IZV7E/ANBZa08KC2XS22fDTIeTVAz6bNKlhTBciUsV4G/EpaowU8Niz2tmBcsVsEiJSxUwELRKsG3PSoXvtI6LvwVLbxc1sKv1C383gC/McFLSph7uYmRe2w8HFHG/QElPBKokHg40N2Ph4KUrTzQFYFKHhRI0yoeCFRz//oyHlh7neFBF/j9tqtckFs7K+wo1utcXO2UVDUT+YWDMUlyuq8rpnegnPs2yHkg0M39gQoPZW1sUHDfhrJW7t8g1pNxf5Cc3htkPBilZOg2M1M+rWLG8RpmnKhh2vFqpuZWMyW3msm5VUxph5iffMLNs7leKiUmCk5WMPFkOZNyy3nuhJPnjgvKmXqykqmnq5hyopoxHzl5OkPPAyFy7gso5cEN8lYeEPlJebppy7tt+r71Cu4XbFByf6CK+wLV9BWFtuoykyMuEHGoGJlJfC3QMVrFCqlifBWtuF/jdMF+RQ3+29U8ElJMj4Bieq0vleQK+m5Q3Mz6Mvq0o+96sZ5c2im9AuX0DZHzUHQZjyereDpdQ/90LU+la3kyQ8PjmWoey1TxWKayS/p14lExTGXJeSSrlH5ZpTyeWcITGaU8niGnX4bC/b4MFQ8nKrk/ooy+ojDWy7l/vYz7PPRdL6NPO8S84L6Atum+AWKHlHFfgIL71ivpu0FF33XFPLrqAv6peezJM2Cr7ji+irhJbHu5hRVNRJy1MCmpkF6rv/RUroI+GxT0We+m93qlBwW9A+T0DihrpY9o15fRM1BOjw0yegWV0DesiAdjink0SUa/JDn9ksp4JEnOQ8mlPJhcwoPJxW2kuHlItK3LxTru9R5IKeKBlHweTLnBQ8nXeSQpn0eTingkUVDMI0mlPBhbyn1hMvoEyukTIHfLDHDTO6C0A31uQd91pdy3Tk7fAAW914lhIJ9hG87z7u58ruiqaGz9LRzRuqdvGgq8YkVUNbk4pavmT/tlDAzJo/va69wbUEaPDSp6rVd4UHooo5ck1i23l4ee68X6croFlNAzuJCHEgp5erOMwTvVDNmtYcguDYN3qhi0S8nAXQoG3IqdNyPWH7hLzoBdcgbukjF4VzHDd+czZvc1xn2Yz8hdpTyzRUm/JBW9g+X0WCuXchT0DJDRI6CUnu3o1Q637BL6BBTRd10R960rpc86OT1XFfDE2jwWJ+ex9bwaU03bkwdfKbb9F3Zi3tzQzK4bJpZvyadf0FXuWV3MzwJUdAtQ0iNAQU+JMnp6knUjpuX0CJDT3cO9a4voEZJPv6xChn6kYOxRPeM+NzLumIExR3WMOqpl5FENI74FI1vfo2XEMQ1jjhUy9eR5fC+cYvHF88zMvc74T9T036ijd6icbqtLJbk91snoHlBCt4Biurejxzo3PQVrS+i9tpi+6wrpu66APmuL6bOmmPvezWNCyHnWf1TIZY2T+g5nA12I9Var+9GiNrlifygq68jMMzAvu4A+627wo/dKuWe1gm7rlHRfp6D7OnGAk9F9XSk9JMS0jG4SpVJ775oCeoRe57FNBQz/VMG4k3omnjYw/pSBsSe1jD6pYdRJNSO/BaNOaiVGntQz8qSOcae+xCfvCK+VHeKNss9ZcOkik44pGLBNR8/QUu5dVUy3NTK6rxU5FXPvuqJWfr6uiG5r2+i+Rsgtps/aIvqsLaTHqnx6v3OFwWvP8dbmy3yWb6S8zn1Ts03nV4jtCumx9/J64s/pmZ1RzAMBBfxEyF0l56er5fx0jYyfrS3h3rUl/HyNm26rPdNi2doSfro6n+6h1+i3qYChh8oYc0LD2FwtY05oGXVczcjjKkYcVzL8xDdnhPQeFcOOaxj2uZoxJ/KYc/EAr8v28kvZJ8y7cIYJR2U8tVVN95AifvJeAT/35HXvmiJ+tqawjbXtWFPET9cUS223VQX0ePcafd7JY8CaL3g58wo7LqoxVoh7A23u2tetiJuGgvbTXtkixFMxN+x1JJ43sSBHRr/AAn6ysoC7Vxbzg1Wl/Gh1MT9ZXcxPVxXzs1VF3CtRzL2rhdQSfryqgHtDrvPopkKGHlZIQsfk6hgtxJ7QMPK4WpI0/FsgdoRg2HE1w44rJbGzzn3MiqvbeeHqHnzOnmTC0VKe3Kbm5yFF/GhlvpSfyOenItfVhfxkVQE/WV3APWsKuWdtIT9eW8Tda4r5wZpS7l5VxE/fuUrPP5/jmTVnWJFxlU3ntSjEb9p8zd8/6PICwRud94Q4qShx1LPpqo03dqsYEVNIz7U3uOudG3z3rzf4/jv5/PDdQn68spgfv1fCPatl/HhNGXevkfO9VcXcHZLPA5tKeOawipG5OukjPCJXx/BcLcNyNQw9oWHYt0IlMeSEmsEnlIzOzWPW+YO8eGMXL93Yj88XZxj3uYLH3tdxT2gpd60s4oerZPxwtZy718i4e00JP1xdzA9XF/GDNcV8f00R31tdyH+tLOA779zgrrcv0+edc4zZcIY3N11l20Udcket50E5YabrLxJF3Fqs12qnnSI2patt5khZFQHH9MzdWMrTETfoufYaP1v5Jff89To/eiefH7xbxPdXlnDXe3K++56M77xTwHfXX6NXdiH9DykkMZLQE1qG5AoxKjfHb4H3dUmkGyHzmRMKBkrIGZF7kVkXPuHV0o95RfYZsy5dYNQxFQ9t0fODwBK+89dC/uvdUr67spT/fq+E/36viP9eWcB3PXxv5Q2+v/IaP1p5hW6rLvH0hovMS8gjYF8Rh26Y0FR5vypym3A/PtJ13Fps++hCcHljC1/a6tla6OSdozoWbixhTORVHl97id7vXuSet/P44V+u8v23r/O9t6/xnf+9yPdWn6dP2lWe+biE0ccUjPlcyeijCkYdkzPiqOxrKGXE0RKpHelBzA8/WsQwD2OOXWTGqc9YevkQflc/Z/qZS4w+rODRbAU/WnOV7/7xEt/785fc9Zer3PWXy9z1dh53vX2J77+dx93v5PHzlZd4cO0FhoVdZG7qVd7ZV8IHFw18qa3EVtvYqtE9RHofdO06vp3YToLFZo1NLi5a6th53UbUMTV/2lXC8px8ZiReZ2L0NcZGXmNE+FWeCbnAkOjzTHn/SxYek+F/VoX/OTVLzyhZelrBktNl+H0VZ+T4nZFJ7RIPfqdl+J0uwe+MoBT/0wW8ePYyr164yCsXr/DCuSKWnlAye6eMcbFXGBF8iVGhVxgVdplRYXmMjrjM+OgrTIq/zoyUfBZnF/LW9iKCD8v54KKOS5pyrDXeR/Lc4T1r8j6Reav4dmLbz3sWiB9S6wJ7fQtKZwOX9TUcLnaw5aKJlFwdccfUhH+qYP0npaz7tITA02UEXdGw7pqW1YIvNay5KlB/DaoOrJZQsvqqwoOKtVfVrLuiZu0V9zoBV9WEXNEQeVZN5JEyIg+VEXVYQeRhBVGHy4g9oiQpV0vmORPbrlj5qNDBWVUlpbZaqUIbpD/Y0zE6q7hVfDOxX7m5jsvFwF7Z0IK5oh6trQaluZpSUxWFJvGrmxV8qrSRXaAl4rKMDZdKCbpcSkiejFAPYbeklLC8EsLyignNKyaklRJC8sQ2ygjLUxB2oYzQc6WEnC0k+kIhm6/JOVFmoshYicJcjdJYjUKiCpW5WsrRUF6PpbpBeoKxvguZnfv4TeI2ib3V6x2XOVpcfKawEHDiGq/uPcWyPSd4cd8pXt53hl/sPcsre8/y6i05I73n1b0neWVvLr/Ym8vL+0/y8r7TvLzvPL/Yd4HX9p3hzf2f88cDn/GHjz7hj3s/IfjwKY4WKahs/S3vziFy7Hzm3tYf6U+vfOVfTus6vqHY2xO6uiaSL8iYk/0ZA6J38ljkdp6O3UP/mL0MiNnHwJj9DGplXyf2MihmD4NidjMoZhcDYnbSP3aX9N7+MR8zIOZjBsdsZ1JaJv67cli6PYvnk9PxTXqfhM8voZW+7OuqDm4l9u+LOypWpOcd7EXIqhrYcLyA4XEH6L5hGz9Zv43uQTvoEbybnkF76Rm0j14Se+kV9GFHAvfQK3AXvYJ20itoBz2DttMjeAc9AnfTPXAv3QP30Cc4kxFpcbz4WSYvHspkQkoCYyOyWHXgLEV293dS4pcPxUPZzZ5n69wV2f5C/u+XKuKOi/XWgIjSqgbW5xYxIulTeoXu5uehu+kVsY/eER/TJ/wgfcI/oW/4IfpK7UFP6+UAfcM/om/EfvpG7KNvxF76ROyjT/hH9Ao7QM+w/dwfmcPonDheOp7CC0dSmZCZyLjYHFYdOk+hwyO2xS1V3On7txXr/cx5T0tk1Q2sP1nEiOR2YiM7iu0TfshD++lD9Ik4SB+xXsR+t1CJ/fQJ/5je4YfoFX6A+6M28UxaJM/vCea5HUEMSYxgdGwmqz89R6FTfD3tFioexu5YsTePrX9v3Fmx3keuO4gtZkTKZ/QM28PPwnbTI2ofPSMP0DviE3pHHGrH4Y7zkQfpHfkxvSM+ordU5QIxfYBe4Z/SM/wwfaO2MiQrhvmHo/E5EMnw1EhGx2aw+vDZVrHiLp+Q21Fse6H/pmIDcosYmniYbsE7+XHwDn4e/iHdwvfTPexjuocdoHvoLQj7iO5h++geupfuoR96ENP76RZykHtDDtIjfAuDcxJYeioDv+PpjMiIZ0R0Fis/OUeR0z0USM8se/Cm9zcc9L827qjYzvkqq+sJOlHAiPgD9NywjZ9t2EqPkB30CNlFz5Dd9Azec2ukdXbRM3gnPYN3eBDTu+gR9CHdgnbTMySHJ5PimLwrkQkfJPJ0bAIjIjex9tAFSj1ipRDV6qnYOxV3XGz73E11DWzMk/PC1s+ZFL+HsXE7mZi0l/FJ+xiXtJ9xok2+Bd51kvd2Yh9jk/YzRnp9B5PTNvL8xiymZGYzKWUrS3MOknm2EH1Vuz9h9v9BbPvjbFVTM5e0NrZcKCT6s/OEHT5L+JEvCDlygaCjXxAocd5D5+mvZoO03jmCjp4m8OhJ1n52ig1HzpNxNp8LSgvV3l/b9OztOzUEeOMfItYrVzxDWlFXj85ZTpnJTKnRRKnJQqHJQoHZTP43wtKJjq/dMFm4ZrRy1WDluslOmb0SZ22DdLBq/QgJqZ6qvWm8uk1xx8V2luue8p43es8d289/Hd6teen82i1MtZP6by/WG97+uEP0Rly3dxbWWVzn6W+C11R7PL/HfvPir9wPf2/8Q8S2D/fFgvfo4S2broR0pnOlftP3eS5QbtqU95yrc4a3J/4JYtv4h8b/d7H/tOhcyP8Rexujs9w7JFXEf8Teofg/15mlRe4eZLsAAAAASUVORK5CYII=;fontStyle=1" parent="1" vertex="1">
          <mxGeometry x="887" y="-954" width="86" height="81" as="geometry" />
        </mxCell>
        <mxCell id="NeXbTHolgeKM8Cqgu51a-12" value="Azure FunctionÂ &#xa;(Service Bus Topic&#xa;Triggered)" style="shape=image;verticalLabelPosition=bottom;labelBackgroundColor=default;verticalAlign=top;aspect=fixed;imageAspect=0;image=data:image/png,iVBORw0KGgoAAAANSUhEUgAAAFQAAABNCAYAAAA4skOSAAAAAXNSR0IArs4c6QAAAARnQU1BAACxjwv8YQUAAAAJcEhZcwAAFxEAABcRAcom8z8AACETSURBVHhe7ZwHeFxXmff3efZbFpK4yOqOHUjASUgcygJZWgIEdgmkkTiBFFJNgkPIB2EXPnZZlrIQEhdJdkJJTBJ3uUi2qh13O+5FsiRLsrpVpqiXGc2d2875fc+5d+7MSJYTAzYb2P37eT33zp17yu++55z3nHPtv+EvTvIcTIwz9d2fR38z/ou3q8YjezM72z1/Dr0tgcYBJNEYD+fNbHw6478fe3J+9fYFqv6Kt1h1YgMGoMdMHZ/NvN8k/847N0FasYTPv97+QFXl5SDYrUizCqkfQ+rHkUblWazCve79TnfPcc4rkEYjWD0gFdzzr7cl0Lgcqv1gHkaMvIbd9wvs3h9j9/4Eu+9nZ7GfInp/Ms7+A9HzH1jdz2IP5CMj1WCH3SzG5/kn6u0JNF5LA2mfxB55EaPzXszm6zGbPozZ9FH3eEL7KHbjRxyzmpR9GLvpOqzGDxNtuBm942eIkf0O0HgjGJv7n6S3JVDlmG4l+xDRIszAo+inrsSovgiz+p0Y1RdjVE+a0Mzqi7GqLsaqvgir+p3Y1e/Aqvo79Kp0IidvQO/8FWL0BAj9fwZQb/gR6EhRjT30HGbrpzFrUrFP/B32ib/HPvGuM8wab1XvQFT9LaLq/2BWTkar+RDR1m9hDZaA1e3mFH9w509vK6Cex7hAexF6IVbgQcy6yxEnLkFWXoSsnISsnHyGicopcbMrJyFOXISofCd25VT0E7PRGh/H7M1Hmqfdkf4C6W0JVGAjbOWdP8ds+UfsqmnIykugYiocTz2LpUFFKrJiGrJiMrLiEsSxFIzjVxKtfQDdvwKhtYC8cDCV/vxAnZjoLN853yv/HEBEi7F8X8c6+W5ExSSomOxCO5bxJqaup8DxychjUzCPvQet8ovobYuwQyeRtuFmMSa/86u3IdAI2LWIwRyshhuxHe9TMFPgWPoEED3LhKMK6FTHzCNZRCo+RaTxhxj9e7DtsNuVeM1gonKcB/33AZ3InCr7IVKM6HgS+8S1iCOqmSuYaXA0fZxljLNUODoN62g2kWP/wGjdPPTuQkzdj4l0ek5bDUQXAKSnCwh0DKmJvx5vjIKoRPQ+j137ecSRS+HQ1BioGMQjaXGTR9S5Z6lwJAX7cDqRo7MJn3yQqG8ZltaELU0HpgMUeSEd9EIBVUV1x+ozIr3xEOOmfhdAahsxTz+KdfRKxMFUF+hhBSsG8nDChPresWlweAry0FT0Q5cTqryNSPsS7HAtUkRipVEgZexPMtDzi/a8AB1bJA+mWoDwoCb94qzl15FWFVbvc+i1n8U4mIE4MBUOpsChVKRnB9PipoBLdf3gZMesA5lEjt5AuOnHGEMHQMSml/HFlbEZu2gneOh/gs4jUK9wCqQHc1wFxpd5DNwBRLgYo+VRoseuxtg/DftAChxIAwXwQBpyv7J0iJnYnwr7p8K+Sdj709AOzGa05pvoPaUIqz8pG9c/z8TmRb3ugx/vveOLey46T0BVYRRE1UtZmNj0mRYtQxqtQ1GGTbffOkPxUhtIqw6rewH6iRvRD2Rj7k/HVjAPpDumQMp9yjLgjXTH5BvT4I0UxN5UovuvZrTiHqIdv0dE28fgUANSjyWoH9Q51a/TG7UdxGMdwAXq+euZ8M9N5wWo+4QVTAMLm3bdpqwjxKKDPl486GNfZ5gB0336Y+R9IfsRoTLM5rnoB6/C3DsNe38mYn9mzCPTYF+6awrm3jTYmwp7piF3p2PsmUX48C1oLfOxRipARONZKFQBG7Z1Gyw63Mv8vT42Nw4SDKs1UlWARGvyEP+3AB3bLNymo2Y4fktQ0BHhqe0+PvNKHV96pZafbG/njc4Qw4bygvESYDUiAjlYlZ/F2puNvScFsS8L6Vgm7EuDN5QpmBmwJ82Bye5pWDtnou37LKO1P8Lo3420h+Ipq7wGLMn2boPv7xvkphXtfOaler5b3ET5qT4GosoJYrWQ/40eqjJK9DyJ8y7DYlPXKN/cGeC6pY1MW1DN9OcruPG3FfxqVxs13aMYTmSdnNgwMrwd0TAPe//VjsfJPanIvVmwNxucT88r1Wcm7ElH7pqG2DUdfc9H0SqfRveXIPRArESuokJyoj/Kzw/28bHXOknLaSf9uVN87IVqvlvcyNamfvqjVgycC/bPCtTzSK/nUf2QAqkaWKcp2NQZ5skdPq57pZGUxfW8K7eOi+cf593P7+ORNZVsqe9mVFd3erKQRhMi8Bvs4zcjdmXDrjTYnQ57FLismGXCbuWZmUhluzOwdmah776O6NEHME4vR4TbQKjSJDRk2GxuHuDhTW1Mz23hnQu6mLSog+mL6vn4r6v411IFdZDeaKJMblv7MwP1oCqpjYR2S7KhK8wTO7uY/UojU3JPcXFeA5csqWXywsNcmbOXpzZWsaelD830Kq0+B5Ejr2Od+jb2vg8gd6TGgGbCrglsdyZidwbmzgy0He8jcuB29ObFiJFasI0xBVOHg5bNro4hnio/zay8JibNb+eSXD9TctvJWljHx39TxTOlzQ70Ht2K18lzlISvn7v+KKCeVIbKMwv8Go/v9nPta8ozG5ic28y0nFOkL6rk/S8c4r61Fayo6qIzpCcVUs3ZTyH8S7CO3ozYeRkooDvTkyBmxCwTdmY5x/aODKLbLyO85zNoNT/G6ndX3+MwY9GaOtSAtojBytoB7l/fwVWLm5m6oI1JeZ1MyTtNVk4dH/ttDd8tb6a8dYCgruKTRFIXEGiyb7pSmQUtSbFPY96eHq5Z1kLKC41MWtxCWk4zl82v4QM5R3kgv5plJ3y0DGtj+0/Ziwxtw254GnvPB5Bb02F7BnJHlgtvZ8ZY26Gup2Ntm0Fkx0cYPfokZlcRItoTS0/BlI55K/4OVClpDpmsqBnivrVtvC/vFFNzWrgor4OLc9vIyG3g+pdO8i/lTWxp7qVHMxyoYzXelc6ucwSa3LMkYJb6Ijy1p5vZy9u5eEkrFy9pI2VxCzMX1HL9ogoeW1XD8uN+Wob1cYU0kWY9VteLWEduQWx7D3JLGmzNQm6bDtuzHHjsUCAzYHsabJuG/Xoa0W3XEjlwH3rLq8hQE9hWbIdUuaVwPhNbKK5U3m1hi2XV/XxtfTPvfaGOixc28c68TiYt7iQ75xSf/k0lPyip4/XGnjF9qivPX98a6jkAVYl4QbsbEPssQWkgwtN7AnxgWSuTXzjNO5Z0MGlJq9OMPpJXyeOralhz3E/rkO70s2PT60cMb0Gv+RbG9g8gt0yHLRnwejZsnQ7bMmGb8shM17alIbemom9RTf1mtFMLsYdOgBmO1VURtGM2wVsRsdK3jlq8UtPLnHWNXL6knsk5bUxa7CM17zTvXljNDS8e4wclp9jRNMDgGKjqkajt7LeG+hZAPZgqCDadyVtQSEqCozy9t4sPLmtiypJm/i7vNO/MayV1US2zcyuZu6aW/Ao/7UPR+GZD4hkbYNZj+5ZgHPgnzLJsKE+HzZmwJRtenw5bM2FrBjL2KV5Pw9iSTXjH9YQqv4/Ruwdph2JemQTU6wHHwfSkatIY1vl9dQ/3rG/hisUNpCxqY3JuO9NymrhsYQ03/PoE/1baxK7mAYbjUNWDUi9IeD3s2fUWQFUC7sKXGvcCyjO7ozy9v5sPLm9kcm4j78pt5+KcNlIX1HJdXgWPrD7J2uMBOocTA5AqQqK6gzCyBavuW1g7rsUuToGyVNicAZuzXHO8NR35ejpiSzrG5mxCW69j5MhctM4CbF1tsiU9JQdoEsVxh8l+pWrTHDZ4taafe9a1MmtJI1MWNjF5cRupea3MWFjLDb+u4t9Km9nT0s+Iru5QKSgPdaeob6Y3AephUIGvTdCyKfNrPL2vlw+tbCdlSTMX5ZxmyqIOMhc0cl3uCR5eU8Pq4346B3WnO0tOKe6dVgOiazHmgS9ib56BLJmKLEuD8oy4yc0KZJoD0yzPIrLlWob23kO4eSl2pDVRqTjQJI8cZzEUsQ7LleqCmsMWS6sGmLOulfcuOUVKbhNTck+TktPGzEX13PCbGv59cxN7WvsZ1lUL9aCqTm/sNNrLTikG1P3KQ5hYmxEOzqAlKPOrPjPIB5e3M2VxB+/K7XSC5Kz5TXwwp5pH1tSyssLH6aFoIjPV5yQtMUnZjxzZjH1yHtbW9yNK0qAkDVmWAWWZrpVnIsozsMoVzGxGy2YxsvM2widzMIdqYnjOBHeGxeQB9d5w8i4pwPUjJr+r6mPO+iauWFzL1IXNTMrtZFpuB5ctOsUNv63mh5sb2Xl6gAFDpRLjJN2Bz8srOcs4UG8e6/mkmtmqAnTYkk3+CN9SA9Brqmm0cFFuF5NyXM/8cN5JHl1Tx6oKP63D0cRormCqmUs8ZwNp1GJ3LMLcfxN2aSayeCqUKphZCSvPQpRnYpZlopVdQWjb5whX/hizbx+IUS/1CQiOI5kkD6rX7XhSM7z6sMFLVd3cva7Jaf5TF7aTkhckPbeLmQvr+eRLVXx/axPb2wfoc6DGdJZsHaDq3Gk1sa5InatbfbakKBjlyT1BZr/axNQlDVyU18Kk3DbSFzYwO7eGh9bUs+J4gBY1mse9MfZonFFRSaXWixgux6h6AuP1q12YJVPB8c5sKI2ZAzYDqyQbrfxaRg/ej97+CiJaCwyDGAK7H+zes1gfiP4kU+fdCBFEyh4EI7HdJVcakvqQzu+q+rlzbQeXLz5NyiIfKTl+0nJOc1leHTe8XMm/bW1kZ/sgA/GZXkxxeO7pGUA9dduS0oDGt9/oYfZrrVyS08RFuS1MzmshfVEd1+Sd4P41dbxa4ad5KOo1xCRfT27uUaRZh9WRh7bn8xhFGVA8GUoV0HQXYmnMVLMvTccuziZaNhtNAW1ZhBncgNldhuEvxvBvwvBvHGNm7FP3b0IPFqEHitED6rMQI7gOI7AG3b8OvWc3Rug00tTjEFRLrA2Z/PrEELev8/HuvDamLuhgWk4X6bmtXLaomhtfOsEPtzY7njpgegsqMWhnA+pFIT2W5HV/hGf2dvORZW2k5LVxcU47U3LayFxYz+wlVdyXX8vSCj+nhqNq88JNO97/xtpBPNdBxNDrGFVPES2/BqtwChRPgdIUZGk6lCqInmW4/WpxFmbplUR3fBbtwH1oh+eiHZpL5OCjE5oW+wwffIzQ4bmEDn+D0CF1/DCjhx4gcvB+hvfPZaRqAZrvAEIbSQxoSLU9SHXIYvGJIW7L7+B9asa3sJW03DYyc1q4bFEtn3q5iu9va2Brex/duop8kpp1TPFRXn2lvKzbFGz1Rfj+rgDXv9JMpvJKBTP3NJnzT3HNwkruXXWSpRUBB2Z8CHLSTfTDMaRu9283Y3e8iLHnZsyiS5Ebp0BJKrIkDVGSgSzJHGMoDy7Kxi6+DKvkSsyy2RjKSq/BKH3/m5peeg3Rsmtj9n6iZVehl16FVvIhRspvZuTwT4j63kBGQ4lOVU1ZAbUDVT1i8eKJAe7Kb2VWXj0Zi5qYltNOSk4L2bkn+ceXjvKvW06yra2HASekilfeORoTNoUE7A1E+MFuPx//fTNZC5tJXdjGtBzVZ57i6pwqvra8ht8f7qJxMOo0lXh6Tgt3gXoDgPsEB505u1nzFEb5tYiN6VCkRvcsZEkWQllx5hijKMsBKjdlIzdmQWEGsjANWZiKLJz2liYKUx2ThVMRBVMxN2SjFV1PZPc3iDYuxxqqR5rRBFAr1jRjA1XtiMlvK3u5a10L732hgSk5zVySpxZVGslYeJxP/uYA/77lJAc7+4nasfY+EdBuS/JKTT9fWNZItnoyCzucjjl10Slm5lbz+WW15Bzsor4/guG5uTeFdqbRyTtL6pKNNOqxO3Iw3rgJc6MCk+J6YHE2sjgbUZyFKMpAFKXHLAO5KRMcy4KNmVCYDoWp524F01zbMA17QxbRTR8msutx9IYViOE6sIbcCESBVAV1TC2suFVSnloZMnn2xACfXttO+ouNXJTXxCVqtSqnnhnPH+LLvzvA8uPt9Dqr/gmNARqw4MXKPv7x5QamPt/M5IWdpOS0kra4nmuWNfDwLj8Fvgjdyhtj9yiQ6iG5ZXNDLWXuJtgwcmgzZuWjGOXvwS54FxROgqLUWLPOQBalIzdNg01THXOON6aC8uSNmcjCLESh+sxwPNWF69n4c2VpsCEVNqQj1s0gWvBBRnc8RLR+GfZgAwjNnUKqgqtCuxPBROQvXS9V04dl/Rb3Hhxi1poOJr3YxMVqTTWngfRfHeUzLxzkt4faCWiJ+PQMoEMSitpHebDEx6wXW5g8v5EpixuYubKFT+/q4cmGKK8OCI4Zgm7pwnMGOXfVzJmgxv5ZgBOaSLMJq30xkR03Et0wGWvD32MXXIK9MQV7YyrWxjQs9VmYgl04JWYpiIJpiIJ0RGE2onA6tgM1y4ErCzJjps6z3e8cy4SCDChIQ25Iw143k2jB9YS3PoR2cin2gPJMBTM2+npekAxUQFRCp4TdNiwJw9w2i0+/McLMNT4mv9DA1PknuCbvGI+tP0lxQy+DhjfEJwONuZsC1KwJXjsV4muFbbz31zXMXH6KD+7q5stNOo/4JD/stlg6qLM/atEj3ZVtrwtxJwVeyxnFDh0hWvtTQptvILxhJtFN7yZadAXR4lloxVeiFV+NVnwVWtGsuEWLZqFvugpz05XYG9+HKLzMhRcDyYasmGVDwaUxmw6Fqq9NRxakYW2YgVbwUcLbHiNycilWfzVYsUmBAzQ2EDlAY1Btd0G6A9hhSvJGBN/ph68H4PZmwcf2DHP58iauWXKU+1dX8mpFF03DUef2RMLJQGMXnHnuqM2rtT08vK2Fm3Z18IW6Ee7shnt64AG/xTNBnd8N6hyOWgwKEY8avIfvTGLlCGLkGHrjrxk98C1Gd9+Htu/raPseQtv3MBFl+x8hsl8dP0Jk36NE9j2Gtu8Rovsewth9F/aWTyE2zUI6ADNgQwzoemXTYcMMKFCmgCrgaZgbphPZ+A+EdzxKpO5VjEH1GmPEq3UiPnQ8VLhALdczFcztps2iEZN5vTb3dEvu6oE5Qbi1TuPWnV3MK61j+ZE2GgdGiSYH7jElmnwSVPXgWsNR1vmH+NHpIR7qijCnR3BHN9wRkNwfsPheMMrSgShHNIN+O2l72DlQQCPIaDt23yGMznL09kKMzk0YHWea3lGM3lGK3lnm/Mbsysc89Szm3juxi96PdACmx4Bmw3plMaDrL3UBb8jEWp9FpPADhLc9iFb3CuZwHUKOulXzPNNbiLbVoCSQtkSTcFrCNkOwcNjgiR6du7otbumW3BGEe/0WT56O8HzrEGVtfbT3h7Biuw9J2ByNXW1Kuqr6w1bLpihi8PP+KI9069wZENwagDuDkgcDJv8SiPBy3yhHIjoDItb8nXQUUAtsDWmOYBuD2PoAtjGAMPoRumu24ZplDGIZQ9jGMMIMIs1a7MBr6Pvuwdo4C7k+E9YrD82GDZfGbLoDVa7LRq7NcgegDe9ndMsctKoXsfprkELBjK0NOSC9kMR2gQpJRIJ6z2SrKVg4YvF4j6qnwS1Bwa1ByVf9Ft/u1HghOMrekEHQsLCTltJUnZMmSmcBGruq+tRWJCWayX/1GzwasPiKX3B7AO4KCO7v0nnGN8rL/WGOajr98T2jRFwWd4ykjD3zvvPCQbeYOtg1iNM5GNu/gLV+ZqyJK5gzYqaAKi/NRK7NxFoznei6a4iU30a0Yj52z/GkPlMiFcB4bJcwNZormNtMyYIRi2/0mtwWNLk5KPhyUDLHZ/JUR4QX/aMcHIkm1c/V+LKrq2OAxlkm3ad6nzYhKddsnu03mRuwmOOHryhP9QkeUFD9IQfqEc1kSO3pOEBdPCqp+IRkAqDeQKbMuUP6oXcd4ugj2JuuReQr71TeqCDOdM1p5pmwNh2RPx1t3TWEy28nWvFL7O59YA4nKuR5pLP6FQ+YnQHIaeYWLBqxeaLX5I5um3/ulnwxCHf6beZ1RFjiC3FgOMqA5QaCnpLL/5ZAveUNT6r5d9g2myMmv3KgCu72wx1+N+P7uzSe8Y/wcl+Y45rOsLCRSdsFCQ/1iuGdJWZWbjQXcf8JYcN/IrZ8wmnGIj8Due5SULZ+BnK96jezYV2G09SNtVcyuvk2Iieew+zZjzQH4xV1cvBiTq/Jx8K9TqeZSxaGBE/02twZFNysYHbD7X7J3C6DRf4Ibwxp9CcvhiQpuTbe9QmBqoIkmqB7Re1Yt9uW66kDNt8ICu7yS6f5f8VncW/XKN/1DbO0b4SKiMagUO86jZdKPeGv7jK2l5dE2l2InnzMA1/DXP8e7PxMRKx/RNna6ci1CmYmMj8Tc9370Mq+iFb5S6ze/Uhr2MnBfUBq1mYjkoHGIiQfsNO0WRiyeKLP4o6g4Evd8GU16Ppt5naZPBfU2TFs0G26K/Re6cfXZrzOAnQsdW+IVAshbQLKopJnByzmBm3mBCW3+wV3+A3u84X4rm/Qgar61F4h3JVHL2EnwUQOSQt97hJf+Ahm7X8SLfsE+upMLAV03aXIdTNh7UzIn45ck4lck42Z/z600n8ieuwnWN17wHTfB014vNptUEA973RnQF3AblOSGzJ5os/kzm6LL3VLbumGOX6bxzujPB/QeH3EpNOUSXHmOCZK8ToldAbQZJhjOMT+dqZlAso1wbODNo9129zpF9wSsLk1EOWrvjDf9Q/zUl+IQxEFNWn0j+czNlW3z+1DqjXPvV9DX/dejFXpWPlZ2KrZr53hwCQ/G7E6G331e4kUfZ7okR9hBXYgzYEx6Tmv0kjhmFpfUP6g4msFc6cpyAuZzOsznD4zAdPiiU6N+b4IW4eidJgisfiTxOatdAZQ78YzgSakOvR2NVBFBb8ctHk0aHN7wOJLAZNbgib3+DT+b9cwv+sLczhinAF1fHpOQ4zUYdc/h1nySayVauRWHpqNtXYGtmrqCq4azddcRXjjF4gc/Hcs3zYwes9I0+lG1MqXmsklwdxtCnJDBvP69Jhnwq3dcHfAZl6nxgJfmG0DUboMO77482YcJtLYsCmm5BvHJhYLh6Q7Z293PFXyiwGbB4MGt/l1vhS0uDVgca9P4xlfmKV9EQ5rJn0ieeNhnKwBhK8U6425mOuuxl6ZhlDemD8dkX+pc2yr0Tx/FsNFX2TkwI/QO7cio+6/2XTKl1RQb1BS+angyYFpSZaMmDzZozEnqHNLt+C2IHzVL5jXFWWBP8z2QY0u3XrzZv4WmhDoRBoPVEk1iTYbSjTJTwcMvh7QuDVg8KWg4DYHqs73/BGW9qsZlUW/N/cfIwtGG7CrF2AVfw579WWIVRlI1V+uzobVWYhVWURXX8HIppsYPvgjtM5tiKjyzFipxrmR14+GYqHRLkvyQsjm6V6duwNRvhx0A/e7fTbf7DR4zhdhy2CUTsPCSppOJvr3c9c5A3XlzTvcEVOZmgOrgaokYvGz/igPBXVuD9iOB9weENzrM3nGp/FaX4QazWB0zPxXrQP2IrrLMPc+hrXmKsQqNfBkO8aqLMTyDKIrLme44DOM7P9/RLu2IrwXHTyNA6o+lHcGpWSvYbE4ZPJUn8VXu93A/dagyd0+g3kdUZ73a5QN6rTqdnwrRyk5vvxD9AcB9Z5YIsJUUnGd5LRtx6AaPBg0uSOgZhtwq1/wQKfOzzqH2do/Qr+V7KMaQqvEapiPUfY57OXZyFVqFM9Crs5CrsxCWzaTwbWfZHD3M0TayxCGghmr5jiQcYuVsV0ICsIa3++LcHfQ5MvdwnnQ9/gN5rWPsqBrlC2DBq2GcKagnlTq3iL5BQeqCupm5JXexexAFZLiiM1P+y0e8lvc5hfc6rN5oD3KzzuG2N4/4sw4XClX6kZ0F2DufxRz/bXI5RmwOgPWZGCvyiS68j0M5X+C/u3fIdxSjKUFxxZoPMgkoOrDJwQl4Sg/7NW4M2DyzwEV4lnODCinK8Su/gg+Q3nmWHldxljHOTf9QUA9fG5T8I68/Xd3oGq1oWjU5r96TR73mTzWqfPDzlFW945SH9HR4vPhKGjViPrnsEpvwl51OaxUfWYmYnUG+up3M7L+Uwzs/A4jDZsww/4/uHrDUnLCsHh5xOSpHouv+U3mdkaY7wuxcyDi7FyqSGC8vHqeeeWt9QcB9bJyN4q9DsAN0D2pPrXZkmwO27zQo6ZvGmv7IlRHTEaE+xiclOxu7MAmrH1zsddeh1wxA1bPcPpQY+VMwuuvZ3jntwk3bcII+9wA/RyUDEN5mRoIDxmSpUM2PwtGWBQI8fpgBF90Yph/qv4IoF6RJwAau6zWF7ssOB6yODRk0KSZhGJbta4s5Gg1xsln0Us+F/POS7FXziS64gpC+R9jZPs3iTSuwwp3esPgOXmM9zvvt6oN9Umo1gW7RjQOjmh06mbiberYIHZuj+ut9QcC9ZSA6k0fneLFaqIevIrlIpZk1JRO4RPvqqq4Ro3sRUT3PEw0/yqsVdOxV16KtuIKhvI/ztCWJ4jUrcYOqa2yiRcmJlQSzWSoylNVdDFkW4zYNqYT+o2F+cc28fH6I4EqJYp8ZmFiy3dJBU+4QBQZqcI+tQCj9HOYK7KxVmSgLZ/B4Kp/oK/8UUInV2ANtoA461RgYk0ENP5XMrZEaZOvnA+dF6Bjixj7xvkfwdz3Kb2VHucv9eJWcCPm/sew11+L/VoqxrJshlfNpq/sAYarf48x2Ii01RvDEyZ+diX9Pn6bc5A0IUmamIy75bzoTwD6ZlLPW3mXmkspqF5xI6BVYdf/CrPkRsSKGVivZRBZeS3DZfcQqv4txmAtIvZ/Kjm3xR/GX4YuMNDYZrcnO4AMbsTe/wj2miuxX80kuuJqQiVzGK1a4rxQK6X7D18dR4ovCieSeLvrAgIdP3EzkJEK7JO/wC75DPbyy9GXX0O45B5GKxZj9lfG3tZMtNLEKntSMm9zXSCgSkkwHTj9iJ5NmHsfwlw9G33lhxjdNIfw8SWYvRXI2H/uF781uXP7X6CKQTIFAyInsevnYxTdRGTZbMJFc4gcy0XvOYG0k171ngji/wL1gCpXM0AEEOrt4t3fJLL2RkIFtxI+8jxm9+Gxnjke5F+gLhjQxMDUD5HD6FW/ZKTwToYL5jB68JeYwYPOplpcE3nmX6AuMFD1f4m0YXWtZXjnk/QV3MvIvl9g+vfD2WD+L9CzyfVQO9JAuO4Verd/j/69/4XesRNpJDbV4rOpvxJdQKCKkoUVbmOkoZjBquWMtu/E1tzV9r8ihmN0AYEq2c5LYlpvI9H+Rmy9z3mT46+gZZ9VFw6oQ00ghYkwowhbvdBz7stwf6m6wEDHovtrBunpAgNNGnv+hwD9/41BEktEUBjFAAAAAElFTkSuQmCC;fontStyle=1" parent="1" vertex="1">
          <mxGeometry x="887" y="-630" width="84" height="77" as="geometry" />
        </mxCell>
        <mxCell id="NeXbTHolgeKM8Cqgu51a-27" style="edgeStyle=orthogonalEdgeStyle;rounded=0;orthogonalLoop=1;jettySize=auto;html=1;" parent="1" edge="1">
          <mxGeometry relative="1" as="geometry">
            <mxPoint x="70" y="-820" as="targetPoint" />
            <mxPoint x="400" y="-704" as="sourcePoint" />
          </mxGeometry>
        </mxCell>
        <mxCell id="NeXbTHolgeKM8Cqgu51a-29" value="8.&lt;div&gt;Consume Odd Numbers&lt;br&gt;And&lt;br&gt;Display them&lt;div&gt;&lt;br&gt;&lt;/div&gt;&lt;/div&gt;" style="edgeLabel;html=1;align=center;verticalAlign=middle;resizable=0;points=[];" parent="NeXbTHolgeKM8Cqgu51a-27" vertex="1" connectable="0">
          <mxGeometry x="-0.3846" y="1" relative="1" as="geometry">
            <mxPoint as="offset" />
          </mxGeometry>
        </mxCell>
        <mxCell id="NeXbTHolgeKM8Cqgu51a-14" value="" style="shape=image;verticalLabelPosition=bottom;labelBackgroundColor=default;verticalAlign=top;aspect=fixed;imageAspect=0;image=data:image/png,iVBORw0KGgoAAAANSUhEUgAAANgAAABbCAYAAAARBEubAAAAAXNSR0IArs4c6QAAAARnQU1BAACxjwv8YQUAAAAJcEhZcwAAFxEAABcRAcom8z8AAFg7SURBVHhe7b0HeFNXvvabe7/n3u+ec74zZ3pJJlMyM5lkMmmEVBJa6JjeSUJCrwESQmjGhWYw1XTcC5jeMdj0jgF3jKss27JkWZZtddmSZf/us/aWbNkYQtpM5hy/et5H0t5rr73W2utd/9X3E7SjHe343vBE6wP/UDS6+VB8pYN2tOMHjX+IwDwyaSGVx9LNA1e1ox3/UvheBeYtrCapNLaLph3/c/C9C+xRaGgEp6uBWqcLm8OFtd6Frb4Bu6sRR+NXX9+OdvzQ8T0KrKWlagDqGxslAVXbG9AYGyjSOcnR2MlUWUgtNXNXZSZVbSWjvJYcnQNVjZMaWwO2+kacjbIfLf1vRzt+2PiOBdZcGRSfBhqpB6yNoLU3kKtzcLOollNZVuKTTYRdqmbrWR0bE8tZd6ac4MRy1p6tYMP5SrZdqiL2Rg2n0s3cVNrJ0zvR1TVid4u1SV7tNc52/IDxvQnMBZgbGim1OrlbbudUjpnIG0aCzxhZdNjAp/F6pkTpmBShZUJEOR+7OS6ygo+jK5gUU8Gs3ToWHawkOLGKyJtGzuRbydDVobbVY3EJCbejHT9sfLcCc+d4J1BdD1lVTo7eN7LpUgWLjpQzc7eOCdE1fBRhZGy4kTFhJsaGm/ggwszYCDNjIsyMjhQ0MSbSyNhIAx9GVDEhSsesPTqWHq9kx7UqTt43ka2rxSgaau1oxw8Y34HAmq2WgLBcWnsj10sdhN40svC4lglxZYyJKGdEmJ4RYSZGhlkYFS5oY0yknQ+iaiWOjaxldJSdMZE2RkdZGRVlYXi4gRGhVYwOrebjKD2z4nX4H9MQfV3HXaUFg13csR3t+GHiOxQY1AEqawNJBbWsP29k2m4dI8O1DA3XMSyimhGRRkZHWRgbZWVspJUxkRaJ0v8o8V+mOCf+j462MDLaxKgoE2MjLXwQaZEs2idhaubtLmX7OS3XC8zoLa5WHSDtaMcPA99cYK06FxxAkbWBY7k2AhOqmBSjY/guPUNCaxgSYWRYpJEREUZGRZoZ00STVB2U6akeemhhVJSZkVFGucoYYWVshIUxEQbGhOn5KEzDjGgV6xLKuZBjQmd1ScERQmvRCdKOdvwT8Z0ITHyV2Ro4mmdj6Wk9H0VqGLajnGG79IwINzEy0syICDMjw02MijAyOsLA6EiZoyINjIwwMDLSKIlplEQToyJNTf9lgYk2mtw2GyOuCatmxC4d4yPUBCVUcLHAQqXdJbX/Wmm/He34p+HbCcxtLfR1jZwttON3qpIPI9UM26lmxK5yRoVVMia8htHhRkaFm2UKKxZRw8jWFKKJkkXm4ShRpXTTI6wxkTUSxbnhEUaG7tIzPqqcNUkVXFFaqK4XgwPtAmvHDwPfQGAts6+xAW6qall7toqPw8sYvFUlCWxkaDmjQysYHVYlWaxREcJ6mRgZYZQs1ojWjHyQwt0oNyWrF1HD6IhqiaMihSiNDA0TIqtiQoyGbVcrydLVYne1t8ja8cPANxSYnIFFp0au2UVosokpseUM2apm0DYNw3eVMzJUy8jQCkaGVTEy3MAoUT0U1UVJYKI9JoRVI3H4A3xQYFI1UrJ21YyM0EsUllBUPQeFmRm0U8ec/eUcTKtGbRYtwna045+PbygweZC33NHAKYWdhSerGL5Ly8AdFVJGH7JLx7BQHcPDKhku2kphNYwMM0ocIbrdIwwMD69heHi1xGEPUBaZLCoDI8NrGCGxmhHhVYwIF207wWqGR5gYFGFhwC4jY8K1rDyl4XaphTqvOmJ7lbEd/yx8tcAekjtrgVS9g41Xa/gkTovPjnJ8dukYuKuSQbv0DA4VPYhVDAmtZmhoNcNDDRKHhdXIIgqrYmiooJ4hYVUMDqt2s4oh4dUMlQQohGhguLhGonzdsDC9xKGSWwODIswMCDMzYJuWGbHFHEzVo7U45In70ticPLPE07vYFtvRju8DXy0wN6Q5hQ2NVNa5KLU4yapxEp9hZu7BcoaFqum/UwisQhLZgF16BoZWMSi0WuLgXdUMEQwVFKLTS8IaLIS4q4qBu6oZEFqDT2gNA8OqGBQuBCfEV8PQUIP0PWSXYPP1gkLEg0KrGBhmYEComb7bKvggVMnGJBXppSZppr6AGCWr9xKZN78vgX1X/n5df76u26/r/z8T/yrh9MZDBSYiIzKkvREMLlDZG0irrCOp0MTe9Bp23KxhyQm513DgTjX9d5XTf5eW/kJkoZUMCNPLYhFCk0QkU1i3QbsqGSws3U7BKgburGLArip8dsnfAyXh6Bmyq4ohO6sZvLNKcie5FeLdVemmnoE79QzYWY3PLiN9t1cxfGcpi/YXkZRZgblOdNqLuAiJiY+YgPz9C0z419r/b3Kfr3Pt47oT8LhrnQ6t8XX8/EfAE44fSngeBw8VmEh0I1BoauBySS3xqUbWX6xk0TENM/dqmBhbwejwCgbuLJesVz+3wPrtqqBfqI7+oZX4hAoxCAFUMWCHmzsr8dlZwYCdFQzcXsGgbeUM3a5hRGg5w8O0DNopqpsVkoAGC2slRLlDz0BBIaZdlV6swmenYI0ksH47DAzeoWFaZD57rpWiM4mKrHgcsv0S8motsm+Tgbyv+7qZtjUedvwBiHpv06LVZj7e1OfmVQ5thtXbyx8wfuDBawG3wFpmB1EdLK9t4KbGQVyahcDTeqbvLmNMaAmDt5bgs0VNvy06+m7T03eHjj47K+i7U0u/nVr67qqgzy4d/SRW0n+nHp8dVfhsq8JnexX9hPvtWvpsV+OzpYQxO5TMjivF74SWhcd1TIhVM3iHmv7btZIYJSu3XcfA7ToGbK/EZ0cz+++sop/EavrtrKGvENp2LR/syGVbUhHFlVZ33ESM5JaYbMm+vcA8GbT1f2+/Gl31NDjqwOkZ/n44vDO85LIBGhxOnFYrDosVl8PdMyoJzDsGMsXCoHqHlTqTEafFQoNTxLklZHHJRYz0q1EeM/Ry0Ox/o7tCLdz8Q1ehP5AS4Gqg3m6nzmzBaa+l4V9oGOYJOTHlDCgiJLJCqbWBhDwbK89WM2VPOcN2qhiwpZj+m0vov0VFv61a+mytpPe2Knpvr6T39gqJfXZU0HuHjl5CRDvEfx19t1fSb1sl/bcK6qV2Uq+tGnpvLWbotnzm7Skg8ko55/KtHL9vJficjvHRpfhsVdF3Wzk+2yukzgufrVp8tlXQf5tO8k9Q+N1Hol5ib/G9RcPgkBxWHVOQpbLgkjKKiJ9MT/nd6hF+7fwjrpVSzCvvNXnhqMNZqcNSkI/hXhbmnBwcZWU0WizujPsgxLUihCL9paztasBaqkFzPZmSK9cwlJQ0SdpTRHiEIl3R6MCoLKAo6SyqG7ewVeppbPBkRG/L5QKXE0d1FWZlMZbiUuoNBnFDt0vZv8Y6G44qPVaNBntNDQ0uj2C9hd0y0R4qQ/cJz3lvtnTmCaUoDMX93PeorUOXlU3BuYto7+dKImu+5kF/PGh9r0e59UZb7lr70fr8w/CEeDA0yo9VrP7IN9QTn2nmy+OVDAstp0eImq4by+gZoqLv1jL6b9fQX4hneyW9tuvpta2SXtsq6Cm4XWaP7RX02q6l9zatdK7P1gr6btVJ7LOlnF6blAzams/sPQVEX9eQrjJRYXWiNDq5oLAQfFbHuMhS+oaU0mtTGX03q+m/RVBD381aem+ukNhri05iT4kVMkU4191n4d5CruabsNY3ZzLvjOFdVWo6/TXQ5JN3ate7sBcVU3b8FFkbQ7jpt5SrixdxY9FiUleupnDvfky5OeBsziAeCC/EUxALSqXizulEd/UWt1es5aJvIMqLF9xn5E4b2RZ57LELGuyUnk/kzGdfcHXNOnTZ95utXlMLVNzFBUYDFecucmdFMLf8V1FyMgFHdaXbbzmdajVqSpOSSIuKofDSZZx2mzucnpRrKbCWqds2vaXZ2q0cC+/WcnOhj9FIVkwcx+bOI2XfAazVNU33be1PW+FpzdZoHc622FaYHweywKjH0eiioNpJTIqRafu19N2uoVuIlm6bK3hfZNytWnoL0UisoLckKh09twpW0GNrBe9vE9Ty/rZyemwrp+dWmb22aiU3vTZr6LOpmGFb8pizu4DIa1rSy2xUWeqw1dVistdSZnZwUWFlTZKODyOEwJT03FhM75BS+m0uo09IOb1CtPSUKARVQQ/BzVp6bC6nxyYVvdflMSWykMjrlaSW2Si3ODHX1eNwiUfY8jF8ncTyRuvrGm0OrFm55G8J5fL4KSQMG8mpsaM59dGHnBw5iuP9B3NmzEekrd+APiMFV52cYb0hHp5HEo2uBjTHTnPug0kcHDyC7H3xTWfrpQzofX/xq5aCfXuI7dmPoxOnUXrjJvW1spBlMXospwuXqoz8dVs4+Op7RP3+71yePht98g1crtomV8asbFJWBXPww4+5umUrtSZD090eF1+Vrq0zcUv34p87O1fpuRm4jJ1du3Jh/TpMerkwaI2WT7a1fw+i7ft+t3hCPC5RcVIa69lzt4bpe9X02qrmvY3ldA3R0X1zBT226OixtZIe2yvpsa1SElavrTKF1eixRetmOe9v1dBdUPyWKI4LkQrLVcyQTTl8HptLrBBXqR29pQGb3YndZsNmtWC22VGbHFxQ2Fh1TsfoMCU91xfSfUMxvULU9A7R0iukQmLPEB09QnS87w5n981a3g9R03ODkiFbFUzfrWTF6TKibuo4nW0go8xGhaVe2t+jGXKZ3PrzdWHNLSZ79WbO9BvKqYGDue2/lKKD8ZSeOIpy7z5SfAM5NXAo+3v15trKZRgLc1t7IaHp3s4GKo6c4vLIjznqM5icPXFSNVBAtlqya7mUrxcKpyg+jj3de3Hs40mUXrvuJTDZ6sh/6nEWFFLov5oTv3+ZmP/7ZyS825OcrdswqYqaYm64m87dL33Z18eHS6uCqDVUuc+0LMubM6hXVv2qnPuw401o5UCvI3mpL6HvvMWl4FWYKytanvfGw+7b6pgIvWfYpk205c8Dx7wi+pA4S50cGlsDR7KtzD2goffmYjpv0tBVWAUhHmEVNmvpvkVH962VvC8oBOeukkmWY0s5PbZoeH+Lmu5bBWWBdduio+vmSrpurqDbhlIGhuQzJzqXuMtl3Cu1UiPEZWvEYnFgNlsxm81YLCYsdXZKzU6Sim0sO6tlxE4FXdcV0WWDmvfdwvJYLvG/e0gFXTdrJXYL0dA9pIzum0roEaLAZ7uCD6KKmb1fJe35cShFT5rKit4uChYP5CqJKOXlilTrlP0K2OrQHDxNQp/hHHqnKykrAqlKvQlWo1wdtFgwpmWQtSqImDdeJ67P+xQcO4jTJjphZLgMNRiyMik+l0TJ1avok++iCY0heewEzgwfSd7+vc3tt4Z66qsqqUpPp/jcOUovn8eUfoeibVs50qsPZ6bOoOzmDS+BeT33hnoceQUoAoM59/dOnHnyBc690Y0L48ajPHOyKcuZ7qaT/uUSDvXtz9XVzQKzlZdRkZFKTWE+Lru1ye96q5Wq/Dy0mZmYNBpcDieu2jqsmnJMSgWW0mLMxcVok1MoPn0O9ZUb2FRlUFtLQ5WBmtRsSpMuojp/iZq8HFw2iyfEoNeTviyA+K7vcXPVCrSpKaiT76I8exnVpRsYC5U02MXEPS80NuIymjDm5VFy6TL5p89QfPkS1bnZOC2yNRapWSfCqNVhyC3EmKugJqeAosvXKbx8FWNxMY02K47KKipSMig4fZ680+cpup5MVamKeoenl/oRAjM3wqWSWhafqmTQDhVdNpZJ1cLuwupsLpfYfXM53SRqJSvRPaScbk3U0H2zzG6b1XTdIqiRMnuXzXo6b6qk60YNPpsKmRVdQMxlDdmlZowmJ7W2emyi+mauw2SxYbSYMVmMmG0maux2iu31nC6y4XdKy9CdpXRZX0rnjRq6bRKWSrDcHRZxr3I6S9TwnkQ1nTapJL67sZSuIcX4bCtkcoyC1WfKOJ1rpNjsxCE1okRSOxCLXYTMWrTNHgP1RWruL9/Avlc7cfbjT6hOvUljvVcGEXDVY0m5TcKYkYR3fJnrwSswlCqlJ9JgMFGRdI47y1eQMH0aZ7/4gpRlK8j89Asu9xtCwvAR5B8+KPvTCHUlZZQdPUGy/0oSps3h/LwvyVm7jpRpMznw1jskTZuGOvkG9XXutp53ZBpcOPILyQlcQ8Kb75PcewR3hn/C4S49ubl8OXWV5ZIzc3om6YsWc7Bff66sXU2dsVrKtKpz57m4bBnpMTHYtbJbAataw+3wCM6tDib/wgXsJjOOGiNl5y+StSuUzO3byA4L49aKlZyZMp1zMz4lNzQUw9Ur6E6eJnP1Ji7OmMeZyTO5s2Ejutu3cdlEi1TsP1FN9srlHHrnbS5Nm07a1h1cDFjJ6Zmfc3bWF6Rs2oruTioNtc1zUOv1esovXiJ18xbOLlzCibmfk/jlAm5v3IDm6mWcVhMNjY3YDSY0l2+QtmE7qUEbSd2wlWNfLOLksuUUJp6RCr2SU2e4umItR2fO5/CcRZwIXE1W0jlsRq9qs7fAvNL7iUyzi+23DQyPKKPzBpVsvdzWQGRaKeOGaCR2cbPzJjXvedN9/l3BzWre3Sx+a3l3k47O69X03aBgRrSC8MtaMkosmMxOnDYHDmsdVnMdZkstRosdgyjpLUaJJrsVg8NFkamBk7l2fE/pGLSjmPfWKXl3napZ4JvLJQvZebPWLSwNndx8J0TDW5vKeX2jho4b1byxUUWXECWDdxTyxZFS9qZXU2R0uhv2oqIsfnus2FfA7aCxoRHjzVRuTptH/GvvcMPPF0e1xttJExr05dxa9AW733qNs5/PQpudjstmRX/xKldnfsb+foM48fF4rixazKXpszjdrS/7//YqxwYPofDkCdkTcy0l8UdJGjeFIz4jOD1xOlfnL+TGjE859ta7RD3zZ5ImT6L8zk1cYohAwDsgrgaceQoylq7g4Ls9SZuzmPzlGzjcvT8nRo6l7Gwi9XYL1pxs0hYv5kD//lxeF4zDVAP19eSFRbK7zwDOL1yCRSkKCBnGvEJOff4FMaPGciduN5aqaqnkL4qO48yosRzs8T6Jn3zE9YWfc37aJI707klC315cnziey9OmcfnTz7g28wuODxzJ4QFDubVyDZX37rs9N5G/ejWHX3qZfW++y8mJ00mct5BLcxdwcugY9vb24UrAcvTZOTTU19Not1N+4RIXvljA0XHjubDEjxvB6zg370uOf/AJlxf7obp+HafdTr3RQsmeQ5weNJoDb3cjYewnHJ01m0ubNlJw7ChZYWGcm/sFJ6bMIunLAM6t2khC0AZSTyZgrfFUmx8hsNg8M58lVNBlSwlvbyjjvc3lvLu5nE6by3lHopxRBTu5+c4mdStqeHuThrdCNLwdopb41qYyOq1V0ndDPjOiCiVxpZRaqTY7cNjqcFrs1JptWM21LQRmsJoxWEyYLBYsFicmOyhrGjmZY2XJCQ2DtxXyXrCC99aLwkBYrAre21whhVmIu1OImk7iu0lo5by9uZy3tlbw5lYdr28u5/X1JXTfrGD6/lL2pFVRbKyTLJdcVZQ7QlqL4wF4BCY6I05f4PyHU9jXuQd3N63FYdG5Wz0tu+RdRj0Za1dwuEdnkqZNRHPnBvbiIjICgzjQuTfHPhhPZkQUqnMXyA6PJmnYB8T99WUODRpM4enTYpdWnLkl3J7jS/xb3UmaNIP8/fspO5NAzpbNHO/Ri4jfPUPSJ+OpuH2LhqaxM+9ANFCfp+Du4gBi332fOyvWUXHiPNdmL+BQ937cWuKHpSCP2px7pPr6ss/Hh0vr1+IQnRwOBzkbtxDV8V2SZszFXFjY5K0hO5djE6cS0bsfyaHhmPVV1Ov0FG0L5WinLsS9/BJXP59B0bF9KA/GcGPaRA4+/yx7n/srCWNHkx0ZSdnxBNICVnGklw+HB48i++ARKbyYzeQHBXHohReJf+MdLi72J/fwMcrOnCXVfyXxnboS32cAmbv3Yq+uwapQkroimMP9BktpVHL0JKbUTIriDnB+4mwO9h3OjaCNWFTlUoFVHBrLgdfeJeavL3J17jyyDxxAnXIX3a1bXJw3n7guPTg/Yy7FR0+jy8ql6G4a6tw86kQ1trWwWgtsXpKGYbvLeCOklNc3lfH2Zg1vbdbw5uZy3tys4Y0QNW9sUvOmENCmct7apOFN9/8mhgh3Gl4XbkPKeHNTCZ02KuizMZsZ0blEXtWSVmZDZ3Fgt9dSZ5EHT4XAbGY7Fosds9WGyWrFaLNgFJ0dFnHOSa21EZO1kWKDi5O5FpaeUDN0h4Iu65V0Wq/m7U0VvL1Jy9ubxG+VxHdCynhHCN1TAAhLJuKzpYLXN+vosEnLK+vL6BJSxNR4BQfSdKgtTne6yCn0+AJzoTp5lsTRE9nbvQ8p20Kot+rdTlo2oV0mPZnrgzjSqxtJUyeivXqJ6uvXpd7F/T37kxUWjVlVJg2q1mr15IXs4kRPHw4NHUb+6QQaTDb0iVe5MGIix/sNpTA+HqelhnqbgVrlfTICl7K3Q0eSxn2C9uYNXHVtWLCGRlz5RdxZHEhEp+5cD9qA9V4h6gMnOTPkA04NGEHZ4aOYr18lZakvewcP4uKGtdSZDdKAeW7IduLe7sr5Tz/HomgWmDE7jxOTpxPVbwC3wyOxVFVRr9Wh3BrGqZ79OT1yJOVJx3FaTDh1JahjIkjs2pX4l14hJXgN9soK6q02DFevc2P6p+zu2pPrG7fSaHdIAstesZyDr7/BhanTKLt2HYfFIlUhq67c4NqUT9nz7vuc811OTZ6C8nNXODdmAok9B3LPdzmGKzepyylEn3CRdN817O8ykBMTZ1OVkQsGG8pd0ex9qwtHfIagPpOEw1AjWX9HeTnXlvix993u3Jg1j4ozF3BUVOGw2ah3OKTCtbnPp+122BODogrpurOY10LKeG2TEIiHsrheF8c2aSS+ualcEpQQnOeY4OshGjpKLOP1TSW8vbGAPltzmB2fT1xyOVkVtVQ7xa6+9dSJgNvtOKw2as1W7GYrVosNi9WK2WrBaLdistmw2uqw213U2RuprW3E4oQSSwOJhVYCErUMCS2h0wYVHdeV88aGct7YWMYbG0slvrlJxZubynhzo6CwpmreDBEs543NFbwWouOlDVpeCi6h8/oc5h0o5GxOFQa7PHdRxldIzHPa5UKdcJ5zY6cS360vd7ZsxmmVx2k8Vc0mp4ZK0lav4MD7XUmcPoXySxcoS0ggvv8A9g8bSdn1G+7qqozy42c4/8HHHBo1irwzp6nT11AYe4hTA0Zz9pNJ6O7cbHIrJrYVx4ZyuFt3ksZPoPzGdVzuTo4HBFag5M6S5US8050ry4Op11bhKC7nzsLlHO4qrFgAysho7i5Zwr4Rwzm/YR21boHlbNtJTOf3OfvZF5gVhU1eG+7ncWzaLCIHDOZ2RLRURXRqKlBsC+f0sI+4/OUiLMp8dxjsGM8mcmnEWPZ37UnevgNNwXMplaQv9Sfinc6cXxZEg9kuCSxj+TL2dXmPW2uCMOuaexEdKg05wSHEd+vH0amz0SWnUrb/GKe69edEh05cHvsJtwNWkhK8gVuLA0kcN5Vdb7/P/kmzqEjPhiojirAY9vT0IWH251hFx0uT504UB45w9uMpnBo6lgufzicrcg8Vd9Jx1pibuyBFIjxMYJ1CcnkzpIiOISpe2yREVsbrG9Ut+MZGjUTRlpH/q+m4SdPE1zZp6CC+N5bx2gYFnTbkMDw0l+DzGi6V2Mg1iLZUPYqaOoqrbZTX2DAYRfVQCMyCzSJEZsFitUhtL6O9Fr3FQVmNE2Wlk6JKJ0p9PUqDi1S9i8h0C5P2a+m8qYxXgtW8tl7DaxtUvLahhNc2ltJxo4qOG8vcVMvc5KEIbzmvbtLy0noNL68upH9INqtPFJBVZpDSqTnVHgHP6YYGqq7c4urEucS90Z0bK9bgNHoE1tIXV3kZN+fPZ3endzn/5Xwq79yi+MRxYvv158CHH1GefhenNNwsX61LOMPlCZM4PHoMeYlnsOn0ZIbFcWzgCC7OnIkuM8XtVvSHGlHti+JYr16cnTgJzSMEVl9QzN0lq4h8pwdXAoJwVZsQYxeqo4mc/Wgax4d+QPK0OaTOms2hESM4v2kDtWaj1FFzf9suooTAPp/fog1mKlRwfOYcIgYMJTkiGrNog6m1FGyN4PTYKVwOCMJQUiw7rjVSnZTEpY8mcbD/UHIPy+1LkV4OhYJUf392vfMuSQEraRBtBJOFzOXLONCjG3e2hmAx1TTlbYdWR8H2cOJ7D+bgpBlUXL1FWex+Tr3bkxOvvcPZUR9w9vMvODd/AWdnz+X07DkcmfM51yKjMKjKaKyoJD80mtiBI0jwDZSqtp6wSEFVl6M4eJwLny3myLBxHB89iQufLyX/8Gls2prm2TJNU8xavlThidfW3ue19QW8trGYDhtVdBAZdX1ZC3Z00/v/axvK6LChjFclqnllg5pXN6josE7BOxvzGBZRhH+ijug0C3uzLMSlG4lNMxCfoiPpXiU5pSaqDDbsVqtEITCr1YrFbkdvc3C/oo4z983S2Nyeuwb23jVwKN3E3kwrG66bmXBAz3tb1LwcLN9fhLvDhhJe3VBChw2lUtg6SMe96QmzCKuGlwXXqngr6D4TQjM4mqKhptZrDp93idRab57/jWDLzuPul4FEv9SJC9M+w5Zf0MqxbOlsd1I4N/ZjYjt14c6WEGwlClQJp9jbtz+HR41Bc+sqrnp3172zjopDh7ky9kOOjRhNwelE7PpqcmL2cmLQCC5MEhbshtvzBqiroTRyFye6dOPc+ImUS1XEhwgsv5S7i4OIfLsXVwJW46iSe8PsxWrubdzF0R5DOfd2D1IHDef4gIFc2hyC3WqWMk/+znB2d+7J+dnzsHjF05STR8LkWcT0ky2YuboKh7qCwi2RnBkzlcv+QRg8grQbqD5zhksfTeSAzzByDp9oSmJHYSGpfn7sersTZwOFwGrBaOX+smUc79KZ1HVrsFZqm+5bW6Iie/UG9vToz9FPP5d6E0vj9nOqRz8uDh5O3tatlN+8TkXqHTQ3rqJJvoEmLYUatdzN7tKUk7szkugBIznpu6xJYFLdQ4jF5cJRbaQqLRtl/FGuzlpEbJf+nJg2j9Lrd3F6Dw+IYRRJZM2Hnuiw5h4d1ubRYUMRr24o5dX1pXRYp6LD2ma+6uYrbkq/16t4eb2Kl9wUv19ZV8rL65S8tqGIrttKGBZdzri9Oj6K1zJmt5YxcWo+is7H90g+x1LKKam0SuMQtaJKKCyZ1YbVXisNNJ8psLLklIax0Uo+iC1lXKxK2sB0wp5yxsbp6Buqk6qrL68TglHJYXcL7JX1pVIb65X16lYUx8p4tYluoa3Ko/e6VNacKiBbY8LVVCo9hsCEdqprKAyLYe/bvTjUuR+FO8KxFyrA6ZAekBgns2Tmkh8UwoF3unNg8DCU507TYLdQeeUKJwaN5GD3vuRFROBUF0tzGWvzC8gNWMHpt7tw0mcoRQmJ1JutaM+cI3HYGI736U+RGHw2GaUqlCUjhdQ5c9n//Euc++hjtLce0ovoEdii1US+KQS2BrtOL5fY9S4qr9/m4gfTSPj9S1z6y8sc69SZG1u3UGuXha+MiWdf596cHvUJuvOXwWiWqlnagyc41mMQsZ16cicsCkuNbMEKN0dwZuQkLi1ZgaHI3Waz11CdcJpLY8ezv+9g7h881pTEzoIC0nyXEvpmJ84GrMQlLJjRSsGy5Zx8pQOXxo1Hff4iDTVGqKun6tI1Ln48idgu3bmwOhhDUTHqxPOcHvUhpwYNJS90J416IUjxKh8r2Ey4LAZcLpE2jTSoNeTuCCem3zBOLQrAUumeJSLGGk0GbBo1Dn010jzCajvFEfuIfqcnUb2HcO/wKewi/h60JbBXV2fx6po8Xl2n5GUhkLWlvCIY3MyX2uCLax/kS+tKeXG9oIq/i99rVby4toy/B5fxQrCGv60p4cUV9xiyNZ0t54rIUZtxOlw4bLVYTRbsFrntVWRwEJ1pZEh0Mc+uzOO51UW8sKaIl1YreWlNCS8Fq3gpWM1L69SSwGRBCWG5ua6UV9YJwZc9gipeFeJcr+bFIAXvrM5iRsw9EtI1WOrcVsxj7luLSzrn/aeBmjspXJuzkEPv9iZp5Efc37QN7fmLaK/coOz0RTJWbSFx8DgO9h7E9TWrMZXKmc2Sm0PyF74c6dKfixOmo4iOo/LiFfJ3RXN55DgO/K0Dx/oNovBEAjjrqcvL59Zn89nfqStXZnxKyaHDlCWcISdkK6d79yfmT3/lrGiD3br+CAumInnRGna92ZtLAcHYKiqbBt3rKnTkhuzizKtd2Pt/fk38ix24s30bjlpZYNpzFzg9ahyH3vcheekKSo8kUHUkkezZvhx49g3i3ujG7dBIzDXV1Km15G0J5/jIiZzzXUGNski+id1E5ekkksZOYHffwdw7eLQpmcUYXYqvPzvflKuILrMNTGYKgtZw9IVXOPJWV5J9V6A8fJKKxEuk+gexr1tPDot26qkT1JlNGAsLpfG2fT4DSZw6DdWRw5hS72K4fZPyyxcpvHQedUEuzjo7jdoKcnaEE913KCcX+WP1TMNyObCXlVJ0KoH7e/ajvXgTY1oOeaFxxPsMY/+HE8lPukCt2Wu8UxJXK4G9suoeL6/Olxr8fw8ulfjimpb8ext8oQ2Ka19Yp+Jva8t4LriMZ9eo+fNqDX8K0vLMah1/WKXhz4F59N6YSXCCgqxSC866RmlMzG6yUmuxYrHVkm9wsDPdTO+IMp5aXsRvV6n4Q5CKP64q5U+ryvhLUBnPrVbzwhohXiFiWdwvrVPJXCvz5bVlD+c6lUQhtr+vLua1oByGbUkj/FIRFWaP2W/dino46o1GtOcvc3P+Uo70H8aRASM59clUTk35lOPjZnJo0DiOjZxA8toN0kyIBqc8F9FlqEJ97DSXJn/G/m6DODb0IxKnfUbCpDkkfjhFam8d/uhjck+ckEtIm5mi+HgSRo9j3/v9OThsDCcnz+T8rLmcHDaS/e/35OKXX6C+LaZKuQdqveECp0LDzeWb2dVrOJeCt0hVT4/AGuudGJLvcnX8TCKefo7otzqTEhlJvXvupFWhIGPDZg4PGkXs+z4cGzOBW9MXkDxyCsff7MWhgaO4ExOHqbqKWk0F2aExHBk/k8RV66hRqSQ/Gux2tOevcmrqHGJGfci9E6eaglenUHJnZTChvX04H7yBBrNVstC523dwtEc/jvceTOLH0zkxbjonxk7mQP9h7BsynDubN2FRKWgUlqfWgvryBc7O+4KDg4eT+PFkrnz2JZfmLeTMZ/OlQeSUpESsol1ZXU1OVBwxIz/k1PJVWN2TnsWUMntpMam7wjkxfS5Jny7g4hf+nJo8m/jR47gUvIGqvAJp3K0JbRTGT7y06j4vrirkhdUl/G1NqZvi96P5fFsMLuH5taU8v1bFc0Jka9U8t1bDs2u1/GVtJc+s0fLsCgV9N2UTfKqIrBIhMHDa6t0Cs2CxiU4RB9vTLfSOKufpVaX8LljNH9eq+VNwGX8Wwg0u46/BKp5bXcLzUrhLeGGtyoulEv++VvUIuq1usIoXVpfyclA+PdbeZc3JHJR6UVqLlHp8gQk0WCzobt0hdfNOLn2xhMSZn5P46XySZi/isl8QGXH70Ofm0lAvC1iq5zc4pYZ66bFEri8JImnGfM594cf14C1kRe8lPTKOm2FhlN69LauDRizKIvLjD3JlYQAnp8zm7AJfUneGkRUVJfVi3j+4l6rCnOYqojcawKUzkH/sLGdXh5B96ixOi9UdUzmuLqORoiMnuDh/CZcCV6G8ehWXeFCSOKzUZGaSviOUM7O/4MzMeaQuXy9VBTPWbObO1p0UXrmKzWzEYTBQcvEKN3dFkXY8Qer4EGh0OKnOzuduRBwXt2xHlZbWFDynrhLF8QQuBG/g3qkzkhgba22oLl7kzqYtZO0IJ3NrGBe/9Of0tM84/6UvKeFR6O9ngUtYbBGTBhw1lZScP8+dtRu5Mm8xFz9bILm94LeCqzvDyL9zm1q7BWwWqdv/ypbtpBw7Rq1FLDOWE8pZXY3y3EVuBIdwadEyLszz5aLfCpJDIyi7m4rL1mrCdlsC+/vK+7ywqlDKqM+tKeW5NSX8dXVxCz73mPzrmmL+GlziZmnT72eDVfw5uJw/rlbzl+X59N14j7UnFdwrMYuxS5w2F3aTTRKYWQispo7taRZ6Rar57Uolv1tTyh+DS/nTmhL+vKaYv6wp5lnB1UqJLe9bwnNuCsF7fremOPe34BLJ8j4fVMrfVxXQafUd/A5nkqMRjX75QT0OvEfNGpxO7LpKanLypXl35TfvoE/JxFxUSp3ZjKuxeTWXmDXiaUzXG82YCpRob6dRkZaFqViFTV+NsVyLvrgEa7VofMuz6BsaGnBUm6S5c9rkVHSZ97BqtdRW6zGUKDGWlVBnMdLoXuPV4sGL29XVYy7XUZGnwFSuo7FetB1E7dE9E7OxAbu+iurcfKryC7BVVTX7JcLgdGDXatFn3kN7JxVjQRF1FVWYStVUFymx6HS4nLU0OOuwVlZSqSymRlOO0yN4MV3LaKZaWYJOUYjNIIQnB7Kxrg6riHN+IcbychpcThoa6rHoK6kpLsZWoaO2vIKaezlU3Eml6n4u9soqGurlRa2elX6NjfW47DZsZRqq0jMpu3GLMvEssu5jKdNI80AbGutpqHdgrapGX6SkplyDq14MzrsTTAzKi2GkEjX6tCwqklOoys6Vnq94zq2Ttk2B/W3FfZ5fVSBZg7+uUfHX1SU8G1TMs0HKr8/VyubML1HJs2uK+MuaEv60Rs0fgsr487I8+m7IYt0pBfdKzdQ5wOElMDEGliMJzExPUUVcoeDp1cX8cU0xf1qt5M9u/sXNpt9rvj5lgZbwl1UlPLcynzdWJrNgfxqZqiqvLXK+GaTZjXUOnLV1LVYXCx/FOc98EY+MxTHxyGodTuqczqbj0rmGRklUYmWxfK38HIWvDmc9jvrm0TPZvUuaZ9eiDen18KVrhagbGmhwj98Iv4XAXO57eFZjCX/kFc0PQlzvcIj5m7KfIvxO4Y/oJHI3+IWfwp3oOPKsIZOWzzQ24Gxw4Wxw0uBZPe1OExEG6RoRHveGRXWN8mLgppCI8yKdvMImP62WuVwcq6uvx2q3S5McGkRh4nVOzEWtE5PkRLw9i/vaEIrLWS8/y1arqdtw2gJPPLf8Hs+uKuDZNaX8ZU0Zf1ldwp+DlN+If5FY1MzVMoUw/rhaxR9WlfLnwBz6bMhk7Sm5DSbmZ9ZJArO3EpiJnhGlPLWioE2Bid/fmkGCpVLb7s8r8+mw8hbz96eQodJ/I4FJiS0KPk9m8xKDJ9M27w7SfI04Lio3osUkvuUVejLlbCdTaEESlXvTV0HxW9AjPG9hNl3oTS9Be/stRCQJWGTkxsamMDws83jCIeLoCat3fD2Qwu0lH88/2YI3FzTeLjxx8YTRcy+P6D3+evvd+mmJc8K9SCORruLbW6Ce857086R100mv9PKEqSldmyCH92FpJPDE31Zm8WxQIc+sUfPMmjL+tLqYZ4KKHoNKN4V7QSV/WlXEn70ZVMSfgor4Y1ARfwgq5Q8ri/lzwH16r88g+JRCejezmDxRa3dhM9mpc7fB8iSBGekZUcKTy/P5bZCS30siFff13O/h/OND2NrdM0ElUueJ1ImysoAOq5JZcDCNexpRZXkwOb8S7tQWIvNc3SITt3527h/CjXj4ngz7YOZ3+ynaT17i9WRsOVPLlkGU+NLKYCGY1uFz+9dW2Dwn5QJCLgSapz23cCX98hQYHkHJd2+1Stzrfp4wNrv2/HvQf2/BeF/vLV7vq7zj431C/PcWkUecHg9a30fy29tDdxq2ONTkwYNH2sITHddm8fyaQn6/uozfi566ICV/WKV4JP8oUdmCfxDfK5U8s1LJn9x8Rjqn4PerFPxuVQm/W67kGb979FqXRvCpQjJUJuzOBux2MaveQp3VhNVmId9gZ0e6gZ7hxTy5LI+nVhbxdFARvw9S8IegYv4gCePh/P2q4jbp7eaP0ncpTweV8ZuVKp5enk/HoNv4H82ioMLklayPTsA24fWQH1K7aoZHPB56enq9ck1Tbc/txuX+buoVltwIC+SS9iCRP63FIdM7szTd0xPOFmER1ThvO+LtT2sfZV/F/WW2dN/ing+kakt/PUe83cnfzeJtPtbSbetQtnXO+6Qnzg+wDc886d98zPOQHo0nBobl0XFjIb9dUcyTK4r5nehUWKFoxUIvKnj6gfNFMpcr+f3yYpkrhD9Knl6p4LcrC3lqpRBLEb9bmkWP9amsPV0oDerWizp6fR11dgvOWhP2WgsFRhvb0w30CFfy68BcfrNCwVOrFDwthCrCt1KEszVL3CzmaXHfFUp+24pPe7n/vfua364s45fLSnk6MI/O61LYkJiPusbTO9QyKzw2Wj+wR8H7gT6ErQXWJIgWbjxtKI/APBXRlrnF+zIh1CaxPnAPWbAPE1jLCMi+NgvMu0LVfE+P1WtRHWvlb7NvLemxea2Pt6b39W2FtsXtHsbWnrV57HFKT3jiy9Nq+oQreWpZAb8MLJIy4lPLinhymcLNQp5cVuDFQn4jscCLwo2ggqeWieuV0vjVk4IrCnlyZQG/WVnEr5cV8vTSTMmCbTitIEdjpr7ehaO2FpvFIk3/t9XaKDDWsi3dQLcwJb8IyOWXywt4ckWB1B6TxsWWKx/Jp6RweMLfTBGv30rXeygKlTJ+7lfMH/zvM3hbJrtvqqixeRbufXUCtonWD+whaHpOrSyWh83W6aspBCF3CngLzCMQT4ZvmVceJrBmeuzGA7mrDT5MYLLd8RZXs8C8QyMnVLNv355tJb/3f088H/uGraPszYfgiQOFVqYeVfPM8hx+7pfPb5YV8etAYTnEt4JfBxby68ACfiWxUOIvAgv5eWABP19WwE+XFfKTZYXS9y+WF/Kr5Qp+vULBb5YreHK5gqeWC+tYwNPC+gXk85fFmQwIymTDoWLuZhpQKYzkZWrIzdCgKTZQpa8lv8rJjjQj3UKV/Mw/h58ty+dXy2UKkf56mYLfLFNI3x42iTxQIfE3ggHNfDJAwVOC4rwkuCJ+s6yEXy8v4+dLCng+IJ2Ze3K5lF9NbYudqB6Reg/DYyS+55lK2d+dyZsepJcmhMAeVpXzptT7Jw0ByK0wuSXWnDvk8l/+15TRHyIuj0NP1bM5tG2x+fzDBCbOCxdNchf3aUqFlgkl/2quCjbz60i9pZvW6e75bi52Wl34MLa+kTcfgicKayHkdhXvbc7jqaX3+OXSXH4VqOBXgUXub1lUvxTCClBI/HmAgp8FyqL6yXIFP15eyE+FuJYV8FRgPr8PzOcZvzz+5JvDXxZn89eFmTz3ZQYvzE3ltem3GDznFr4r0onekcuebWmErr7K7i2pXDmuIeuWhbuZdey4YGTAlhL+6JvL0wH5PBmYz68C8/hlYD6/CCyQRP6zZTJ/vkyEr4DfBBbwZEChJCYhql8HFPHrAKXE33goCo9lxfxqWQm/WKbi54GlPOmbRdfgu2y6UIyyuk7O7O4Uf7DZ/hh4jIQX8H6mTbdsZXQk8XhnTI+/Xg/eW2Demdw7GMKpx4p4OlSEwNqynE2OxbdXWD3RaSv7ywERXfNutoxZiyC38NDjadNxT6Ae9N/zLFpf0hpN3rb2wut+so+t0Nrdw/g18IRI6EsqKzOPlvDiynR+sTCVX/jnSBlWiOqXgQp+HqjgZwFF/My/iJ/5KfiFfyG/Cijg1wEF/CYgn6f88/idXx5/XnKf5xdk8dIXGbw6N42OM+7w+qQbvPnxZd4ae463h52hi89xfPod5QOfo0wZeISJvXczvkcMS8adJWp5Icd2VHI01siWsBomB2nosVjJW75FvLC0kGf88/mtfz6/8i+QBP5fywv50fJCSeDCmgorK8L0a38Fv/Iv4pcBSn4ZWCwzoKSJPw9Q8bNANT8JUPGTpQU8F5jCpKg0zuZUUCtysZSOckeyZ+/Br36sXx+NrkYaHPU02B001DppFJbTXX/yWA/vUltk2zYFJlm5Rqk9K9pgonNCXOW5pjWbeh+FBXtI9dQ793lu9/AUcLt4iMA810vhb31Za0+liHuqt567eke4rYseAo9Tb0rey+kuNuVpEAOxTrGv5Fdc95i3bA1pV6lyez17s2sYHZXDM0tv85PFd/mx331JWD8NLObHAUp+HFDEj/0V/NRPwa98C/jd4hyenZ8pWaWXZ97m1ak36TjhGm9+eJFOo87TeVgS3Qck0LPXUXp33U/vTrvp/UYMfV+LxOflCHz+Hka/53bS65ktDHhuF3P6nmXrp0qiF+uJ8TewM8DAqqXVzFuiY+ISDUOXltHdr5TX/Yv5q5+Cp/wK+WlAPv8ZmM+PAvP5r8B8fhKYLx37WUAhP/OXC4WfBiplBpTw08ASfhKo4scBan4UoOY/fJX8bFE6PTbeYcclBSU1nl2eRPb0dFR7BOb9BL49GqxWDNk5FJ9MJPfgcYqv3MSg1uASL6xwV6HafKZeGcVDb4E53Z0cngJBcioNVDdK+4cIQUnVTbfAPCLz9q8FW9zPq9H2QKAeJjCRdi3zbxPajKTnpi3RLFMPHwMe/70pVvboDejuZFB49BT5h46iuXWbOvc0rode92CQHguSwERyFJrr2Xm7goGhWfw+8BY/WpLGf/oX8O/+pfy7fwn/4V/Ef/oV8mO/Qn6zKJe/zEml4/grdBmRSA+f47zf6zDvdz9Iz8776PV2PH3e3E3/jnEM7hDNsJcjGPFiGKNejmD0K5F80CGGDzrGMfrVWIa8EMHIl2JYMOAaobO1xC4wE7vAIjF6sYWdS8ys863Bf2k1c/31fOKvY4Cfmk6+Jfx9qYI/Li3gSb98fu6Xx0/88vgv/1x+5J/PjwIK+ZG/gh8FFEn8z4Bi/jOwlP8TWMp/+pfw70sU/GRJNi+vvMvCI/e5W1pDnXuUXm6Ue6TV/PnOrJjYzUil4v7OME5/OJETn8zg5rZQyjIzpQ6fJrgcOKt1GIsUGJRF2KurmyeXthKCJDBp1oPc/nKYzBiLlOgystClZlCRmkH53TQ0aVno8hSYq2qod8m7hrRo/7l/O8wWDMWl6DKz0aZmoBNThVIz0aVkohffqZlU5RdiranB1SBvSS5d+IDA5DQTk3CdRiPGklKqlcXU1Rjk/TbaTNIGGu02rCoNNflKaVpXfa28vES+xzcUmPuYRVlGXuxBLsyax+Hho7i01A99enqLy9oO19dH09tVxGPNNjjYnFyOT3gWvw1M4X8vusf/5VvE//Ir5f/1L+Lf3AJ7+sts/j7xGp19juLTKY5hHSMZ2iGSIa9EMvzlKEa8FM3Il6IZ9WIkY1+M5JNXY5j6xh5mdTrAnC5H+KLXaRb0O8unPU7yQcfdjHk1loUDrxE2t4LYRVZ2L7Sxd4GFAwss7F9kIW6xmfAlZrb6mgn2N+Hrb2CmXxVj/bT0XaribV8lLywp4PdLcvmFbw4/WprHv0uFQyH/EaCQCod/9y/m3wJK+Tf/Ev7TN5+fLEjjheV3mR6fQ2JOJSbPEhX58baQ1TdsiTWjVQnYWF+PMTOTq3M+Z+87Xbk44zMKj51CryjE6Z5US30DLpWa0iNHubZsBVfXrUd57Sp1FjFG58lrblMkrJM0j9DdRnG50Gdmc3vjZpJmfy6tPk78YgHH58zj6PzFnNu8g4Lbd3GIfSVkvTfrwe13taKI9Lh4EpcEcHzOfE7PW8yZeYu58PkirsxZSMLUOZxdsYbCm7ex2e1uO+VuP7VoQ8keOlUqVMdOcCVwORfWrkN9+w7SPLm2UGOg5loyaWu2cGXpanKOnJZEJsPTEH0MPERgddoqyhMucnfJcuLf68b+gYMpPZMoe+1x+pi3+Cq0eH2ReLTZhjq239UxYnc+fwzK5H8vuccTX+bwxMJ8/tfifP5raSF/mHePDh9cpEeXeIa9EsrHr0Qw6fXdTHlzHzM7HWb2e0eZ8c4hxr8aJ3Fu12P4D7pA0IhrBI9OJmRcOpvHZ+I/7AoT3t7HmFdj+HLgFUI/0xK7xMLuJVb2LjKzf4GZ/QvNksj2LbIQv9hKnK+VSD8b2/ysrPEzscSvmpm+FYxdoqbPkmJeX6zgT76F/Gypgv/wU/Bvgr6F/H9LCvl/Fubz719m8+Siu3RadZvP9t7nTLYeva1ZXALeovJuA33jNPd+wOJnnYOq23dJmjiZ/e/3krZCq1VrcFjMUvvJYbJIE4QV4XHSsvrYjm+zx2cQd6Miseg9GU2YLdF2kL/F5NYmhdQ5KE44y+GRH7K7Wy/OTJpC4tzPOTpzNofmfEHS+hDybybj9GyK420N3aguKCQtKpaELxdxeOpsTnz6BafnzOfC1E85P2Q0Ec+/SmgvH1KPHMdaWyu16WSxuntd3BF2Wm1UpWWSv30X18dPJvKVDkT27kfuwcPg2ffQDfE2GbFgUnnwOClf+HHk9ffZ88b7XF++Dn1e8wY731ZgjbVOnKVaNMdPc3z4KHa/35Oiw0e+QmAPHHgsPPB+MPFu4wKLiz05BqYcLeKNjZn8emka/7Ewi/+9MJsfL8rlT3PSeX30OXq9u4fRHaKY9e4hFvY7i/+gK6wacZPVI2/i2/88097Yx+SO8fgNuMDWiVmETc0lYmo+sTOLiJpeSNDIW0x++wBjX4nlywFCYBXELTGze4mFPYvN7F1kkblYFphHaHsXW4lfYiVuiZVIXzPbl5oIXmpgydIqJi+toL+fhheWFvOzxfn826L7/MfCbH60IJOffpnKXxYl03fNbVYdyeV6ntjopqW4RDJ65zdvfrMkfhCSwO6kkDh1JgeGjqDkTJK7t0G+gz6nkNubQzk3dQ4nuvdlz/MvS+u8bm/dgrlC3nNR6qYQL+0QwmqU93Rs6hiw2Sk8dJKDg8eSOHEGZcdPUHk7GfXNW6hu3qY84x5mbYVkSaVIta7RNYLDaKImL1+6puTSVcqu3ER7Ixnt0WPkLFzCgY7vsLv/YPLOnpMmzDZP8ZJtmQRXAyZFMalbQ0ka+wnn+g4g9q9/I+adzuTHxYOl5XKP2moDWQePcmbWfBKHfMih5zuy/6W3uOm7DP29nBYi+SZoIR5HPdVZ9zkz81P29vdBeeSolP6e5998jefzzXLAAwITEFmurNbFeZWZjdfVjI/P5+0NWfzRP42nFqTw1xk3eXPoaXq9vZsPO+5mcb9zbBiXwdaJ99k1LZ8dk+9L4pn5zkGmdIxn2ZCrhE7LJ2qGgpjpReyZVUzsjCJWj0xmylsH+ODlWBb4XCFsrpbdi03sWWJmj/heLL6F2IT1ksUW7xbdvsVWDiyycmCxlX1LrOwRlm2phY3+ZuYHGujrW8Lv5qXwf+Ze46dfXOOZJTfpvCqZaeHphJ8rIqvYgK3F/htNyf9QkX395G0bQmD6uymcmT6LAyPHUHrxUvPJBlDdTufSuhBpcebdRUs51bsfh/v04U7IRszlnl2PhDjEm3HEu6jF7HtR3ZP7BxutVvIPnODAiIlc8w+mXuO1l7uoVorZ92IrA8/gmtRx4R1ZealGo5itXlsrbY8mbU3tcGLNSCfD15cj3XuSOGsuFVlZUroIeXs2H/dkUJfdTmVaFqlbd3HLN4Ds5cs56eND7LtdyI+KBbGY0oNGMGsquBO1h/O+K0gP2sClUR9xuFM3bvoGUpmZ/fiW6yFoLZ6afAVJc+ezb+Agio8ek+Itznt6O5sp4iT3zH7dhkKbAvNkJVG+KC1OzioMrL9cxswDhYwOvc/Q5SkM/PgsA96NZ9zr8QQOukLY1AKiZhYRPbuYXdMKWDP6NrM6HZIEJs7vmJwruYmYUkDs9CKiphUSNOLWAwITwopvQ2Ae7vbiHo+FE9ZtsZX9i+3E+tnYtMzIjEAlPf2T6bTiMv1DbjElNoONZwq4kFmOpsresp0sjbY2S+gfI7C7nJ42g/3DR1KcdK75ZD1U5ivIu3AB/f1stBfOcn7yJA4P8OFuyCbMGo/A5HeCyQIT235Liy7cArORt/8Eewd/TNKcpVTeEfvFl2MRm4HaWr06qWkUu5XAvAqcJjRC+YULJIwbx5HhI7gnts+ukjeJEdlPdLDIIpNRb7NhVCilXjr9nRSMN65xYeZ0Yrt2Iy8i6gGB2fQ1KK/fpvjqTSyZ2WSsXM2h3j5c81v+3QusvoHqe3kkzvqcfT4PCszzvL0F9k06utoQmCcYskeiTDQ6G1CYHNzU2DiVZyQisYzFfrf4sOdBxnWMJ8DnMhGT84ieXkjULCU7pxawetRtZr5zSKoiBrgFFj6tgIipBZL1ipxWIFUnJ7+9X6oiLhggBFYhiSreXUVsS1xxXmwSmrBuwpItsklVzJ0BOtZuVBIUl8PGM7nsua3isqKaomo71rr6ls+pKR81H2xO2Jb8riAJ7M5dTk+dzv5hIyhJPCfdwDPG6rSJPSMNuJwOdCk3SJwySdojPmVTCBaN2u2LEJioIgoKkYn2lLsdZq+l4PBp9g0Yy4GBY7m9JoSU8Ggy4g+gungNu0ojWbEmtC5JJIHJI2ZytdPtrFJP9rad7O7Vh8TZs9FnpklbDAjIuabVHBKXS7JiIj5iWMKSkcbZKVOI7dK1DYHJY1N1ZitO0TarqCQjaD0Hew3g2tJlVGbe++YCkxK26UuGJLBcEj+dy74BAx8QmHduaK4ifv1i9hECe9AzkZRmFyjKrOyOyGLWkMN81DGepf0uET4pl+hphUTOVLJjSgFBI+8w853DksD8B19mx5QcwqflEzEtn5iZCul75fDrTQJbOOAq4Z/pJHGJ9lVrcbUlMG+h7VlsZc8iK7GLDET4qzkUo+Juuh6lzkyltY7aprc9euH7UM9jQKzafajAWoWlIuU6CZMmcKBvv0cITBZZk8CcTjSXb3F+9iKOj53E2blfcuazLzk6Qd4jJGXzdiozMmmUVu96icpLYKJbvcFtGQUaXU4M125yZcYc4t7vxe1NG6k3y/s/SkGWwi6vKRNDBg/mHrCkppH0yQTiOnchPzJSeutMM1o9n2oDaSvWcqjHAK77BqLP+gYC8ySo1PHSWmAuqu/lkPjpHLfAjkrtYE8SeHnySE18FdoQmEBbOa/5v81cR9KhbOaPPsxHr+/Bt68QWB7R0xREzSxmpySwu8x854hbYJfYPuU+YdPyCJ+WR/TMQun3iuHXmPzWPrfArrkFJndgtBZXW1XEFtVFj8AW1hDjX8qlQ+UYdJ49KUS4RbnkLpu8o9c6mv8AfJXAmqfGQsXtq5yeOIH9/fpxJ6RZYNKKrUZnE+W3lLoF5nJhUaooOn6GzMjdZETFcWf7Ts7Omcfe3gPZ03cgNzdukv3y5LqmqqI88iwLTLwMQxahq6aa3K07OdF/MCfHfULRabFRjWzdpORz+yEGs+UZKK2S1VmPRewL+clEdnfu+hCBeWVtfTXpK9ZypIcPNx4hsNZHWvxvEpfcgSRPXnZDEth9Ej+dzb4BAyg+euQfKbC2IDyXE7TWUse5w/f4cuxBxr0Rx5K+lwiblE/0tCJiZhQTOrmA1SPvMOOdw0x8XRbYtin3CZ2eJwkrcmYhu6blsnz4VSa9Fc8Hr8R4WbBHC+zhFAKzEbewhlj/Eq4e1mDRe8+Kd8/MkKc9fNP0+k7QpsA8j1ISmUhnef2tNvkKpydNYG///iSHhGByC0yqjEmdGzKbRCauFVsG1DmorTFiqajEUq7FpCqj8voNUvyWEflmJ/aN/oDS6zda7i0hzWUU6SOq0XK3hdRx0tCAPTuXi9Nms6dzd5KDgjAWuLfB9sAdeMl6NU3x8srQDqeXwLqRHxkFFq8qYuusra8ifWUwh3v258bSAPSZWS0E5p3tPb9b/28WmHc3qRsuIbB7nJk9i70D+qM8eviHIzCLqZakg1nMH3PAS2AFRE9TEjOj5CsFFvEPENjlg2pqtJ4Gvdw6kD7/CgLzsmDa21dJmDyB+P79ubU5BGO53E0vuhNcjQ73jhWeSMji8I5U6+jpT59hX9ce0vbXeUdOUN9qLEqCmAvY0LwBQEONSdpY9FD/wezp74Mi4YT02qVm994XyxDikttj7tP14v1oKdKuw5LAoqLBZvMSR6usXV1D2qpgDvXqz3U/twVzo0lAXmj2pzUePCLhhycwz00eX2Ciijjp9Xj8Bl1uU2Arhl9lshDYyx6BVRK/xCbxQQF9Fa3sXmRrriIeVFOtba4iShJzb+oidRh6p9fXS7NvjYcJrDlIzYVZ5Z3rnJ08kUM+/UndshlrhfzSOynzCgvW4JR2QnI57TSKt2m6xFs/nDS46lvsCyKh1k7F8ZMc6t6b+Pf7UXTyTJPAxB7rrnox4VjsRux0C9X9vDNySfddyd4efTn12Vz0edkeH2VIhqJB7tSol+8tBsy9exSFf7bUFC6Mn0j8e10pjIyWOmPcl7sLCa8HUW0kc9U6jvUcQLLfcmru5zSdklwKK1nvkjajERvRyLXbRlxSGOrlYQiptBJDEk5pqzwRrqY7SFVEt8AG/mAEJnsuC+we88c8uor4zxJYtFtgNRXN+wJKJap7U5cfmsCK3QLzZGl5NoS8i4Th6iWujZ9AYt/+5G3aiLOstNkfYb9E71xJCfp7mZhKi3HVWrEbqqlRKjGVqnAYjHKPYW0d9ows7q0IYveb73Jk9IdU3LkrbdkmZpWbSkqpzMzCoFBIfjaNY9Q1ojp4mpODP2L/wBGkRkU1vU62eUFnI/U2K9UFReiysjGqynDYhXWSP1IC263Yk29y5cNxHHyrE8rtoVDjnvblDU9eVleS67+GxG4DSV+8DFNGtldJAa46B4bCYnRp9zAWq6ivdVBvr8WoKEGXkY1RvOK1rk56FZRRWSodqykuod4hV4klC5ad7SUw0QZ7wI62C+xfWWAJU6ezb9gIlG6BeapTYqddbUoKZWfPkb1yNWe69OD4Kx25NnES92NjUWdkYdVVS6W4o0JH6fGT3Apez/1jR7Eb9BjKSrh36BAp23ZwPzKWkmMnKd5/mNSly0kYNIKD/QeSvHEDtgr5JQo2bSX5+49yY9U6MuMPSLM85IA2Yi+t4Ib/enZ2fJ+T0z6jIjVN2ktQlrdnZRnUarVkxuzl2upN5CUkYdHJO+TWGQ1UpmdQcuQoucHBnOzchd3PPMvNqZ9StP8IJbfuNL1wwVXroDK3kJKkyygj93Jt+HiO/u0tLgwfR1rIThTnr1Jdqpask6PGQObu/ST5LiNj30FpL0axn2Jm3D5pT/u0g4cwV1ZiLdeRuecwSQFruBt/AGu13PPZUmA+/1yBybf45gIT3fTtAmuGJLDbd0mYMp19w0dQfPa8dNzzYKvyFNzZEc75ufM5NWg4B159nX0vvkx81+7EfzSeC5t2oEkXr0ttwJpbQFpAEAcGj+TK+vVYKrUY1KUk79jGsfGTODLyAxLGT+bkBxM40H8oR0aM5c66tfIYllQNhJrMPK58tpT4fiO4sGot1aXyFtfiBXPalCxOzfNjZ5/h3Ni8k/pqz45bopLq2a9JvF0llzMzvyDOZxTJOyIwquWqrEEptp+OJGHSNE4OGca+jq8T89zfOdTTh6MTp5MUvB5VRpbkts5gJuPQSU7OXczJsRM50qkn+154nf1derF7+IccWehP9tmL0muZ6nQ6Lq4JJmzIMM4Gr6GmRCm9veXCyiDCRowicf06qlQlGJSlXAzaRNiIcSSsWkuNxv1mlsZGanJySJwzm70DBqCUuunbEpiAHN/vTWACzebeW2ByG8y372XCJxUQM1VJ7HTRBit0C+xwk8CkbvomgRXInRwjrjLp7XjGvhL9PQuseSxeFpjX7IWvl17fCTyTfcXLwA+OGEXZxcvycTdrlCqy9h7i2so1XF6wiCuff8bVeXM5O28eJxf6ciMilsoc8fYWqLqSzJXxszgycDh3Q0Ol6lud1Yz6xiXSd2zn6lI/Li1awiVfP66vWs293Xuozs6ioa65c6Piwk0SRkxkX+/hpOyKbLI+om1TkZ1HcsxeLm0LpfT2XWmrb7lHVkzNcg8NOJ1UXrzOwYEfENtzCPf3HqLOIFsKk0pN1r7DXPBbLoXj8sIFXJq/kIuLAkhaupJroVFoc/Iktw6TlZwz5zm/ai3nfQO4snAxVxcs5OJiX04t9iNpwxYKrt3EZauVlr7cP36UC+tWk3XiKNYqHbZKHVlHj3B+w1rSTx7FXFWJrbKK+8dPc3HTNtKPncQqlsm4YcgvIOmzz+VxMDEXsU2BeZ5KU3fN18J3JrCISQXEfqXA8gkTg82eXsR/qMDkrcx+MAJLTuHMhGns6zOQwv1HpBn0YpdcEb46k4XqwiLKU9PQ3LmN9m4yFSnJqG/fouRWMuViu+gqA3WVRvKiDnB69ERuLPKj4s5tXA53z6nDRF25iqrMDDTJtyhPS8WgVOAwVssThKWANFJbZSAn+iBHR0zi4jw/KlMzml7cJ6qg1qoa9MoSqkpLqROvSpJaiqILX6StnOnEzJDs0N0cGDqexLlLqBazLkRHSWODtC6tqqCIMvFe45RUtBnpaDMy0aRmorqTjvZ+PrZqOdOL2fQ1JSppr3pVagrajFQqMtMoT0+jVFSZRftOUyG5E9t323TlGIoLseor3B09DiyVFdSUKDBXllPvrJM6QcQW5IayMix6vfyS9HqXtFW59totTnwyid19+lJ0uO3Jvs0C+2aZ5bEEJt/CcyPvXsT9fPRGLEv6XZQGmmOnFhE7vZidkwtYNeoO0zsJge11z+TIJXx6IeHSbI8iaVLwshHXmfj2XsY2ddN/G4FZ2L3IQuyiaqIDSrh0yFtgzd30P4RxMFHiV9/N4OyUOex+pxc3/FZTdisVg7ZS3gbbvS201Eivq5Ne4iAyj/RfLA1xOKQFiJX38rkRvIVT0z8j/8ARXGKtmDRWJCImz7JvENfV2iU/GsSyFq8Ii14/TcZ9rq7dwck5S7i37yguqYPD243cO9i816FcXfLeyFqdnMrF5Rs4+bkfmfuP4jDKL1CQBqvrnbhEeOscUrhFvEQvn0tsuV3nkL6ldx27Z4IIAUjxdMdZ9EpKcXeIYw556+umzSPr5Wqu1wah0mCye/mOZ2aJe3CxKV5Og5mqu1nc2xbJ7t4Die7bH8XJk01xbpklmnxucfRx8dgC876JEFjiwSy+GLOfD9+MYXG/C4RNziVmmoKYGUp2TM5n5ejbTOt0iImv7yVg8BV2Ts0jYoaCiOkKab7irukFBI64Ia8Hk+Yiipkc31RgYt6imd2LzMQuqiI6oJiLh9RUVzSPg3nmekuVgG+XZt8eDQ1YxHuSV25kf99RHP54JjfDd1N2P486zxqtr4DIeBXZuWTsPUx6/AGq85vXS8kVYm8pNcM72kI4ZenZpO49RubhBPSFza+EfRiaazLucr6xkbLULO7EHeDeiUSqikvcL5EQ0RTd9Q+2aNqE9zSm7xmmEjW5e49xbu4iovsM4tD0GaiuX2/p6DsKzGMJTMajBHaesMk5xEwrJGZGETum5LFidDJTmwR2lZ1T8yWBRUoCK2bX9EICR9xkwtv7GfNK3P8sgYlStNqE+vw1ktft4NyKddzeewhNfqF7EaQ8C8Kz9MM7uJ7VVsIymHSV6JXFGDVanO4xJYFmty2vbR1lYTmM2koqi0ox6apwulc4e/vj7UebRr+hAVOFHp1CKc3Wd7nEnHo5/NJGqNJLHOQO/dbhaOFPG/dpzdbXtuXPo45JvxsbMak05J9I4sb6LVxYtZr0AwcxlJR4XdFG4L4hvrHARBVRCOwjtwULFxZsqltgU1sL7Aq7puYROUNB1HQF0U0W7CbjJYEJC/ZNq4iyuMRvTxUxplUVUS7R2xJYW4/je4b7do1O8Q4rM6aSMqoKFNILuWvNJul1PWKqlLwzVPMaJPnj3s7avT2b0+nEIaqS7sZ5W7F4ZAzFsi/x1hDhh1c/mfcF3te38McTD7EXiHjDi/uNMALeYWmeOvWgP22FqfX51mzL7Vcd8xz3QAyuW8QrkBRF0ls3xSuWRLW0heO2PPkG+MYCO+tug41rJTCx1mvnlDxWjU6WqoiiDfagwIq+hcCaBSVNj1os3MqMW2gl6ssqInyVXNivosZtwTwtsB+SwNqGEJGn/eCd5T0XuefVSXPrmitqX7cDua0gePvTpoPWcLvxTkFvPuD2XwUPjcQ3wzcSmNVUy7kDWSwYvZ9xb8SwpP9FwqfkETtNQdwMJWFT8lkzKpkZnQ4x2asN1pbA5CriVwlMCMkzP9EjMBu7F9cSt6iOuEV24hZaiPnSQNSCcqIDCrhypAxjpVwqNS+Xk6egNifid5yaXwOt7+yxUA/ujuvtUrC5wuQ58l0IrHV4vhJejluH8IcOTyo2z0PxCvd3HJFvLbCP35AtWOiUPKl6GDermPCpBQSPvs1Mt8DEimbJgokFmdMKiZ7ZXEV8tMA8whL/7U0i2y02v1lsI3ZRHTELHUQtsBC1sIroJeXELy/h+A4FmVcrsBk9M8U94xvuBnqLXqXvMDW/JlpmTPfOUF5sO1ze4RXfotro6Xj45+Gfe3eBlqn5MHjOygKTK+EPd/3t8Y0EJrXB9mcyf+R+xnaI5tOupwgek8LWj7PZNTmfLRNyWD7iFtPEimYhsMFXCZ0q1oGJmR5FxH5aTNhMBctG3nqEwLyrf0JctexZZJe2dJP2TPzSRNSXJmIWG9mzrJrDG3QkRmi5dVRL7s1KKkst1NfJrQJPgv7QBNYanm7lpu7lr4Qc9oeL8X8Smp/yo9LC+4nLueHhbr8LfHOBHchi/ugDDHsxjDEvx/Fpl5Ms7HMe/0HXWTrkBvP6nWfCG/ulTg7fAZfZOv4eYVPyCJ+aL+3dsWtGIYEjH7Rge5fYJErCWmSXRbXIxm5pv0QxmGwhblENe3wrObCikhMhlVzcXUXaOQPFGVYMZXU4TC4anHIDwZPscjXKIzBPdLyT+5+Pry8wGV/H7X9ftJTOo9DsqvnzfeFrCKwZNksdl0/cx3f8QYa8tJV+fwph2PM7GP1iBB92iOOjN/by0Ztiv8M4xnXcw9zuCfgPukbQ8GTWjkkhZHwWmyZk4zvkGuOFu6YVzXr2LrFLFFZLtLFiF9qI+dJI9PxqYhfq2RtQyZFgLedCdaQcraHwuhltnh1jpROHzf0KSC+IvCfGlVtMdGkX2P9o/OAF5qirJz9dw94t11k68RAzB8YwpVcEH3fexeg3tzGswxaGvLKVIS9tZ8TLoYztEMP4N/Yx9e0jzOpyknm9zzG//0Vmdk9gbIc9jHllDwsHJRP+WQ17Ftexe2EtMQusRC80E724mt1+FRxcpSVhq44re/WkJVajvGvGUFJHvcklvyakNdyHmmqD7QJrhxs/OIF5B0j6L+awmR2U5uq5lVTIybg0dodcY6t/IitnH2T+R1FMG7iLT97fwYfv7WTUG9sZ8eouhr8SzohXohj1WiyjO8YxskMsg14Q223HM3/QHXbOrZE6LmIX2YlebCQusJKD68pJDNOSfFRPwS0zFUV1WKqcOG0u+W0kj1Hvbkc7/ln4WgJ7YPqNC+xmJ9UVFsqKqsjP1JB2rZArJzM5EZtMzMZLhCw9TeDMg3w+Zg+T+sYwtks4Q97YTr+XNtHz+Q10+/NG+jwfyox+l9n0qYaopSb2rjJxbEsNl+KrSD9XQ3GGmSqVHbtJrE71DoBAc8jaJdaOHxoeS2ACcjZ224lH5eSGRuprXViqa1EX1ZB9t5QbZ3M4uSeFmJAbbF52nuWfH2fe+D1MGhrOyO5bGdFlJ198mETE8mJOhhm4fsTCvatW1Lk2LHonDQ95R0BzT+APqaLXjnY047EF9k0geo9Fe81mqaVGb0WrMqLM03MvRc3VpDyO7L7DtrVnWON3jMiQG1xLKKcovZZqtQu70SV3sz9KNe21w3b8wPHtBdbUi+DJ7Y8Hu7WeSq2Zglw1GakK8rLV6Mutck/g48JjttoF1o4fKL69wL4DtOzJ8VZNu4La8a+NH4TAWqJdUO3474N/osC8RdTaWrULrB3/PfBPFFg72vHfH+0Ca0c7vke0C6wd7fge0S6wdrTje0S7wNrRju8R7QJrRzu+R/z//NF7CAbxgLkAAAAASUVORK5CYII=;" parent="1" vertex="1">
          <mxGeometry x="410" y="-750" width="216" height="91" as="geometry" />
        </mxCell>
        <mxCell id="NeXbTHolgeKM8Cqgu51a-18" style="rounded=0;orthogonalLoop=1;jettySize=auto;html=1;edgeStyle=orthogonalEdgeStyle;entryX=1;entryY=0.5;entryDx=0;entryDy=0;" parent="1" target="NeXbTHolgeKM8Cqgu51a-14" edge="1">
          <mxGeometry relative="1" as="geometry">
            <mxPoint x="880" y="-610" as="sourcePoint" />
            <mxPoint x="640" y="-670" as="targetPoint" />
          </mxGeometry>
        </mxCell>
        <mxCell id="NeXbTHolgeKM8Cqgu51a-19" value="7.&amp;nbsp;&lt;div&gt;If Received Number&lt;br&gt;ODD&lt;br&gt;Post to &lt;br&gt;Azure Container Instance &lt;br&gt;Hosted&amp;nbsp;&lt;div&gt;.NET Minimal API&lt;/div&gt;&lt;/div&gt;" style="edgeLabel;html=1;align=center;verticalAlign=middle;resizable=0;points=[];" parent="NeXbTHolgeKM8Cqgu51a-18" vertex="1" connectable="0">
          <mxGeometry x="0.3318" relative="1" as="geometry">
            <mxPoint as="offset" />
          </mxGeometry>
        </mxCell>
        <mxCell id="NeXbTHolgeKM8Cqgu51a-20" value="" style="shape=image;verticalLabelPosition=bottom;labelBackgroundColor=default;verticalAlign=top;aspect=fixed;imageAspect=0;image=data:image/png,iVBORw0KGgoAAAANSUhEUgAAAOYAAABdCAYAAACxZxoNAAAAAXNSR0IArs4c6QAAAARnQU1BAACxjwv8YQUAAAAJcEhZcwAAFxEAABcRAcom8z8AAGhJSURBVHhe7b0FeFzXtf7de9umwQaaNE3DSdOUKWVu2tv0tmkb5qRtklI4ccwWW7IsM6MkM7OMAluymGE0zBrQMElDGkm/79lnNLYs26Gmae7316tn6cycObDPPvvdsPbaa32EcYxjHB86fGTsjnGMYxz/eYwTcxzj+BBinJjjGMeHEOPEHMc4PoQYJ+Y4xvEhxP+PiDk8IuMYx/99fEDETJHm30mef+e1xzGODxYfADEFWYbGyLkINJa8byPDo+QdXGUc4/i/hH8zMQUlBBEHx0iKnCnKpI4bTdy3o9M5aDdC1NTfWdXAWLa+3S3GMY7/ED5QYg4zyNCp7ZBEnrOR3Cf+i7PiQGwYYkNChokPDTMwDImR38/Gmaw7g39jSXmu249jHB8C/NuImaJkUkTrlZQkLYdJSJIkl9gOAGHANzyMLTGILpqgOxSn1Ren0Rmj3h6lwRqlyR6lzRWjKxBH2TeAKTqIOzFMeDh5r7PZluruntV+jmMcH1r824mZIp6Q0Z1aQcQYEIgPYQjGaLL1cUTrZ0u3m2UtveTWWJh23MQbx0y8ctDEy/uNvLJXz+v7jUw8bGJqmZnMExbm1dlZ1+6hRBWg3tKH2hfBFR0kchb/Uik664dxjONDh/eJmCP9QmmMN/JxDDFTI0upZRwaJjAwiCs6hMwZZUenixmH9DyxUcE9q7v53uJOvlTQwm15Tdw8s4mbspu5KauRmzIbuSWridtymvlcbgtfyG/jW/M7+eUKJY+s1/LSXiP5lRY2dbg5bupD7o3ijA4SH6MgGsc4Pux4H4k5BMODMCS2SXaK/6nWMQoEh4ZxRAYx+aOoHP20W8Ls6/IztcTMTxa08Znp9Vw6tZVPTO3gY5Pa+NikFj42sYULJrZywcQWPp6SSa1cMKmVT0xp4+JpHVw+o4tPp3dy68wO7prbyW9WdvPsVjVZZSY2y1w0OyO4Bs49ok1VJGfIOMbxH8b7REzRFiZgOA5DcRgWbWSyhItPzgS0OPopUTjZ3W7jsMzBcaWPY3I/xU1+Xitx8o153Xz8jQY+8noHH5mk4KNTFFwwRc6FU2VcPLWbi6fLuWi6nE9Ml3OBkGnJ7cemyfnoVDn/PVnGRyd28olJHVw2tYPPZnbwtbmd/K5IyRuHTRS2u6mz9mPrH5QUSmdgnJjj+JDhfSDmqHZxOJYUqY0cJjo8jK5/iBJ9mLRjPTxR1MnThS3kHNSyvdXDflmAzV39FDTFeHBbL7fOlHHZ1C4unqrgshkqPpmm5Io0BVemK7kyXcXlGSouzVBxySi5NF2IkkvSVVycrubidA2fSNNywXQ1F07t5tJpbdyY08pPlsv4514Da1vcNDvCeOKDJFJd3HFijuNDhvdMzDPL8MhoclgQMqnmCQ0N0+KIsLTBxZ+2mvjWHAU3prVxR2YjjxcrWVrrYbcsyG5FmHXdCaYdD3LPGi23ZrZx5dR2rkpT8KkMJdcIyVRydYaKqzJVXJGl5HJJVCNbJVdI+8V3NZ/M0nJxpo6Pz9DwkSkKPvJmBx+Z0MpF01q5eWYbv1rRycQDCvZ2WzH6+0+T86xnGsc4/nN4T8RMtZHJ6YnUnqTEGaanf4CD2iDTjlq4e7mKGzNkXDRJwQWTlHxycgc/mNfN5BIrG1t9lCj72KXoZ1VrH6+WWPnR/A4+O72JT83o4up0Jddmqbk2U8WnM1RcnaniyqzRokyK2J+h5Ip0OZendfPJGTIumdbFhdM6uUCSLi6e1s6V01u4LaueXyysY9LeLkpkVnoCYWludPSTjGMc/2m8a2KKgjsyopTIObo3GAS6/AOsbvXy1BY9X54t46oZXVw0RcEnpmq4cKqWSyZ3c3tmBw+tUTLvuJ293QH2y33s7A6yoNbDU5u0fDW/g2vTOrk6TcW1WTo+k6Xl2iwt12Rp+VSWjqukrUYi6ilJl3NNmozPpHdyfXo7N2a0cXN2O7flyfjCHAXfWiDnJ0sU3LNKzoOF3by0vZslFVpOaJxYg1GiQ6cnU84k59l7xjGOfzfeEzGlFnOMmWoAqHElyK328D+rdVyXJedjQiEjSDlNxSVpWi5N03LZNCWfntrOd/PbeH2Xng3NHg7IPByS+9jc7iO7wsXvi4x8bqaCT6eJllJcS8912QY+nW3kGiFZeq7JUPHpdDnXpnfz2YxubsqScWdeN99ZoOSXyzX8ca2eR9abeGqrnef3OHm1xMGUIw7SSh2klzrIKbWy6LiZrY1manUuzIGoNI0zmpxJk4SkacQ4OcfxQeJdEzOFkRkRqbj6E0NUOqJMr3Tx3aU6Lpuu4L8mq/jv6RouTNdwabqaT47IFelqPjW9izuy2rh/lZxZx2zsbPNxTOblQKeXdS0hJh7y8svlPdyeo+GzGRpuyNFJcl12Um7IUnNLtoIv5Mr55hwlP1qs4VcrdTywwchf99iYfNRN7vEAc6v6WFQXZnljhDUt/RS1BlnX4qeoJUBRs4+iRifras3sbjZTq/dI0zh9CUHEJJJzsMKI8Hzmg+MYx78H742Yo3p3gaFhanr7mXa8h28vkXPxjG4+MlXLR6bpuCBNwyWCkBlqrsjQcEWmhqsytZJC56aMLr6d38nzm/SsqPZxsCPAsQ4vB9qDrKwL8+IePz9dZOSOHAWfy1Vw20y5JJ/PVfL1fAU/Wajkj2sN/GWHndcOe5l+3E9eTYDFTSHWtvaxob2fTW39bG7rY3N7kC1tAba0+djS6mVzi4dNzW42NLtY32BnY72FvW12qrVeDJ4okUTy4VJzsCmrpXGM44PCuyRmqplMFlwxMSILJJhbZ+enyzu4bHozH5nUxUdnaPmEREoVl6cLxYyGT2Xq+FS2jk9LrZ6GGzOV3J7RyS8WKnlzby/rG4Ic7QxxrCPI3vYoC6tjPLu1lx/Ol/GV3Ca+mtvEjxZ08bvVGp7cbOalfXbSyrzMre9jeXuUQlmMjd0RtnX3s0sWZFdXkB0dfra3+9ja5mVLm1faSiLIKaTNx4a2AOtafGxo8rCzzctJXT8mb4KIsJUYZUI4TsxxfJB4l8RMjroEOUVhtcWG2asJ8/xOPXfkNnPx1BY+NrWLi9KUXDpDwRVpcj6VruKaTC3XZuv5TI6e63P03JSj4+YsLTdnKPlKrpI/rNKTecTD9tYwRzr7OCoLs7UtyqwKL3/aqOK3Sxr5w/IWnt+qZtoRO3NqAixr6Wdte4T1XWE2ysJs7u5jmyzIji4/uzp87O7wScTc2hFgc0cfG9v7WN/WR1FriLUtQVY0BVjaEGR+fYjZNSHyTviZddzLwioP21q8tNnCBBJDUms5qoMwjnF8IHgXxEy1H8kiGhgYptkxwNKGAI9vNHJnXiefnNrChVM7+WSanCtmyLk6XcG1mWo+k63jszkGbsgxcPNMA7fONHBbjoFbcsRWy7cLlDy9ycz8Kj97O/opk4c41BVga7ufhZVWMg5qyDliYEl1L0UtXjZ3htjS1S/Jtq4+tkuEDEik3NHpZ2dngJ2dIbZ1htnUGaOoY4AVrQPMb4iRW91HWoWPN4+6eLHExV/2unh0ey/3bbDw+3Vm7l2j4/EiBQVlRhqtQfoGx9vKcXzweBfETOkpIT44hNIVYY88yKxKL89stXLXXCWfmtbKpVM7uCpNyTVpSq7NUHNdtpbrZ+q5YaaBmyRSGrl9ppHP5Zq4Pc/Krblm7szV8rNFal7aaWZNrYej3T4qVV5O6oOUawOUyL3sk/nYJ/Ozt8vHnk4/u9r97Gj3s7MjwO6uIHtkQfZ097FDFmZLV4Si1ghL6sPMrgqTXhbmjcN9/HWfn8e2OSQC/mq1nh8uN/CNJQbunKfl1nwVN+Up+UymjBsymvnF4mbmVupR+cLj3dhxfOB4Z8Q81Y9L6iYdwRhH5G6W1ziYedzLP/Y4+PESLZ+Z0c4npwrDAA2fydDw2Uwt12fruFGQMtfIzblGbss1SaS8I8/MHbNsfG6WlTvzDHwrX84jqxXMKe3hcLeHFnOQ7t5+5M4oHfYY9aYI5YogBzu87G/zsq/dx14xHu3sY3dnmO0dETa1RVndHGV+bZi0sgAv7fXw1GYnfyzs5VcrbfxgsZmvz9Px+VkKbp0p5/ocJddkqyVrosvSFVwyQ0ztyPnElA6unl7L79e2sKmzl96I6NCelRnj+D+I/ytvbwwxU6OpM5Of+ia2/tggTeYgRbU28kst5FS4ef2Qh9+sMXFzpoyrpsv5TKaO67N03ChImSNaSiM3zzRzS66Z2/N6uCOvh8/P6uHOfAtfnGXiK7kafpDfzZNrFMw7ZqZU6afbEUXniaPzDKBxJ+juHaBeH6ZM5qekzcv+jiD7uqLslCVY1zbA4pooOcdCTNjnlZRGDxT38KvlRr6/wMA35hj50mwjd8zSc8tMUVmo+UyGGPtquDJTI2mNL0tTccl0FRdOV/IxYRQ/sZFbc+r520455Qb/qPWdyfbz7Fx6pzh3Hp/109ifT/k4Osdv/0GcSs550n2e3afwdr//Sxh98XPJqMPO9cPZez44vGNiitGlf2iIJnuI4ka71LLlHbOQW+FkWqmfhzbZuTNXGAXIuS5Ly43ZWm6eqeXmHD035xq4JdfErXkmbp/Vw+fzzXwh38iXZ2m5a5aKu+epeHKtnhn7bRTWOClTBmi3RVG5EmiEOAckkdmi1OuFcijEzrY+ihujLKiJMeNYmBd2enm8uJffrbDws4UGvjNXy9fyNXwxX8vn8w3cnmeU5LY8k9Ry35Cj57M5eq7N0fPpbD1Xi6mcdDWXp6m4SJBzShcXT27i6/mN5FYY0YXiDI3yhJD0KvRekLrGOc4enf1jf/6QEvOsNI9J2/mSmjr0tDrx34Cx6TpP+s6sak8fMDp9HzTeETEFxHxlmy/M8qYeJu5TkX7QREG5nfwKB9nHg/x5h5tvzRHdVyWfzdJyU7aOW2dquWWmjlvz9Nw2y8jt+SbumG3iC/l6vpav4nv53fx2kYK/bTAxq9TLuuZ+dnWEOCzzc1ITpK0nhrJ3EK0zjsEVReuO0tkbo1wTpbihj5zDfv6+1c0Da+38eomZny408YP5PXxnrplvzjHx1QIjXyow8oUCE58X9843c/ssM7fmGrlppp4bc4RSSs91OXo+k63l05lqrkpTcdkMJRdOU/Kxie1cNbmeB4tl7FN68MfErGbS7CDpKOXdI+UmLPn3Tsk9uoi8szM+MKSSNDpZo+qP86U2pUocPR11vmPfM0YnQhKR38JcJCH9DUifknZdo/N4tDO3VPrOSNvbPdz7gLcg5pl3NkQHKJL18uftnTy8to1J+43MO+FgToWDvMog/9wX4KdLe7g1V3RjDdycZZQ0r7fN1Est1edmm7ljtmgtTXw5V8X382Xct0zB6zt6WHDcz9b2KPvlcQ7IIxzoDHJUFuCkpp9OaxydK47ZE8XojSJzxqnQJ1hV08drWx38fqmJn8wz8P05Br4318R35lv59jwrd82z8I25PXx1rpkvzzXzxQIzX5jdI6VBtJq35IkudlIpJTTG1+UkbXKvzlBzuVhGNkPNxybLueDNVr6c10zaIS1KT2gkT967yUHy9Qt/R0PEGSLGsDQfLBaSR4B+huljiH6GpH2iKhAUTq7eSXlOei9l4ux3+u6vMQojl3qrRlykOuXPKSVJEqb8P512OyM+v/8YW5aHiA3HcMb89ETcuAb6iA4LaqaQJGaq0kylP/W2Tx13dla+Dd7VwRLelpjiv8jQWneEF0vUfHtuDb9a3MSEfQbmVzqYc9zBrMoQrx8Oc2+xmy/PNnFjmo5b0/TckaHnjmwtd+RouSPXwOdn6vnSTA3fzVdw3zIVE/dYWVUbZGdnjAOKGCXdUQ50R9jfFaFE1s8xRT81ugid1ghqh/B6EKPVEue4NsGGxgjT97p5ZLWZXyww8IN5Rr4/38L3F9r43gI7311g5a4FFr4x38JX5/Xw5bkWvjTHwp1zrHxOkDPfxC2zjNyYZ+R6iZx6PisZQIhxp4rL0tVcOF3NJ6bIuWpKI39Y0cJ+eS/hxFmv6V0hWTxEng4RZhBrop/WkI0Tbi0VThXlDjllvd2U98qptqtR+mwE4/1J7xCniHmOlvasHWOQ6gqPOlD6dK4yc659YzFyjCjYPVE/7b4e2jxmesL+U65cxHOKSsc1GEcV9tEZsNMT8REdHjijRTonMc+XhvPtH43UMcNntsuiKnAPhjjhkLHbUE+DR4d3oH/UeaeJKeg6Om3SG09dN3nY26dDQDpnjGH5O8DbamXF/b3ANm2Q/1ndwXXTK/nRgiZe36tnfqWduZW9zKoKMq08xp92BaXu5FczlXwrU8UP8rT8YLYgopJv5yn4zkw5P8qTcf8yNRN221leG2KPLMZBeZiD8n5KusMc6BYt54Ak+2Qx9nT0UdLp54QqSIO+nzptlBPqAQ7IBlhbF2HKPg8PFVr52SIz359v5vuLrPxgkZ3vLbLxnUVWvrXQytcXWPnqfBtfmWfji3Nt3DnHIrXgt802cXO+SSLnDTOF8YOOz+RouDpLzeUZai5J13LRdDUXvNnC13LrmHVUjcYVfNeZfC6IYhJikIY+C/Pkh3mlppA3agqZUlPE9OpiZpxcR07lFnZ2naQn4GBYKjTJFy0+n+E191RBHHWD831/OxlzrNikyuDYSwq4ByPst7YxvWkzk2rWsVVbiyUWPHWcaPXlEQ+bjU0sbD/IUXMr/iFBhuQRqac4Vc7Hpmf0Dc+3/1y/SSLc3KTaPFEVDqFLuFmqOMzk6iI2a6voCXtGXUM8cNI2WlQdqRb+rHSdlei3SsN55CyMvvDw+YmZOlckTtmXILfGwRdnNXHRG8e5a04zL+/RMa/SytxKK7NPOMk7ESStNMhLO+z8db2Bl7f0MHG3nUn7bEzY3cNLW/T8c72alzaoSN9nZkW1MAQQpIxwqDvIQVmAg939HFTGKVEPs0sBhc0J5pT6yTtgYWmphd1NXsrkESrVAxxXxzmiGJAUQFMPBXhwnZ2fLDby/YVmiZTfW2znu4ts3LXQxjcX2Pj6Ajtfm2/nK/OsyZazQHStTdK4V7ScN80UhvJaPpuj4dNZGq7MEEb3Gi5J0/CxiZ1cP6OeZ4paKJXbGBi1fvO9Idnm+Umw393NM5VL+FXJDP5SvYjpTevIa95KbuM2ZtfuZLeilp7QqMIjzh5OOgB9z13qVBl4B48hDhN3Sx0+9m6mgSAFqkN8f/9kvrztJf52ciWlDjmhwaQDF/G/PtRDZuce/nRsPitlh3Ak/GOukoSUK+9DpXcmBLUk78QkGESW6CWjbRtPH5nDkq4SDCHn2BOkZ0wR850NHN7JMW+HZE6/Y2KKuu2YqY8/79Tz2fQGPv5qJV/Ka+K5bVpmV/SwqMrIypoe1je52dEVYndXgH3dPo5pQlSZwlSbwlTqQ5QqvJR0ONnb6mB/h4cSmSBjHyVdSVIe7g5yRBHmkGqQnfJhVjYPklEa5Z+bvTy7xszL6/QUHLKxtSnEMeUAlZoYVeooR5UDFLXGmXLEz8PrrfxiqWg1e/i+IKdoNRfauGuBnW8t6OWb8+18fZ6Fr8zp4YtCISSmUPJNkmLq5lw9N4jVLNlJYl4ljTXFNIqaC6fI+dTUJn5acJJVlWq8khLoPULK2GQR9zHADmcrD5blc++xTGZr93HM00GLX0ejR0eDU0eX34o1GiIwECOSGGBQdGmljpZoAQaIMUD/UIz+gQjxRGxkdCTGq8N4B+PYYmHssTCegSgx6dwRDEFiaJhoQtgFDxAZHiA0FMMT78cd6yeYiBJncKRLl3TTnarPRz+KLh4grXs3n9/3EtfufJafHUknv3MvypA9dRvqgwYmtW3m/oM5LOjciy3hk1IZG0oQSsSJDMYZlMZ6yZ5AYjhBdDBGNBFlYDA+0kMYJj6YIJyI0zc0QGA4jisRxhULERwIEx8ekNIZZQDfYD/OuB/PgI/IUIhhafQucmqAroSNjM5tPFU+h/nyA3QEeuhLxAjEw/gGIoSHBk8tXBDkHBzxgiz2hodieGP9OCNBvLE+6Xuyw5vMmcHhIemZwokB+oYTBIYH8MWjBGIRIkMDkk5BmKu4B2NYY31YYyHcA/2EByMkPVGdHiadl5gpuIdhdZuLny3r5oqpzXz89Xo+l9XMo0VKZh7RU1yr54jMQnNPAJ0/jrV/AEc0hjceJygycSBOXyxOKBLF0x/GFgijdvXTZA5xQunnaKePw10BjnT3c0gxwA7ZEEvr4kw5GOLZTQEeWe3noZUuHl9l4YVNZvKPuNjaEqFcNcBJdZST6ghHVTE2tEZJP+rniQ29/HKZmR8tNPPDRVa+t8jOdxb08u35vdw1z84351n52hwLX5aUQUJL3MPt+WZuyTNy40wdnxXaWbEIO0Ml+Rq6XNj9TpfzySnNfH5GBVN3d6DyCtXMe8SpylW0mHF2OJp4+FgeT5Tns91WhzXhJyYKpnjBQwM4ExG6Q05O2FQ09GpwxPwSKYWINsAcD9DoNVJjV6D2WQgOxQgyiDLmo8ylZqu+mS3aRg72yJAF7QSGhI8JEI2+eyBGm9dCjVdHa9RKdUDDHlMj23U1HLN3og73EhxOkj1JzqQaKgXxWRP3M6NrF984NIGvlU3ih6XT+VPFAkosTcRHdJ7NQQNTWjdw/8FsFnbuwzYYlMbXyqCdk1Y5nW49vlhgpBcwjCseoM2lodEmx+izERXkHUqg63NR51ZT5VNT1adjr72Vbdpqjva0IOvrwUwAxaCTUq+MzaYqdpiqaPTJ8Qy6JcoKPWx3wkZW11YePzGHDOUudjnaKLV1s1ffxD5TC80+M87BsEQTUfUJOgeJ0JNw0+BRsc9YzzZNFftN9bR41XgTYiVycvwaHIqiCjmoduioDvZwImiipKedCnM7yqAF23AI+YCLw85uNuvr2KI5Sam5BXXARP+gqEDE8yfxlsQUL9AQGSS93MwduW1cMqWdiya2ctP0Rv53YSu5JWpKZXb0Th/+SJSB4dQUgLiBeLSxMsDQ8ADBeJwefwRZT4haZZBSqeWMsbk1zrzKMBP2+nhmvZOHVrl4YKWfB1cHeHC1i8fWWnlxs43ZR31sa45SLo9Rq+mnRtNHhSrClrYI2ccC/HmTnd8sN0rj3e8vtPK9hQ6+u8DJd+Y7+JZoNefa+HKBlTtnW7g938qtsyzclGfm+lwj1+UYuCZbx9WZ6qQTsDS5ZPt7yeQWrp1QztNrG6nQugkn3iM1RxEzQJxdjiYeK53FE8cL2GqvwzgYoJ9BknXoMM6hOCc8Bma27GNm007q3Cqiw6I9HELoiI/7jczpPsrs1r0csbajSwRo6rexSldFWssuJtVvYXLDNqY17GBJdymVThWeRH9yiBINskJdzcS27WSq95HRvYPX6lbz96qlvFq7mhXKI7QHzEQkHXJK7XQa4i2r4j7SOrZz99E0HmtdysN187m3JJ289q1o+21SwW7vNzGjbSOPHprJsq4Seof7cBNll7mRrPotrFOUog1aThVMWcjECnkJs5u2clTXiCfWj2coziFHJ5kd23mltYgpiq283raOv1Ut4aXq5eQqdrPSfoIF5qNMk2/lrw0r+MvJRWS2buKYrQlX3CtVK+rBXnK6t3NvxUyebFzKxPatzGjezut163ihajU5Lbs42tuFQ2hsGSJInI5oD1t7qpjVvo2pDUVMaSiStvM7dlJmbcYR8UgttXUoyE57K1Nbd/F6xy6myPYypWETC1v3sNfcwFFvN2stJ5nWvpWJjcWk1RaxpHEHlaZmPFGRvtM9mjOJOaarLDRqTc4of92t5Zq0Zi6c3MGlk1q5dWotf1xQz6oKHerePmIDMRgcYHhokKGhIQaHBhkWNfOg2B8/Q4aG4gwMDRAeGMAdjKO2xqhSRNnSGGGWGKNud/JkkY1H1th4ZLWDR9Z4eHitl4cKxdbJU4V2Xt7cy+zDfrY1CTO9CDXqELXqkETObe0R8st9/G2blT+sMvHzxT38cFEv31vo5DsLnSPEFC1mD1/MF2aBYm5TTJ8ktbPX5hi5OtvAp7L0XJWu4co0BZenKbh4cjuXv36CX8+vY32dCUdI5M57wKn8FcQcYJezlYfL8/mf0nSmq3ewxdHMUZeCEw4l7V4LqoiPUq+OF2qKeOhwAet1x3HEvVJb1MsQa0xNPHV8OS/VFLHd3kRVxMRSXQXPn1jOCyfXkN2xm7zuEt5o3MKzlSvJbttJg0+LqJ+bIx7eaNnBD0sy+G3FLP5Rt4IJDYXS9g9Hsnj6WAEbtJXYBkRrdjYEuRVxD9NaNnPv4UymdW8nU7mbJyoKeO7EfHYYT0o9gNawibS2jTx2KJcVgpj0YaGfBarDPHQ4j/TmjbR5NSPdQjjpk/Nq0yqeKs1nbdcRLOEAtuEoq0yV3Fs+k++XvMETNXN5ra2Iv9Uv496yLO4uT+Pe6lyeqF/AS21r+WfrGh48UcAfDucwo349TW611M/QDLnJUe7i50fTuPtYJn85uVRSXE1u2cxj5fO5rySXtKZN1LrVeIlhHPazwVbFy3XL+VvVIma0bSJPvpvJret5oWoZGXUbKDW34RjqR42PAsMR7j42kx8ezOSpqmVMrd/AStlhinWV5Cn283zDKv5SvZj09k0s69zHhrZD1Bnb8fT7GEop+N6OmMIzwQFdgD+uV3DJlCYumNzB5ROb+EZGNRM2tVOlcNIfHZmhGowxPJhgcHCQxOAQg2I8JEmCocGUDDA0Qk7RciYGB/EEB2nQxVl23M8/N9l5ZLWFB1ZZJWI+vsbOE2sdPF7o5LEiN48WunhsjYOnV9t4aaODvEMBNjeGJXLWafqo1/RToY6wqyvMwuoAr+918vAaG3cvtPGjBXZpKuU7803cNUfLXQUqvjNXzXfmarhrnpavzlZz20wl12WpuFqQMtPEp9INXJkmxpoqLhKWQG/UcVd2DbkHFGicor167xCvQIy0drs6eeB4Pl/d/xK/PpHFn2uX8XLVGqZVrqewrZRGl4mmfjvTOnbxu8MzyW7dTpffRB/DKAb7yOg6yL0H8pnaso19/i42uev5R8NKHikvYK7mMEeDSo72qVnpqOPJ+pU8XDaHdfoTWIYi1Ecc/LNhHd/c9QaPHp/LSnUpx11KdrvaeLF+Fb8/kE5WyxY6/CYGU0qZUWVEvHl5zMPkpg3cV5IhjdnEuVndO3jkWC7TG9ZRHdRQ1a8hrX0Tjx3KY0XnQez0YaKfXOU+fn0onTebCmn2qU+1GOW+Tp5vXMz9x7JY1lmCORzAPBxhvuEYvzg8lbsPTSZPuYuDnk62ORp4tauYbx16g6/te4m/NS5lo+0kezwtzNYf5L7yWTx8KJdthhpJ2aYa8pIt380vDs/g/op85nTvp8Ilp9yjJl95kIdKC3j4cC5FqnK0Ax6q+tRM7Cji4fJcJndsZI+vg9J+DRvczbzZsZ3Hj8xnTvN+uqJuOvAwQ7ebuw68yS9K0sjv3EOpvVPSE+x1tPNCYyH3HMvmxaY17HQ00R3sReez4wz6iA6I8WoyY8X/tySmNTzAmg4XP14l4+MTmyTv59dNruUPC+rZUmvCGYjCkJhfi8NAlCFBxMHECDETJBKDJBJDDIrvkgwylEgwnBhIOoYmQTQxjKx3gKUVHv60xswDK6w8tLqXx9f28tRaO08X9vJUkYMni1w8WeziiUInj69y8NTqXv65wUVOiY8NDX2Udkeo1Uap1YWp1EXZr4iyqjHM1AN+nix08L+LzPxinpZfL1Lw4CoFz25S88ouAxP29vDGfiv/2GHigUI135sn4+ZsOZ9K03LlDANXpOm4LEPLJ6Yp+MSbrdwxvZZXNrbTYvKNzrl3DVEEPQyz093F/Sfy+caBl/l9ZQ4vNqxkWs06ck9uZXP7ceQeG+ZEP8WWOp6qXMw/K1dwuKcdKzGO95t5pW49j5YUsFp7nOMRDXONe/lt+XR+W5rObPV+9jtb2etsYam1kgdPLuKXe9NY0FmCJuGnIWLjlcYifl0ynZkd25EFLVK6XAyyXFvGk2X5TGoo5KRTTmLUdM1YYk5sWs8f9qextKuE9qiNfe5W/la5iD+VFrDSUMpWbzNTZVt59HA+y0aIaaSPmar93HMkk0kt6ySFV2oEe9zfxT+blvFIea7U2ghiGofDLDAc495j6fyjehE1QbVkhGGhj0LHSe4um8EP909goaYE06AbN31URtX8o2kF/7t/BssUh7AOh5EPesmR7eYPx3KY2FzMSY/ilJHHiZCeN9s28pv9M8hq3kpdv4H1vVU8XDmT3xyexsS29exwtrDf3cXa3npeat3Kr3Zm8Ub5Bk4GLDThIl2/i58dmszfqxdT7ZYTlnIJWiJWpnVs4bdHM/hrzWI2mGpQhv34hoR66UycTcwx0AVi5NfY+NriLj4yoYkLJjTxpYw63tjcSatJNL0ixFYCEjFJhhJxqZVMSKRMEfO0DCYEMQcZFpP0iaTXdjF66ekbYkuTn5c2WXhcdGHXOHlirVMi5TNCipw8XezmKSGCoGtdPLHaxdNrnPx9XS+Z+12sqxMGCQmqNXFqtBGO6yIcVMVZ1xoj+5Cff64z8acVcl7bJGd+mZ6dHb1UaP3Umvqo7QlzTBuiuKmXiXs13LNMxuey5Vw9Q0yZ6Lg4Qy/5qf34ZBnXTannyVXNHFcJhUIK5+rovTWSBBhmq6uDBypm87uyTAq0eyjzdtLpMyL39GAMuAgNDBAcHqTCr2VCy0YePVzAcmU5TXEn6+wN/O3EUl6tWMbh3nZqYlpmKNfzo6Ov8oOSV3i+cj4ZtYWk1xbyet0aHjycz5Mlc1mvqMSQCNIQ6eG1prU8UjaT9fpyHHGhyEhGXdtiquMfJ5cwrXkdlc5uBkQFLDCKmGJE2B3zMKFxPb/dO52lnQcwD/iQx6zM7drJM2X5vNK4iixTCS8rNvHQsdks6zqEjX4MhMhR7pVazMnN62jz6U9duMov48WmZTxalsuqEWLqh4Is0B/mofJs0pvXYRgQs+tijj3GblcLD56YxX1Hc9htbaCfOFGitMYNTGgv5PclM1gk24dxMEh3wstM2R4ePz6b+fK9qPusI28EumIO8lUH+V1JOpPqizji72a+sYTflE7hp/tf5+mKAtIaN5LRsIkJDcU8Wb6YP+6aRXb1XmoDNhpwkqnfzb3H0shq24A2Yjv1TKJLv8NWx6t1y3nyaC4vn1zNYnk5R2wqDJGgVDmMxlsSU+6JMK3UzO1zBTGbuXBCAz+b18rSCiNWv1BBi0CVAwzFYyQGkjIwEGdgYOC8kogPMBiPMzQQZTAekVTjnvgwZZo+skrs/HmdlUdX9/JEoYuni5w8U+TgmWJBTBdPFbl5SuwvdPPUWjdPrnXz1Jpe/r7eQfo+H0U1UY50DVCtiUkWQyd0EY6oo2xtDrKqopdVZRb2NttpNnmw+AN4+0OEImFCkRiucAy9N8xxnY95J6zct0rNrZnCT62ai9L1fDxNx8emKbl8Uj3/u6iW/R1iPjOp2hbybqkpirmTITY523mgvICnT8xhX28DniHhBPTsY5UDXuaoj/DHg3lMat3BZk8n6d07ea5iLvNbt9ERMtIQ0TOxu4gflb7Bb8tnkN66jtWyPazo2MmSrj3Ma99LUfdxmlxGeoei1IZNvNq4mqeP57PTfBLvQLJ7LqbItpvrebl2OWkt66l6C2LKYh7eaFzPb/ZOZ3HHAXpjAXzDfRxztfB63VLuO5bBox3LeKRzFX84NovlssMSMfWEyBoh5tSm9VJllEJ1QM4rLSt4rFwQ8xDmsB/dkJ95+kM8Wj6T3NYt2BPJfPINxTjg7ODpyvk8WTqHI/aOEW1qjI64iSkdRTxwMI2lnXsxJQJ0J3xky/bwROUclmoPYor0nrqvIu5ivu4Y95ZkMqF2NSW+DmbrdnNP2RR+e2wGExsLWaU4ylr5URZ3lTCns4RF7cc4alKijoVoHHaRod/F/eWZFMi20hN3nDKqDBPBEHdyyN7M3K7dErGfq1zBqyeL2aSpwdjvlqZbJAy/DTHbnGFe3m/g+lkyyZv5pW/W8eBqGbs6XLj7YgwPDTAYixGLRIlGhURGtucXcWw8EiEW7ScW6SM+ECMwMESzLcKSShd/32jl0VWCmMnWUbSWZxMzSc5nijw8VeiRSPrcOhfTd/tYdaKfvW0RyhQRjmv6OKERVkMeqtVeOkwhejxR/P0inSEGIj4SYT8D/SGikTCReBxfdIAOe5iFlb387zI1N2bKuVhY/6Tp+egMNRdOqucnc0+yuclMeEAU1vdOzF4SbHC2cH9ZPn+qnMdhZxt9Z0dWkeAhzlZ7C49ULOCRuuW8ptzBEyfn8mLVfPYbq+gd8NMeMZOm3MIvS6fyTPU8djrqUMZ7UIcNKMMmusMWtBGvNI/mZZCT/UZeblzF0xWz2GY8gTuWbDGFYmizuZYXa5ZJxDx5HmKKItcV8/B643ru2TuDhR0HsEfESC6BecDJcs0+/ngsne9VTue7JzP51ZFMVsiPSMQ0Emam5gD/cySd1xvX0uDTjOjyh9jvaeaZhnncV57Fyu6DmCM+tENe5uoPSt3bmS1bsA0kjRSSxOzi6ROLePLYXA5b26X5V6ElbYubmNxRyAMlaZKipScRRJ7wkynfyx+PzyK9exutIf3InCXURMxMl+3id/szyGjcQFVQyQrTYe4/kcUjlbNZZqigK+ZCH/MhDzvojDhRRP04EgncDNMy7CJdt4sHJGJuxhSzSVWENGQbjuIfjmIf6qcz7mKXq4sXWzbw65IsXqpaRYWlS5qjTeXxW44x62x9/GWHjmtyuvnIhDaumFTDMxtlHNP48PbHSMSiRPv76O/ro6+vnz5p+9Yiju3vC9HfF5QkEosQiCXocsUprA/w4hYHj65y8kSRV+q6Pl3s4OliJ08VizGmWxprCsI+LUTq3np5fK0QN38pcjFxm5s5R71sbAxyUB6iQu2mXteLyubG4Q0RDEXo7+snEgoQC/qIB33EAn7CoSDhvj5ikTD+vgj1pj7SD9n5boGCK6Z2c+EMnUTMj09s4Lv51aytM+GTDA2SGZaafH+nBBVaVQdxNjoa+GNpDg8fz2Njby2GQT/CoM3DIM7hAQJDYlpcmBLAyaCRF1rX85Oqmfy4MpO7D71JeuMqOv1qBoYH0cddLDMe5oHSTJ6umM02ez3GYQ+eYT+uYT89CQ+WuB/vcJKYVf0mXmlcIxFzq/E4rliysIu2aLO5npdqVpDWsuG8xBTFqCvm5Y2GDfxmzwwWdRzAGk6OvcV0f4W7i5calvP1o69zw76/8aODk1mhPIp9OIKNARaZyvldRS7P1Cxim7Ue3ZBPmocsMOzn7vLp/ProNFYqD9IT9aIb9DBPV8KjZbPIbdmKfSBZifiH4pQ4u3n6+FKeODpfIqbICzHH2xrvYVJ7MfcfyGBZ5wF6EiEUgwEy5Qf4xdEsnqxZygZrParhAEpCFDmb+HPNCh4+mMsa2SGUERv7Xc08V7eYB8pnM19bjnwwgIMBSUusH+rHMBDGOziImF1uH3KSpdnJQ6UZzOnagjlmH4lNkMAdD6AI9aIKezARpy0RIt90nN+W5/Nk2QJ2aurxx0Qv9G2IKQrZcXOIxzYJK5gkMT816STPbemiQu/FE4oQ7e+nLxggGAgQCAQJSNszxe/3nyEBSXwEAl5pK8gqSC5zJVjfHOblbR4eXeXhiWLfGcR8cp2LJ4rdPFEkSOvkKSGCqIKYRT4eXevlkTUunlrbywsbrGTut7O6xs3+TieNegdmpxu/z0/QFyDgDRDw+Al6fPR5vIQ8XoIeLwGPl36fl0gwiD0QZ3tHiAfX6rk+XUQa0/DR6So+NqGeb+RWs6TKQG9Y1IbJDBPFNtV+vhOIOUEPMbb31vGHo9P54f5Xeal1Nct1ZWw1NrFR38gmdT0nLAp6w0nC6OJ+ZuuO8b3SNG7c+md+svsllsl20Bt3S78LG9QKXweTGlbx+NGZTG5aR7G2jAPmWkpMNexWn6BU34g2ZJeIWdtv4dXatTx9ZBbbdBWniCk6tNsMDbx8YiXp9Rs5aT8/MWVRHxOrN3DvtuksadmPpT859hMwxr2sMpbxy7I0rt34BN/f9Sor5IdxDkXxMsxudyfPNa/kf0uzeaF2NUs0pSzSHuHpmgXctf9Vfn1wMqu7D2CLeDAMeligKeHRQ3nkNWyhd2Q8HBqKc6RXwZ9Kl/HEwXkc7mmThkeCmO0xC5Oa13Hf7gyWtB/AkuhDMxgkT3aQn+7L4O6Smfyzfj0F2jJm68t4rqGQ+w7lM6m6iGq7DO9giK6ohVnKfTxaPp9/VBeyXHOcnaYmdpib2KCvY4emkQ6nRZpnlQ27yFXu5OGDGcxt20ZPTJj7ifZ4EE2fnR2aOtbIKthuaGKTuZVJ7Tu5/+gcXjlZxLEeGSGhqxnJ4/MSU9TQR41BHlwvJtqTXdmrJ1Xx/JYOjutduIIhwiFBSi9+vw+fzy8V/BQBfUJ8PrxeLx7PWHHj9brweVwSUV2BMF2OAdY3R3h5m49HV3t5oth/FjEfL3bzeJFTEkFOqQUt9oyQ08ujQtYKKyErz641MXVXD4Un7dSqXfQ4vPjcXjxODy6HD7fDh8fhxevw4HW48DmceB0OfI5eAm43nmCMCn2Ml3bb+OIsFRdPU/HfUxV89I06vppdxbzjWnr6hIl2clyQzP4xxBzTAxmLPgYo87Tzz+q5/OrAazxUkSUpXF6vWcerVeuZWLGOorZjaHwW6UK+4SgH3XL+Ur2Cn+6YwF+P5XPYXENoWKhrxP0HsSRc7LFUM7WxkL9WLOSFE0uZWrOWtOq1ZFcWUtxagswjRniDyCJOCpr3MPX4Go6YGvHFk+M2UW+LgpJft5PlrQdpc+hInIOYoozoYkEWNB3g5QML2dpVQW/49JxniAHqQnqmtW3kf/ZN4fGDuZLVjG9oQLpHR6yXpeZSnqlaxEOHZ/NC5Wom1Bbz16qlPF4xm5dOLGK3shx31It10M96QyWvV6xiVdtB3CPjYWERVO80MuPkdiZXrJcsoERXWqgVVTEH8zv38/KRZWySn8A5GME2GKZYeZJnS1fwVPkK/lK5lr9Ur+Hp6hU8UjafV46vZpe+jt6YjzhxPPRzzNNNdvsu/npiuaQVn1BbyIS6tbxRvZb8uu1UGrvwDIXR42GV9givHl9KUfdReuOi95C0aVb12SiWV5BevYnp1euZXLOeF4+vYsKJIjaqatD3eSUDnRTOO8YU3D1sDPLAOiVXpQvlTxvXTK7i+U2dlGucOH1++gQpvS68Hjcej+cc4sbtduNyjRYXLpcTt8uBx+XA5/HS6+unzRKlsL6Pl7Z4RogZ4Kliz2liFo8QU9qK1lN0bZOkFCK6vhI513p5eLWbh5fbeXatmdklZso7HZjtXrwuLw67i167G4fdjdPmwmVz4rY5cNvsuO02XHYrbocDlz9CtSnOlMMOvjVPzSXTFPz3FAUfe6Oer2RVMqdCgzmUtMAROGeLeQ5iprq8QoRliTJiYZPhCLkda8lpLyK/fRtzOvZT0HaQBc0l7FPXYQoJUwLRpR3EEPOxw9DIotb97FAfRxPskQph8n7CKjSGMe6kzNXJamUZBe37KGjdy8L2/RR3H+O4pRVb2C11pZ3xPipMnRzQ1KPwmogkkgo9MRGv8vVSoe+izqzEGvKeoZhIPZN4XncixnFzFztlx2mxqQgOCJul5KIu0QV3DIYoc3SyXH6Qtd1HaXZqiUgrOIS5Z5jmiIH1piryOw6woOMIxeqTbDPVs8VYy25dNe12OX0DIXxD/dR4NGxT11Bp6SYkjFdE5TA8hLHPx0FdB/vVLeiDDqmCEnnlSIQot3azTX6SRruGPmF1NpSgzq5ls6qOTYZm1urrmKs4Rl7XARZ2H2a/sQldv3PE5F2MVRNYEgFqfGo26CtZINvHnM7dzO7cwSLZHnbpqlB5TYSHw7gJcMLVyWb1CarsCvyJ8IhNc5zeAR+1Hi3bdLWs7jrCso6DFHWXc9TUjj7kIiaMckbKiNi+JTGPGAM8WKzgqjRBzA6umlzLE0Vd7Ot0YnF6CXpdeFw2nE47DqcjKQ4HTmdKenE4eunttY+SXhyS2HD12vC6XNjcIep0fSw97uMfG508ulp0ZUWL6ZVIKSl+RrWOT4yQcbQ8UeSTyPlYoY9H1ga5b7mXR1fYmLHTzMEmG3qLaCndWK29WK0ObFYHdksvDosdp8WGw2LFYbXQa+2h12bH7glz0hhl+hE735mn4NKpMv57spyPvdHA10SLWSFazPdGzGQdmuwKBobCGCMWOgMKWrzdtHhUNHsMNLlNtLiMaAN2AgMh6eWKO8REgYuGMAZd9Ia9hAfFnuRNkouWxYhmGP9wDF3YQ4u3hzqnuJ5RMiwXUyIxMe8sisxQAk84SG+/j76BMINi6mvE9K4vHsPd34c/EiYm5p5Hl5qRz2ITHx7CFQliDbnwx0LS+C5pvpe0sBUE8ST6MISdUgEURuAi7o2AaNmE1awp7qEjaKPTZ8PQ78WR6Mc+0EdvxI8/GiAxJHSscRzxEKY+j/T84r5Sfg4jGY339vdhF3qLhMgPsZ5yiMhwAmc0RE+fF2+0X8oX4WTfE+nH0u/HFu/HGAsgC9lp8/dI+eOMB4lKlEzqAVLX6ieGJeahK2CiyaOh3qOgw6/FHLHTPyiWtos09tMbc2Pod2KPhkYWYYuzY9L0jW84IimylH4LMo8ZfdCJfyBylt31CDHH5PQIxKs7ZgzwyDoFnxLEfLOLyyY18aslMpaesCE3e/C7nDjtZqw2Exa7BYvditVmxWazYrdZsNl6sNrMWK2mETFjs1qwW60j2x6cvQ4M9hBHO4Pklrh4rriXR9aIltHHk+sEMV08s050acVnH08XCcKmRIxDfTxZLEjpHyGlj4fXBPnjioBk/D5pm4WdNVbkBidWWy/GHgvmHiuWHhtWsxV7j0USW08P1h4z1h4TFosVs7uPSkOY6Yd6+N7cLi6f0s5HJ8kkI/5v5Jxk8Qkd9n7RwiTp+E6VPyliplYwJM2fB5BGRcMxBoYTUqGLDQ8TGxYrLVJrO87ZWZZwhheBUT+Lo8WiZdFCiSDCoiVMFoKRo6XCnTrztKTW9b7TFVjJRWxnXiu1UiT1a/IpRi02Hln7mHTzISqcoRFb69Q1U48i/ievlcoJcZ0z7iam00W0NrH8cjh156SmfKycTvNIz2V4hHwir0fW5kiV7PDY3B5ZqykUS8MDRIfjDAwLHfLImxQkFN9HVrkk05hKe9KJiZQukVZxTymd58eZxBwFQcwKS4inNouIW518ZKKMT0xq58t5nby+00CVwoOr101vj5Eesw5jjxGjxYzJYqanx4ylx0RPjwFzjw5zj3Zkq8diNmIxm+gxJ4/rsbmQmfrZXONn4pakpc+jhW4eG2kZk91ZD8+s8/PMugDPFAd5plhskyIIKkj5eKGfRyVSenlwtZ8/rAjwwEo3L67vYU2ZmSZ1L/oeK1qDAb3RiMnYg9lopsdkOiUmab8eg8mM1uGnTBsk/ZCJny3o5NPT27hwUicXvlbLt3MqWVWlxx0RxBSESRaDdzJpcqpAjMg7x9ucMbYEvn1S/kW83U3e7neBt/v9veH9uOo7Sf2ZeKtq+d1f7S2JWdXbz3O7dVyX08lHJsn46GQZ18xo5bfLZJJSRWVwYzP3YDEZ0JsMaHt60PX0YDD1YDSZMJoMGMw6DGYtBpMuKQYtRr0Go1GHocdMt9lLaXc/cw57eb5I2Mc6ebTIw2PFHmlMKbqvorWUSLkuKMmfigOSJIkZ4ImiAI8W+iVj9wdXubl/lZvfr/DyhxUunlplZNZeHeWdVlQmExqDBq1Bg06nx6AXopPEqNdi1GmktAnydvU4OaTwkF/ew+PrtXx7voqbsru55s0qfpZbzoYaHcFYKqz96Dr8PSD1Cs4nZxx4rv3nOOd88r7hXVzw7Q59P9L3Xs9/N/kz9tjzHX++/Sm83flvRUzRDtS7I7x02MzNs2V8ZLKM/5oq56IprXxpZjOvbFNzqMWGRm/HbO5BYzShMlkk0Rp70BlM6AxGtEYDWqMerUGHRq9Fo1Wh1SjQ6lQojRZOKr2srfbzxnYXj69x8PAaD49IGlY3j0n2sW6eXufj6XWB01I8IkV+niwK8FhhgEfW+nlojYcHVrn44yoHv13p4n+XO/njEgOvb1SxpVpPi1qHSq9CrVei0qjQqFVo1UpJdBoFeiFaJUqdjjq1ld0dDpZU25l6xMHTOxz8cpWBu2bW8siCCvY3G4gKm99TndJUi3Z2Xn4gOPdrHMf/UZyXmGJPhz9GWpWNLy7o5iOTu/jIVDkfn9bFNTOa+Nm8JmbuV1LZaUVhsKPQ9SDXmVHozKi0JtQaAxqNHrVWh1qrRaXVoNSoUWiUKDUK5Fo1rRore5pdZO/v5c9FvVJr99BaPw8X+pLd2ZEpkafW+XhqXWBETo8xhcJHdGHFuPKhtT4eWOPhvtUufr/KwW9WOvn1cif3LDbx1EolM/fIONCgoFWtRqZVIlPJ6VbIUMiFdKFUyFCKfSoVDQo9hzp62NBoZXmNnTlVbmaUeXlhv4Nn1nUzfVsrtSr7iLIkJR8MMc/5tt5BDTyOfzPe57w/BzFPfzb2D7C8xcEPl8v578ntEjEvSFdy2bQ2bk+v4c9FHWyss1CrctCmstChNNKtMqBQG1CrdWgk0aLWqFGqlchVCmQqJR1qLU1KE5WyXjbVusja28vzxQ4eWe3mwTV+iWQPF3okYorurBhrCi3tafFJyqFHi3w8UujjwbVe7l/r4Y9r3Px+tZPfrnJwz0onv1zu5JdL7fxuiY4/r5GRu1fGtloVZR1qamQqGmVKWrpUNHepaejSUNWh4UCjisJKJXNL1eSVGik4bmfOSQ+zqgJkHfeRebiHtVUGFLbAiIOsD5aY4g6pjvMpjBPz3463zd63/PHdY8x0ibj66cIlwiEcUHr5Q6GcC6e08F9Tu7lAuNqY1s7NaQ08vFbOspMOjspcVHdbaOg20io3SATtUhroUgnRI1Np6VIq6VAoaFFoqO02U9bRy4FWL5vqAywuDzBtl4fn1wkvBR4eFFLo4ZFCF4+m1mIWeXlEWPhIramPhwp9PFDk5f5CL39c6+H3a9zcu9rFb1c6uGeFg/9Z4eTu5U5+vszJL5ZY+c1iHY+tVDBhq5yFRzVsqtGxp8HA/kYzexqsbKm1sazcyLTdcv5U3MKDq5p5aoOCVw7YmVEeJOt4iJwKP/MretnX1kuPb8R86tREyb+fmOLK4k6pUe1ZdzqlnT2tihor/xGMTcS/kpD34xrvEuJWb/t23+d0nYOYp/Xkwhtco7Wf57apuGp6Ix+d2sUF02VcMa2VL+S08qdNepbX+djX6eVwh42jnRbKZVbKZRaOtps53GaS5FibgePtWqo6dVR2mjna5mBPs4+tjSE2NfZTXBdhcUUfaft8/G2Tm4cLndy32skDa5w8sjYpD0lk9fFgoZ8H1vr54xov96728LvVbn67ys3/rvbwm1Vu7lnh5FeipVzu5BfLHPxsqYOfLHHwkwVWfjrPwG8XKXl6rZJXtiqZvFPF1J163txu5p+bzTxWqOXuRV18Pb+ZL+Y28q057fxylY5Htjr5xz4fUw55WXrSTZXGjzecXGd3+pW97av7l5EqIOcl5qlUvIV++Lw//JtwrgJ7rn3vBKPPG3vu2N/O9/t7wNjLvuVl3ukc09vg3AYGI9cWG3VwgGlHRZSuZi6c2sbHJ7Vy7fQmKdLzG/ttFLcKz3giJJ6bbR1etnT5Wd3oZFapgYyDWjIP6sk9qGPRMT3rq63sanazuznI1oZ+NghpCkvOm9fVi9Ul/aQdCvDXrW4eKXTwwGo7D67u5cHVDh5Y4+K+1W7uW+Xmj0LBs9LBH1ba+f3KXv53pYP/We7g7mVO7l7q5BfLndLnXyx18LMlvfxkcS8/WmjnB/Ms/GCOjh/OUfDzBTLuXijj7vlyfjxXxbcL1HwpT8WtOXKuz+7muqxOPpPZwU0zu/nKPD2/WGHmqfUmFh7vpc3ST2Qg1ZkUufTBElN0nIU+ODQ8hHMgjjXajzXShzceJTaUnD37fw5vy5j3B+IWomIMCKOGSBh7pB+v8IInvHOcmhf+13FuYo6CIzHE8uZefrS0k8umtfDR1+q4Ob2RP6zRkFPukSI1b+8MsqkjRFFXjCUdcSaVidZNxS+XyLhnmYLfLVPweKGGN3fbWVjVx/rGOBsbYqxvCLO+sZ+NDWE2NvRT3BBmaU2YzKMhXtjh4aliOw+vtnL/Kjv3rerl/pU2Hlpu5olVZv5c1MPzG3p4fqOFJ4qt/H5lD3cvsfDzxXZ+vtSZlMUOfrrIzo8W2vjBAgvfm2fmrrlGvj5Hy9cK1Hy5QMWd+Spuy9VK4RJEqITP5Oi4JlvLp7LUXJmh4PJ0BVdmqLgxU8aPZ7eQJ0IlOMPSRPFpqozuzr4/L+Z8EHcRxPQNDyILezlgVbJB2cB2eSPNNgPBuLDfTaZCLH8S9i59JOgfHmRgdNLeoiCPNQ8Q/5PT5MNEJUl6Kh97+hlV08j1xUYcKwz1RDqEiPPFcySRysNUW5+0GUpO9Y9cbaTAi/9iGk8sKk5O46cqx+Tdk+cKJ2ZJL/dBEoSkJVej73cab5EF58bIwcLQTuZzsVfTwcbuOkr0bXR7LfRLJo2pA9/Vlc/CWcQce0mxaPaIKchTO7Rcm97Mf71UxReyG/nLNhOL6vxsbA+ypSPIxq4Iq2VD5DQN8cQuD3fNU/G57C6+OEvJV2apuGuOht+u7OGF3T5mH4+xti7OhqZostWs72NDfZCNjSHWN4VZUdtPXnmAyfs9/G2Lg8fXWnlohZFnVuuYsNnA7BIbqyrdrK/3sKHJy9JqL2mHHDy7ycLvV5j5+aIefrzIzk8W9fKTRTZ+uNDC9xeY+O58I9+ab+Kr84x8cY6JOwpM3DLbwI2zjFyfZ+a6XDPXzjRyTbaeT2VppRB9l6VruWCKissntfOdmXXMO6rGEhKFP1nkUvY7HxQxU9WAORFhh72DiU3beaG8kFk1u6kyKfDHIxIhLVEPdV4lB+wt7DI3sdfUTHWvEmO/S3KNKeE8SR1NjSRJh/ASpi1k5qi9i8peBYY+t2SZNBpn5ICwcJGWkMVRhu1UODrZZ65jt7GWI9Y2Wr1GHHFBndQZySdL2eyk7py6oqgUbEN9NATMnHCokPl6JF+wpzFEfDiGY8BHa8DAIXsbu3rq2WVuoNTehTxkxT8ozN+SD3268jm7gjkvRg4U/pbq3Bbmt5TyUlkxkyrXs111Elt/yjH3WBa9e5xBzFT2JLM7eWHxClXBOLnVdr44q4ULXq7gm7MaefVAD6tbAmxoD7CpPchGWZTlXUNMOB7lnnUOvlggon2puXO2ni/ONvKFfAPfnGvgnhUW/r7DQ15piFV1EdY1REbIGWBTXYBN9UE2NAQobAiwvCbIzKNijtPOqxsN5O4xsK22lzptCJUzjsmfwBxMoPAMUGmMUNToZdJe0cIa+MkCMz9YYJXkewvMfGe+gbvmGfj6PJMUZEiESbi9wMIts83cOMvEDXlmPjvTyLWpkHwZKq5IF65FtFwwScm10zq4f3kHu1qt9A2MaGGFzenwQNINv+SK/30mZur9jpaRuyhjfgrUh3mwvIA/ly5kRfsRlF474aEErniIMnsrs7t28HrTGl6sW80/T65gcl0xxepyFEHL6ZUMY8pQssCe6eI5RIyGiIF89X7+fHIRE2sKOdLTRnDEkDx1mdHaYvHdPzRAS8hCobacGY1FTKxdymvVS5lQu4a81l0csrZhjwdGDORTVc4oskuOnhP0D0XRisXFzhamde7g1fpi1irLJdvb0xjCnwhS71GyXHmIiQ2FkgeGv1cv5dW61Szs3k+1W4l3UIRtSlY+p33lvrt3Jpw2K/o8FKprea5iFY8ems2c5l2opFVAKby7a47FeYk5WqfXNzjMLrWfXy1r4+o3K/jh3GamHLVR3BFiY7uPje0BNsiiLGwb5Ln9Ab67RDhRNkjh94S38y/MNktRvkRMzG8Jci438dwWG1nHAqyojbK+MczG+hCb6vxsFlLvZUujh82Nfgqr/aw47qa4yklphweVNYQ7FKMvNkAkniA6kKAvnsDVn0DpjrNfEWRaiY17lyejf31rrpm75pv45jwjX59r4MtzjXxhjpk7CizcNtvCzbN6uCHXJEX9uk4EFcrU8Kl0leS28goRki9Nw4VvdnJnVguT9mpptQRGxhKjiTlCzg+ImGLTFXGT3r2b+8vzeLO+iHJbF33CvQvDaP02NqjKmNpQzJvNxUxp38zf61Zx76FsnjxWwDpVBbaI73RKz0iyePOClEnDCWHOrY45WdlTwR9r8/nSnn/ym/3TKFaW4hkVkCdZdpLtnIDk3aCvl+XKMl6sXM7LlQvJbS1mVvdmyRXko0dnM6V2Ayds3YTiI25qRj/kyFXDQxGpItmoP8Hf6pbz48PT+cmhNKY0bpGcVY+GPeJmn76W7IbNvFlbyLTm9bzYuIr7y2fxwJFsZrVspd2vl7y2p1rMd0rM06kTS5+H8CXiVHpNTGnZzmOlBcxs2orMaxpzxnvHOyKmQKsjzMs7FdyVW809yzpIr3CxXtbPBomYfgo7o8ysjfPAJidfmK3npjwjt8wScSmNfFHExJwtgtWa+dJsA9+co+UXS3Q8udHK1BIvi04EKK4LsbkhyOaGAJvrvGyud7Gt3sXuBjdH23206IVbkAiB/jD90X76wv309ffT3xcmIlyFRAYIx4cw+gfY1SViqFj48QK9FH3sq/OsfHVuD1+ZY+KLc4zcUWDmtoIebsnv4cZcE5/NMUrRvj6TpeHTGSquGnH0fNl0JRdPk3P5xEZ+Mb+R9U023JI2diSnTpHygydmpyCmbJfkUTy/Yyfy4OlCagz0cszcJnkpP2BpodTdTbGlmsdOLuAHu97g1aqVNPSqzlxjeQriS3IkK1a0+AlzyNXBi81r+OmJGXzpwAv8bM8EVnaV4In3nXHW6RIkAiYl2Gdr5W8VS3niyGwWdO6i2tVBW0jLSuMxHirL54EDuazqOCotKzvz/qcT1BsVS7oayWnYzJOVc/nxsen88MgMXqlbR737tJ8gcYYz6qfaImOHupp9hkbKejvZam/glY71/GjfmzxyKIvduiq8seS60+STvjNijuZF6gx1LMBcxWGerVzMrNYdyHwfEDFP9/HBEopRWG/l2fWd/HmDilknvWyQhVnf7md9R4BlLRHePNbHL1ZauTlHy/UzRbCeHsmh8p1SBOkRmW3kiwV6vjZHyw8Xarl/jZFXd9ooKPOwuibEuoY+NjSE2FjvY2udk0NNDppVXnqcffhC/QT6fPhDXrxBPz7hJcEfIOgP0ReIEO6L4gnF6HTEWFzt5d5VRr48u4c7Cxx8YY6NL8zp4fNzTNw2W5gZ9nDTrB6un2nkumyD1IUdGxrhoqndXDS5ldvSavjnpnbqzf5RSh/htlN0YT94Yoq7dEY8ZMh283jFHPJbt6PwpwqFWLIVxRntozcWwp+IEhyKIx/0MEO9ix+WTOSJo7M4pKtPOupO3ecUUqVAKGvCdEatLFId4ukT83iicT73Vedy7/5prOoowXfGGG/0uSIuS5QNxkoeOTSTZ8rnssNcI8UsEV7mjwa6JUfNDxzMYVHzfgyB0YF9UtdIJsrS52J/dzWFXUdZoD3CPzqKue/EHCbUrqfRJTzrJSEt8xqK44334YwGpTgkfYNxjENB1rrr+HVZJr/aO5GVwv3JqC7wOyHmWF6kOKGJepknP8RzJxaT37oTuc985kn/As6ax0z9nU5KMhH9iSFabSFWVVvIPmhicY2H9e0h1rcHKO7so6AuzJ93eblrvpkbMnXcmG3i1twebs8T3s6TEZ3vFDLbyJ2zDcmxZ4GW787T8LvlWp7fZGb6QTfzT4ZZ3RhnXWM/W+pclLU7UJr9uHwhAsEA3oAHl8+Ny+vBfco7QgCfN0jAG8Qf6MPWN8A+RT/PbbXx9Tk93JJr49Z8K58r6OG2AhM35Zu5Pr+Hz+aZJc/rn84ycnWWgU9l6rgyXcMn09VcmqbmgsntXPbmSX45v5Y11TrsoVFaNylepSDjWHvZf/GNjMZYUp6TmHOZ1bIN+Sgvc2N0MhJ6iTPLdJAfH5nE46UzOaSrJjaQ8jEz9r0nF1eZBj1ss9QxpWE9r9eultxmvNa8gocPpLGy7cAZxDz91MnrCO8Fe22NPFs+h4cO57BAvp+2qFVy9LzD3czzJxfxbOk8tqmqJK8HpyGulBxriobBFwshdxjo8lqoDBjIVR/kiRMLmFKzTlp0nYLocp+ppU0iyBA7Q5389sRM7t47iZWdJVhDSVcsAsnO+ttRM5X9qfxJHq2OeJjbfZDnTiySKkf56Bbz7S74NjiLmKmMHUtMkVX++CDN5iA7Gh2sq3NQ3OihuDXI2s4Y6ZX9/H6djS/M0nN9hp6bskzcNtPErTON3DbLII0578g38PnZeomUdxbouXOOgS/P1nHXHDU/X6ThwcIe/rnbS3pZmAVVfRTXeimXedHYgri8Ackrgsvjxul2jYgbp0t89+Jye3G7PHi9flyhKCdNMdKP+vjlchtfFBVCgRCRDi035+m4Pk/HdTP1XJOl41MZWq5KV3NFmlrqvl4yTc6Fkzu5ZGIdd6afYOKuTlotPmKDKaX7h42YO+geXVuffm0SJKdZgx7e7N7Cjw++ySs1i2h0dJAYHJlakaYTUu89SQyh8DkZ0JDRuJmJVWsp0payu7eWjJa1PLZ/Oiva9uEdQ8zUk4ttcoxpZZHygOQm5LHK2UxRbWWm6QCvdRTzfOUi5rXvQebvOa0lHrl3qistxdqS1qeKqGOgEl1H5RGeKJ3H1OoiWh3qkfMEscS48ex3YBzys9RaIXnje+BQDrsMtfhiybGxIP47JWYSKV4kj1ZGfBR0H+TZEwvJbxWV47+ZmKlaMykjk1Ej31x9cZp1fvY02ymudbC2OcSy9gSvlwX56QoDN2WruS5Dzw1ZRm7JMXBzjp6bc3Xckqfj9jwdn5ul5fP5Or4wWyeRU4xHv1yg5xtz9HxvvoFfLjPx8Do7L+92MafMLQWtVdj66HX5cDqSHhJ6hVcEIc5e7A4HdoeTXqcTR68Dl1N4w+uj2RxjRV2Y57a5uGdFDz9fZuRHi7XcNVfJ1wqUfKlAxR35Km7NFcu5lNyQKee6DDmfTu/mmumdXDWpgdunV/PYqmZ2ttsISK4qk3l0uuL6MBBzHrNadtE9WiM46lgB+1CEXR4ZT9Qs4Z4D01nUtRNrxM6w6IJL10tqJ5PPlZz/VMXdFBqreKFsGfn126gPKKkOdZPesppH9k+TiCm6iymcWWST8A7FKA+qeK1T+LqdyLfKXuXrR1/mZ0cn80LDSvbbWqTAt6eTmyTk6XxN5WkSYkw3R3GEx0vnMKW6kFaHauSXZDQAsVD59DJq4bsowfGAgjda13HP3jQmVK2lySuUP8ljkou0BTXHEHNM/p3eN3pxOSgifmbLD/EXiZhbUfx7iTmalCMPOSqhIqaizRfhhNzJhjo7yxsCzGke4PmDPr6+QMnVmd1cnaHjuiwjN2YLouq4MUfDTTPV3DxTzW25Gu6YpeHOfK1Ezi/MNkixKr9UYOLLs418bbaB784z8JtlBv660cDqkw5aDUFsdhd2iwWbxYLF2pMUmxDx3YpVeEWwCK8INix2D23GPna09pNfFuDNfW5e2uPg+W0Wntxo4JH1Bh4oNvL7QiO/WW3kVyuN3L3cwM+W6fnxUgM/Wazmp3PbeGp1G2uqTWi9ycKTzKHU3FdSlS8VHmmsmQzF/r4ile+jZRQxM2UigE+KmKc9io9GmASVIQMT23fw20N5kuKnyt5ObFiML5PpTXYaTxc4L3H2uWRMat7Ca1Vr2KOvw4qf5rieqa2reeDANCk4UHAoZZaYxNjyLNxklgUUvN6+lp+XTeSHFW9w17GX+d7BV3n8RAFrteVoI26iUiBegfNVdkkoo34KFIclLeiUmrW0OJQjvyQVcUPDokpJpkkYIWgG3MxT7eP+g1n85dBctquqJT9HAkl9rDBTSPotOANjHkT6KO1LETN5/Ghizv7PEHO07wrojw8iswXZ2+llaWOQ9OoID213clu+jEvTu7g8UyuN2T6bbeCGbC03ZKu5IVvFjTkqbpmp5nN5Gj4/SyuR8858PXdKmtsevlRgkZQ1X8o38fV8DT+fL2PaHgMV3R5M5l5swvOB0TDiacCA0aSXFmMbpe8mzEYjZpMJfY+dFo2HAy1uimu8LKv0sqDSS0GFi5zSXjKO9jLjcC9TD/byZkkvb+x38Np+By/tc/DCHjuv7DYxfa+O9bUWuh19REZFkE6+lhQxR/JIvCxJ/sW3MRapPB8t5yGm/BzEFF742qI25mmP8fCx+TxfupTd+hpc0dFa0DMhiqsq4SFPfpAHjs7h1boi9tpaaeo3sdPTxHONi/ifA5PIbtmEKmQnJpwUn/XYw1Lg1vqAjgXyPbxYvYA3m5YzX7ebufq9vNCynPtLZ0rh/rYYajBGhFfW0+ee2XKOajGjfuYpDvNEWQFTa9aMIqY4RxBMuGhJSEF7NQM+NtvqeL5yIY8fyGF5m1AyCUddyTslPSOdef3T1xr9bVTGi+1IayugiPiYLT/IX04s+HcTM4VU7TkiqYI3AmHa1RseoM4apagzzMSyEHcX9vDp7C4umCHjUhEqXcwJZuulQLDXZ2u4XiKnmptzRFQtNZ/LVXOHIGiels/PMiQ1t7OtfGG2jc/PtvK5WQa+mtfNM+s0bKrrRaa1YxHuPwxJjwMGvRa9ToNep0Wv1414JNChNxhRGGzUKhzsa7Cw4aSVwiobq6vsrDhpZ+lJO4srbSw8YWN+hY25Fb3MKXeRX+Eit7yX3GMmFpTq2NVkodsWou+UTexYfpz57YOEKBrtEY80j/n48Xnkt+5CMYaYwj1l54CTpabjPHtyBc+WLqVQVo45LHyGn/kEoxEZjlET0PFybRE/2TGNJ8oXkSvbR4GyhNe6NnD3iXS+se9FHi/LZYuyApO/l8FRFZeAaIX0CQ8rdUf4S9ks3qxZyiFLHaaoHUvMy15vCy+1FvLbozlMqCmi1ikCCo1GstJLzgqcvrYuGmCh4jBPlYkWcw3NzlRXVkB0SROSCaJuKMA2RxMv16/myaP5FDRvp92tY1AKaSEuKfwapSrW09c/PUQZvSdFxJHfRvWMlBEvs+UH+HOleAdb6B6lgDsrY98lzkPMMRhDTPEpPAzmyDAHTXEmHHHwzQVyLpnexn9Pl3FRtprLstWSvem12SJ8uloSQc6bcjRSq3lrrprb8kTrqeVzeQbuyDPz+VlWPj/bxh1z7Nyab+FzuVp+tVRNZomJ8i4bBpMFk16DQaNAp+5Gp5KhU3WjVyvQatRodXoUBiuNWjeHO91srrdTWG1lTbWN1dV2VtX0srKmlxXVdpZX21lW1SutFll80seCKjcFZWYWlqnYVq+l0+yhL54aV45kwxnf/jMQaXgrYorfRYiDlriTRbZKnmpawdPVS1mmKkXZL3y/n76OeI+izRAh4MODImrzAP6hPmp9anKad/D4wXk8X7GCCY2beLGhiIdrF3BX2UTu3PdXfn1wIvObt9PlMhIdFA6qxDViRIfi9BGhOSqiSBdzz543SWspQhsXAXaSUOMn33yE/zmazZOH5lBq7pDSIlxWiSmO0GBU8jB32nlYEtrBEPM0R3n0eAFv1K+lzndaKysoJMaUhuEAmz3NvNheyGMn5pDVvp2GgEHyYzsawslZ/3Acv4jAPRiTQt2LILv9wzECQxFCQ8KvXTJqd1i4vRyMJkOySx4Gk6lSRbwUyPfzp8q55LVtolsKjDSCf7GwvDNijqpJUp9E4RA6uc5AgjnVdn66pJ0rpjfwX2IFSpaCi7IUXJGp4JosFZ/JUklxJwU5bzg13lRxS66aW/O03JZn4PY8E5+bZeFz+VZun23llnyLFEz2awUaHi3UsKTCTI28B4VajUYtR62SoVF2SeQUrkGUGh3tGgsnFE62NLtZUOliZlkvOeV28o73kn+8l4ITTuaccFNQ6ZJk9gkveccDzKzwM7O0l9lHtRRXq6nR2HCdmhpJPfW/mNPvE85FzIJWYQ6WJKYoNt2DARbZqvl93Ty+Xz6Dv7evZYerCVnMjkq4V4z5cSeikq2rGGmaI37qnVpa3XpMEQeasJ0yayfF3cclz+GFqioWqo4xoWsTvxIt5v5/8GR5LtvUJ9AHnASGEhiifuodKtpdOkwDbpojRjI7NnPvvmm83riKEwEZlrgb10AfJ/t1ZGr2cd+xfF4pW06DTS51LK2xIHW9Oup7tdiiIsC68PA3iDcRwxIPUxbU82b3Du6uyOKJmoVssTViifcTEKHghwexDoXYG+jkL20r+VHpFJ6om8/aniraonaMsRCWWBDvQH8ycPJwHF3EzXGHispeJYaIW7IH1kR6OW6XcdKpxBT3SuNtVdjNCZuSJqcGd8TLkNSdFV1r3wgx55DXtpFun+7MF/Uv4D0Rc/Rez+Aw5eYQb5To+OrsRi6c2sBHp3fwifRuLstQcFW6gmsyFFyboeQzmYKgSq7PUnJDtpIbc5TcKJFUxy25Rm7NM3Frnplb8kxS6PUbc82SVvdbs1U8XaRk0TEVh1vUNCr1tKkNdGkMdGsMdGl7aFA7ONDhZuEJBy/sMHF/kZY/FOu4f4OOx7YY+NM2E3/dbeef+5z8c7+Lf+z38Pd9Xv62x8Pft1t4c5eaJRVqKtR2ekLhkUheqaf88BBTQKSsY0Qr+2TFXOa27EA7opUVcU/2uZU82biKz+17iS8dfIWnGheRq9jBYlUJi+QlFMrLqLMq8SXC0iKFCrea7IadzGveS6NDiTcewhfvw9rvwxjySL5cO0IWtvXW8te6BdyzbwLZjetRBqyEBmII99HHPCoy6jczr2kXjT4dukE3W4wneLa0QArXkN5SzCpVCeu0pczs3M5fji/gL0fnsaatBGugFxF8vtKtJbt2F3Nq9tLuNiMmc9yJMI0uLVt1NaR37uLeygK+XPI6Pzw6lZebCtmkraXBqcee6KM50sM0xTa+VvIqd+z+K/dX5ZLdvYNl6mOskJdSLC+nwtSKI+zFNxTmuEtORu1mMk5upMohxzzk50hvG1OqCsmq3US1VyMFzD1o7WZ65Sbm1+2io1dNXERHl4gZoEBekmwxWzfQPaoF/1eLy7sgZvJOY+8nukLO+BBHDAFeOaDja3NbuWRqIx+d3MYnpnXzyRmCnEquTldyTbqST2fIuTZDzmcyFVwnJFvJ9UJBlKPnxpmGEdFLtqufnWniM9lGbszS8M18GQ+t7mDKXjmLK42sa7CxtcXO9mY7GxsdLD3pZGJJL/evM/GNeUpuyZNxS76c2wvkfHGOgq/P1/DtJUa+t9zCd1dYuWuZlW8uMkrOnH+3pI0pOzs50GXBFAhLrchpfDiJKWxls2S7pJiNC1q2Y/QnW0xBzF32Dp6tW8XPjkznnvIMnqtfzMv1Ihz8Ml45uZyMk+s5qKqVwgCIzu3anloePDCLl8qWcdLWTWzwTG2rgOhWdodNLJPtZkrFEvaqqqTuq8gVE1FWWeq4/0AuLxxbQq1LhOiJogyZWCMvYcLJZbxcuYhJdSuZ2riWN2pW8Eblcpa17aXLpWEgEaN3KESRsZZH987l5QPLaXRqpbIlYpQcMTcxu2U7L1Qt54HyfH5ZlslvyrN4pnI+uc07OGBsQRfzUNOvY1LHBn5+eAq/OjqNZ6rn8nrjGl6rW8Nr1atJqy5mY+dh9AEL3uF+jju6mHZiLVPLV1Nh78Q0HKDE2syrZcuYWrmWKpdSIuY+cydvlK4lr3IzrVYlA5ITNjHmDY0Qcw65rev/E8Q8F04XWNGwOxPDlPaEmXDYxHfmt3PN9GYuntzOJVPlXDpDySfTVJJR+JXpcj6VLudq0ZKmK/h0plKyUb0uWysZkX92RMTna3P0XJNj5NosPTfkqPhCXiffX9DF79aqeXJrD8/usvDcLitPbrHwu7VGvr1Qyy2z1FyVreKyLCWXZau4PFMlhWq/PEMjaYsvy9Rycbqai2bIuWJ6K59Pr+GJlY0U1+jQePskR8tnUlHQIDX4/3BApEQWcZHVvZ0nj+cxW2hIfUZpv1jY1Bows9FQzQL5AebK9rJYcYAligMs6t7Psq4SNnSV0mjpxhb305lwkacs4aGSXLLqNko2t6eiR4+5pyvuo87WyWFVNQqHXtonKrHmqItc1VEeOVhAZs0GVMEeqVREhyNo+y3SSpeNmnLWyA+zpvswm1UVHO1pQhUwER0SKzyH6QhZyesq4cmSecys2oIqaJWu70v00ehSsl19glWdB1ksO8ACxQHmKfexuPsAm9WVVPeq6In7UcZ72WmpZb58H/O790rPvFx1mCWKQyzrPkhx11GO6Rqw9IkWWqTNyiFdLSWaGlRBC24idAXN7BI2xvp6tP0OqSvb4beyR11Pma4Fm9DsjoQzUES8zOzezRMncsluKULm04zJsfeOf4GYZ8OVgBP2MDOrrPxuTTe3ZDRzycQ2PjZZzsena7gwTcslkh2qgivTlFyVppRsU6/JVEt2qkI+k6WV5NosLVeLBcvZOq7O0kmfxXj12mwVN83ScodYJTI/KbfPMXB9nparstRcmqHiokw1F2WpuTBLw4XpGj4xQ8fHZhj4r2l6PjJJyUfeaJeidt2eXc/jxR0U1ZmRO0NEB88cRyennUdNG30IkKowBDEzurdyf0UmbzaupNzZhm9IuOWP4Y/30dPvQRfsldzxy/1mukdE5bWg99jxhP3YB8Lst3fxZu06Xi5bynZ1JV4p3sa5OwkDQ3ECkSDukI/+aNLqxzecYI+lizdrNjGhYg271VX4RkLkJSvtQfyJfnr6XNKqF43PSk/QhS8uzNxFm5hcRnXIImNC5XrePF7Ifm0dnpFoXmIliDsSwOh3oPPY0Plt6IO9aIM2VH4r+kCvFEohOBSVwk1YI270QTu6gA2134rSb0Xut6D09aD1WrEGXfQPCN3tgKTMcYV9uPq9hAYiUpySYCJCb78XZ9hP/2BUigsTHAjj6PNJ4STE9JAwUPAT5URIyxsdhfyxfAZpzavp8KYskf51vK/EFMVX2O13BuIUtjl5bpuGu+Z2SSEWPjpFuMBUSBGzLpym5NIZKqkVvTJdzacyhKgkuSZDLRH16sykVveUZAvi6bgyS88VmTouz9DxyZEW8NJMLZdkarg0Q8ulGRouyVRzcZaaizIFMdVSmPb/mqrhI5O6+fjEVj6b3shPF7Uwcb+aEoUHa794TUmkqJicdE/Np334iKmKeaX1kX88ns1jFXnM69pBi0dOUJDirBZvFMNStY7o5QzE2KapI6dmC+s6j6Hw9Zx+ynfQSRA/9w5G2aFpIq96B5tkFegCPVLAgzNu9BYQR7gGY+w3tJN7cgcbu49j7OslMRJfRZLUQ6fSNFpGcHpOedTx55JTdz37Ac/8ltqTev+nIQKzd4R7WKY7zONVs7j32FRyWovp8o/Syv6LeF+JmXo0MWg3RQY5Zuoj+7id361VcnNOO5dMaeNjkzq5YIpcIufF05MEvSJNKYlY0XGlRFYlV2YouSpTLcmVmSqulLZarhRdUiFiEXOGhssyBRE1XJKhTkq6iovTlVyUruTCGXIunN7FJ6Z2cOHkVi6fXM9XZtbx1PpOVtVZaLP3EYyfjrKUeoKkiBd3btOw/yySqbUOhCWt5Isi8KywhDmxnMPaKjzR1Cr60RhT5Ea+euMxqizdHNQ2IPf00D+i1JCe/4yCfNYVJIjKy5OI0mDXckzXhtxjon8wGeEqOQ95ZoE+F4RZgGsgQqPDwFF9O90es9TqnyLEaKON0y9nDMSO0T2bkQNGH3/GOeLLmcQ865BTe88kpjhLdHkrHF1kN2zgmWN5/LNyPsXqIxj6RWj39wf/FmKmPgWHocMdY2Onh9dKjPxqhZzbctr55OQWPjahhf+e0MrHJ3dy8TQZl05XSGPRy2aopcXJnxSrPDKEqLksQ5AwSUSJkKdEw2WihczQcHG6hovS1Fw4XckFU2R8bGIbn5jQwGVv1vDZadV8I6+eB9e0k31UyyGFk56A8DxzJs58MamX/eFqMVOpDA0NIut3st/SzkblCXYpTtBuU9AXF3EjUwVPSKrAjiqsI2Uymkhg7/dKLjFEnMkxP5+BVMFNWgonry224jxPJISrP0A4kfTmIwLrnA7/M+pKqSSNXEP8iUXHoUQcZyQkrTLpl7wipPJ+jJnj6USc5xnHyCmLrFFy6pyUnDYrSD336Oc8XcEk7b3Ep8BwHJnPzAFNHZvkZezX19Lh1eMfGBkGvA94n4k5Kt9GIF63Kz5MkyNCYbOT1/bo+N9lXXx1Vgs3pDdy1fQmLp3SzEWT27lwsowLJiu5YLKaC6ZquWCahgumqblguopPTBekU3PRtKRcOE3NJ6aquGCqmo9PVfGxyQoumCzn4skyrpjSznVTG/lCei0/m13LM2uayS5RsLfTgcobpW+Mpcr5ceYL/HAgmQ4RjUpE8AomBvDFowRjYaIDMYYkgo0tfELGXGLsixrB+Z52bIE995EimtVQUkaIe8bvp+6ZvIYUZWsk0tZpE/rUgee6/miMPua9SvLaY+82+jlTIn5NPblwyyK84oXiUQKxMKEB4Z1wQHKRcr7Uvlv8G4l5+pNAdGgYS98AjbZ+tnW4ySk18ectCn6xpJUv5tRz3bR6rprczKWTO7hQjAUnK/j4ZGVyO0XBBVOUXDhFyUWTk3LhZAWfmCREzoWTZFw8sZOrpnRwa3on3yvo4v4VXby2TcaKE3rKFU7UjiD+iDByfrd4v7L6g8Tp4vVuMPqstz7zrY86996zkSLDe8f505DE2CcaK2+H0cckz3knZ70f+LcQ89SnU12I078LYvjiQyjcEUo1XtY0WEg7rOGvWxQ8uEbO3Uu6+dZcGZ/Pk3FzdhfXZ3Tx2fQOrpvRzvXT27hhehs3Tm/npvRObs/q4kt5Mr4zR86vlqh5pFjHq7tNzDtuZ2eri1q9lx5fmGhiNB1FYoakOIpCxnEaY4vhB47/yE3fDT64BL7vxDwDoyOgprRlqZ/EnNvQEM7oACpvmBpzkH0yD6vr7OSWmZiwX8/fd2j580Y1TxcreHKtjKfWdPL0mi6eWdvNsxuUvLRDy9QDegrKeyhudHNQGaTJHsYUTBAYGCYu3S9VO57uwiS7KR9kNo9jHO8O/15ijkaKCWe1UslevJhD9EUTWIIxlN4ILb19VJtDHNcGKVP6KJW7Ket2Ud7tpkLhoVLrp6EnRKezH503gr1vgEBMRGIec3kJSWIm73R6hHTOQ8cxjg8BPjhiCqSImRKJHmM0d6MgfhFLzOKDQ8QTg6dkYFAoDN66v38mFU//nR7Ov/X54xjHfxIfLDHPi1PN6RhJtW3nUIWPqLDPbvuSn0eflerAJnWFp//GqTmODys+JMQUOB8p36mceaXzEzPlf/vshbjjGMeHBR8iYo7FWKK+nbzdmamO7Dgxx/Hhx4eYmP8OnKboeDd2HB9m/D9GzHGM4/8Gxok5jnF8CDFOzHGM40OIcWKOYxwfQvx/R4XrUKPUplgAAAAASUVORK5CYII=;" parent="1" vertex="1">
          <mxGeometry x="403" y="-520" width="230" height="93" as="geometry" />
        </mxCell>
        <mxCell id="NeXbTHolgeKM8Cqgu51a-21" style="edgeStyle=orthogonalEdgeStyle;rounded=0;orthogonalLoop=1;jettySize=auto;html=1;exitX=0.012;exitY=0.896;exitDx=0;exitDy=0;entryX=1.004;entryY=0.409;entryDx=0;entryDy=0;entryPerimeter=0;exitPerimeter=0;" parent="1" source="NeXbTHolgeKM8Cqgu51a-12" target="NeXbTHolgeKM8Cqgu51a-20" edge="1">
          <mxGeometry relative="1" as="geometry">
            <mxPoint x="700" y="-420" as="targetPoint" />
            <Array as="points">
              <mxPoint x="887" y="-561" />
              <mxPoint x="887" y="-570" />
              <mxPoint x="771" y="-570" />
              <mxPoint x="771" y="-472" />
            </Array>
          </mxGeometry>
        </mxCell>
        <mxCell id="NeXbTHolgeKM8Cqgu51a-22" value="6.&lt;div&gt;If Received Number&lt;br&gt;EVEN&lt;br&gt;Post to&lt;br&gt;Azure App Service&lt;br&gt;Hosted&amp;nbsp;&lt;div&gt;.NET Minimal API&lt;/div&gt;&lt;/div&gt;" style="edgeLabel;html=1;align=center;verticalAlign=middle;resizable=0;points=[];" parent="NeXbTHolgeKM8Cqgu51a-21" vertex="1" connectable="0">
          <mxGeometry x="0.2669" y="3" relative="1" as="geometry">
            <mxPoint as="offset" />
          </mxGeometry>
        </mxCell>
        <mxCell id="NeXbTHolgeKM8Cqgu51a-30" style="edgeStyle=orthogonalEdgeStyle;rounded=0;orthogonalLoop=1;jettySize=auto;html=1;" parent="1" edge="1">
          <mxGeometry relative="1" as="geometry">
            <mxPoint x="40" y="-820" as="targetPoint" />
            <mxPoint x="400" y="-482" as="sourcePoint" />
          </mxGeometry>
        </mxCell>
        <mxCell id="NeXbTHolgeKM8Cqgu51a-31" value="&lt;div&gt;&lt;br&gt;&lt;/div&gt;" style="edgeLabel;html=1;align=center;verticalAlign=middle;resizable=0;points=[];" parent="NeXbTHolgeKM8Cqgu51a-30" vertex="1" connectable="0">
          <mxGeometry x="-0.3846" y="1" relative="1" as="geometry">
            <mxPoint as="offset" />
          </mxGeometry>
        </mxCell>
        <mxCell id="NeXbTHolgeKM8Cqgu51a-35" value="8.&amp;nbsp;&lt;div&gt;Consume Even Numbers&lt;br&gt;And&lt;br&gt;Display them&lt;div&gt;&lt;br&gt;&lt;/div&gt;&lt;/div&gt;" style="edgeLabel;html=1;align=center;verticalAlign=middle;resizable=0;points=[];" parent="NeXbTHolgeKM8Cqgu51a-30" vertex="1" connectable="0">
          <mxGeometry x="-0.2321" relative="1" as="geometry">
            <mxPoint as="offset" />
          </mxGeometry>
        </mxCell>
      </root>
    </mxGraphModel>
  </diagram>
</mxfile>
